<svg width="1000" height="1000" xmlns="http://www.w3.org/2000/svg"><path fill="#000" stroke="#000" d="m462.5 130 7 1 3-1 8.5 4.5q-.9 3.4 4.5 1.5l1.5 4 3.5 1 2-1v1l-1.5.5 4 2.5.5-2 4.5 2-1 3.5 2 1q-1.1-3.3 1.5-2.5l3.5 1q-1.2 3 2.5 2l8.5 6.5q-1.1 3.3 1.5 2.5 1.5-2.5 3 1 3-.8 1.5 3h2.5l3 5 2-1 3.5 5 5 3.5q-.7 2.3 1.5 1.5l10.5 13.5q-2.2 1.3.5 2.5 2.3.8 1.5-1.5l3-4q-3.5-1.5-1-3l1.5-3.5 4 2 1-2q-3.7.8-4.5-1.5v-3l4-6-1-3.5 4 2 1-2.5-3-.5v-4.5l4.5-7.5q4.2 1.3 2.5-3.5h-2l1.5-2.5 5 1 2.5 2.5q.5 4-2.5 4.5l-1.5.5 2.5.5 4.5-3 1 6q-3.7-1.2-2 4l4 1.5 2 7.5-2 .5q2.8 1.1 2 4.5 3-1.2 2 2.5l1 2-3 2 1 2.5 3 1.5v4q-3-.7-2 3.5 2.7-1.1 2 1.5l2-1 2.5-3.5q1.8 3.8 3.5.5l-1-3 3-2q-.8 3 3 1.5l-1-5q3.8 1 5-1.5l-1-3 1-2.5q2.7-1.1 2 1.5l1.5-.5q3.3 1.1 2.5-1.5l3.5-1.5q3.6 1.9 3.5 7.5h-1l-.5-2.5-2.5 1q-1.7 4.1 2.5 3 2.5 1 1.5 5.5l-3 1.5q-1 4.3 2 3.5v5.5q-3-1.2-2 2.5l1 2-1.5 3.5-.5-2q-4.5-1.5-3 3 4.1-1.7 3 2.5l-1 3.5q-3.3-1.3-2 3.5-5.2 2.3-1.5 4.5 3.5-3.2 10.5-2-1.1-2.7 1.5-2l7-2v1q-3.3-1.1-2.5 1.5l4 1.5 1.5-4q4-.5 4.5 2.5l1.5 2.5 2.5-1 2.5-4 7-4 2.5 1q-.7-3.8 2.5-5 3.3 1.1 2.5-1.5l1-2.5 4-1q-1.1-2.7 1.5-2 2.3-4.3 4.5-2.5l2.5-3.5 3 1 2.5-1-1-3.5 2.5-.5q4.2 1.3 2.5-3.5l5-3 1.5-3.5 2.5-1.5 2.5-3.5q3.8 1.3 2.5-2.5l1-2.5 3-1.5 1.5-3.5 2-1 1.5.5-1-3 5-3.5 2.5-4q3.3 1.1 2.5-1.5l4.5-2.5 5 1 4-1 7.5 5.5-1.5 2.5q-2.6-.7-1.5 2l4.5-3 6.5 9.5v2l3 4v3l-2 4 2-1 .5-1.5 1.5 1.5q-1 8 2 12l-2 5 2 .5-1 5.5 1 2-1 2 1 4-1 6.5q-3.3-1.3-2 3.5l1 4-2 3v2l-1.5 2.5H741v4l2 .5-1 3.5-5-1q-1.1 2.7 1.5 2l1.5 3.5-5.5 8.5q-2.6-.8-1.5 2.5l1 2-1.5 2.5-1-2q-4.7 2.3-.5 4.5l-2.5 4.5-1.5.5v2l-5.5 8.5-3-1 .5 1.5q.8 4.8-2.5 5.5-2.6-.8-1.5 2.5l-3.5 2.5-2-1 .5 1.5q.5 4-2.5 4.5-2.2-.7-1.5 1.5l-4.5 3.5-2-3-1.5 3 3 1.5-11 9 1.5.5 4-2 4-1 1.5.5 1.5-2.5 4.5-1q-1.1 3.3 3 2l-1-3.5q1.8 1.6 3.5-1.5l8-3 3.5 1 1.5-3 19-4h2l8-2 3 1q1.4-3.2 6.5-2l.5 2 8.5-3q-1.2 3.7 4 2v-2h6l.5 2 7-2 1.5 1.5q-3.7 1.8-.5 3.5l3-4 4.5 1q-1.2 3 2.5 2 1.7-3.5 7.5-2-1.3 3.3 3.5 2l5-1 9.5 4 .5-2 10.5 3 1.5 3h2.5q-1.1-2.7 1.5-2l3.5 1-2 3.5 2 1 2.5-3.5 4.5 1q-1.7 4.1 2.5 3l3-1 2.5 1.5-1.5 2.5 5-2 4 3q4.5-1 5.5 1.5-1.1 4.2 3 2.5-1.1-2.7 1.5-2l10 5 6.5 1.5-1 2.5 5.5-2 2.5 1q-1.1 2.7 1.5 2l2-1 2.5.5 1 3.5q4.3 1 3.5-2h5.5q-1.3 3.3 3.5 2l4 3 1.5-3q4.6-1.2 6 1.5l.5 1.5 5-2 3.5 1-2 5q2.7 1.1 2-1.5l3.5-2.5 3.5 2.5q-.8 2.6 2.5 1.5 3.5 1.3 2.5 6l3 1.5-1 8 1 3-3.5 8.5q-2.6-.8-1.5 2.5l-4 5 1 3-1 2.5-5-1q-1.1 2.7 1.5 2 2.8 1.2.5 2.5l-5 8.5-5-2q-1.1 2.7 1.5 2l1.5 1.5-4 4-4.5 5.5-1.5-3q-3.3-1.1-2 3 3-1.2 2 2.5l-6.5 7.5q-2.6-.8-1.5 2.5l-6 8.5-3 .5v2l-2.5 3.5-1.5-.5q.8 4.8-2.5 5.5-2.6-.8-1.5 2.5-1.2 3.3-5 2.5.8 3.8-2.5 5l-2.5.5 1 1-3.5 3.5q-2.2-.7-1.5 1.5-1.3 4.3-6 3.5 1-3-2-2l1.5 3 1.5.5-5 2.5-.5-2-2.5 1 1 3.5q-1.4 2.8-6 1.5.8 3.8-2.5 5l-7 4-3.5-2 2 4-4.5 2-3.5-1-1.5 4-8 3-2-1q-1.5 5-7.5 4 1.3 3.3-3.5 2h-2q-5.4-1.9-4.5 1.5l-3.5 1.5-3-2-4 3h-4l-3-2q-1.6 4.3-7.5 3 1.1-2.7-1.5-2-1.2-2.2-2.5.5v2.5h-6l-1.5-3-2.5 1.5q.9 3-3.5 1.5-1.4-2.6-6-2l-4 1-5-1-5-3-2 2-3-1q-2.2.8-1.5-1.5l-1.5.5-3.5-1-1.5-3-4 2-3.5-1 1-5q-3-1.2-2 2.5-1.2 2.8-2.5.5l-3.5-1q1.3-3.3-3.5-2l-1.5-.5v4l-3.5 6.5q-3-.8-1.5 3h2v6q-3.3-1.3-2 3.5-3.7 1.3-3 5.5l3 1.5-1 4.5-3 .5 1 3.5q3.7-1.4 2 4.5-3.5 1.5-1 3l1 7-1 4q3.6 1.9 3 6.5-2.7-1.1-2 1.5l1 2.5 3 1.5q.8 3.8-1.5 4.5l-1.5.5 1 2.5 4-2-1 3.5 1 4.5q3-1.2 2 2.5l1 3.5q-2.7-1.1-2 1.5l4 3 2 8-1 2 3 8-1 4 2 6-1 4 1 5-2.5-1.5q-2.6-.7-1.5 2l3 1.5q1 6-3 7l3 2q.8 3.8-1.5 4.5-3-.9-1.5 3.5l1 4-2 1-.5-1.5-2.5 1.5 3 1.5v4.5l-3 6 1 2-2 1q.7-2.6-2-1.5v3q3-1.2 2 2.5l-1 2.5-5-2 3 5.5-5.5 8.5q-4.2-1.3-2.5 3.5 2.3 1.3-.5 2.5l-3.5-1 1 5.5-2.5 1.5-2.5-1 1 4.5-4 2.5-.5-2-1.5 3q2.7-1.1 2 1.5l-2.5 3.5-.5-2-3 1.5 1 3-3 2q.8-2.2-1.5-1.5l-1.5 2.5 1 2q-1.2 2.7-2.5.5l-3.5 2.5q1.3 3.8-2.5 2.5l-4 5q-4.2-1.3-2.5 3.5l-5 2.5-1.5 3-4.5 1.5.5 1.5-4.5 2-.5-2-2.5 1q-1.1 2.7 1.5 2l-2 3q-5.4-1.9-4.5 1.5v2l-1 4 1 5-3 1.5q-1.3 4.1 2 3v3.5l-5 11 1 2-1 3.5-5-1q-1.1 3.3 3 2v2.5l-6.5 8.5q-2.6-.8-1.5 2.5l-5 3 1 1-3.5 3.5H634q1.1 2.7-1.5 2l-3 2-3.5-1-2.5 4H621q1.3 3-2.5 2l-3.5 1-.5-2-3.5 2.5q.9 3.4-4.5 1.5-1.1-2.7-4.5-2l-2.5 4-7.5-3-1.5 3h-4q1-3-4-2l-5 1q-1.5-3.5-3-1l-3.5-1-1.5-3q-3.3-1.1-2.5 1.5l-1.5-.5-6.5-1-1 4-5 1.5 1 2-1 2.5-3 1.5-1 3.5-3.5 1-1.5-.5 1 3q-1.2 3.3-5 2.5.8 3.8-2.5 5l-2.5 1.5q.8 2.3-1.5 1.5-1.5 3.5-3 1-2.2.8-1.5-1.5l-2 1 3 2-4.5 3.5-3.5-2 1 3.5q-1.7-1.6-3.5 1.5l-2.5 1.5q.8 2.3-1.5 1.5l-4.5 1q1.3 3-2.5 2l-2 1h-2l-2.5 1.5-.5 1.5H496q1.1-3.3-3-2-1.5 3.7 1.5 3v1l-2-1-4.5 1q1.3 3.3-3.5 2h-4q-1.7 2.8-7 2l-4.5-1q1.4 4-5.5 2l-4-1q-1.3 2.3-6 1l-4-1q-1.2 2.3-6 1l-3-1-2.5-1.5q.7-3-3-1.5l-1.5 3-4.5-1-.5-2h-8v-1q3 .7 1.5-3h-3q1.7 4.1-2.5 3l-3.5-1q1.3-3.3-3.5-2l-3-4-5 1-2.5-1.5 2-.5q1.5-4.5-3-3 1.1 2.7-1.5 2l-8.5-5.5-.5-2.5-2 1-4-5-1 1-3.5-3.5q.8-2.2-1.5-1.5l-3.5-4.5 2-3.5-3.5 2-1.5-3.5v-2q.8-2.2-1.5-1.5-3.5-1.3-2.5-6-3.8 1.5-3-1.5l-2-3 3-1.5q1.7-4.1-2.5-3l-2.5-2.5-2-7 1-4q-3.2-1.4-2-6.5 2.7 1.1 2-1.5l-2-7q3.5-1.5 1-3 1-5-2-4v-4l1-2q-4-2.2-4-7.5-2.7 1.1-2-1.5l-2-3 1-2-2.5-1.5-1.5.5v-2l-1.5-2.5H339v-5h-3.5l-2.5-4q-3.8.8-5-2.5.7-3-3-1.5 1.4 3.7-4.5 2l-10-5-3 2-3.5-1q1.3-3.3-3.5-2-1.6-4.9-8.5-4.5l1-3.5-4.5 1-1.5-3.5q.9-3.4-4.5-1.5-2.7-1.2-.5-2.5 1.3-3.7-2.5-2.5l-3.5-5-4-2.5v-2l-4-5 2-3-4-3V662q-2.7 1.1-2-1.5l-1-4 1-3.5-3-1.5-1-4 3-1.5-1.5-3q-2.2.8-1.5-1.5l-1-3 3-4.5-2.5-1-1 4-.5-3.5v-5l3-4-3-1.5v-4.5l2-4q-3.2-1.2-2-7l1-3-1-6.5q2.7 1.1 2-1.5l-1-2v-2l1-9.5q3.3 1.3 2-3.5l-1-6.5 2-.5-1-3 1-2.5 3-1.5-1-4 2-1 .5 1.5q4.8-2.2.5-4.5l2.5-4.5 3.5 2q1.1-2.7-1.5-2-2.2-.7-1.5-4.5l3-5-2-.5 2-9.5 1.5-1.5h1.5v-4l-3-.5q2.6-2.9 2-9l-1-5 1-4-2-6 1-4.5q-2.7 1.1-2-1.5l-1-3q3.5-1.5 1-3l-3-4 2-4q1.5-4.4-1.5-3.5l-1.5-1.5-1-10-1.5-1.5-3 2-3 2q-1.1-2.8-4.5-2l-2.5 4H251q1.1 2.7-1.5 2l-3 2-2-3-2.5 1-1.5 3-2 1-5.5-3v2q2.7-1.1 2 1.5-1.3 2.8-2.5.5h-5l-6 3-3-2q-2.1 3.9-7.5 3 1.3-3-2.5-2l-1.5 3h-4.5l-4-2q-1.2 3.3-7 2l-3-1q-1.2 2.3-6 1l-4-1-4-4-1.5 3 3 .5-2.5.5-6.5-1q1.3-3.3-3.5-2h-2l-4-1h-2l-3.5-1q1.3-3.7-4.5-2l-1.5.5q1.7-4.8-2.5-3.5-1.5 3.5-3 1l-3.5-1.5q.8-2.2-1.5-1.5h-2q-2.2.8-1.5-1.5-1.6-2.9-7-2v-2q.8-2.2-1.5-1.5l-2.5-1-.5 2-2.5-1.5 3-1-1-2.5h-3q1.1 2.7-1.5 2l-3.5-2q1.3-3-2.5-2l-3.5-2.5 3-3-1.5-1.5-1.5 3q-6.3-1.8-10-7.5l2-3-2-1-1.5 2.5-3.5-2.5-1.5-2.5-3.5-2.5 2-3-2-1-1.5 2.5-3.5-4.5 1-3.5-3.5 1-1.5-2.5 1-3.5q-4.7 1-6-2.5l-1.5-2.5-2.5-1.5q-.7-3.7 1.5-4.5 2.6.7 1.5-2-3.8-1.5-3 1.5-2 3.5-4-1l-1-2 2-3-2.5-1.5.5 1.5-.5 1.5-2-3 1.5-.5-2.5-3.5-3.5-1.5q1.7-4.8-2.5-3.5-3.2-1.2-2.5-5l-4-2.5q-1.1-4.2 3-2.5v-3q-5.2-2.1-4 2.5h-1l-1-8.5q-2.7 1.1-2-1.5l-1-3 3-1.5q-1-4.7 2.5-6 3 .9 1.5-3.5l6-2.5q-1.2-3 2.5-2l16-6 3.5 1 1.5-3 4-1q2.2 5.3 4.5 1.5l-3-2 4.5-2.5 3.5 1 1.5-3 9-4 3.5 1q-.7-3.8 2.5-5h2l5-4q1.1 2.8 4.5 2l-.5-3-1.5.5q-.7-2.2 1.5-1.5h2q3.3 1.1 2.5-1.5l1-2.5 3.5-1 2 1-.5-1.5q-.7-2.2 1.5-1.5l6-4 5.5-1 1.5-3 3-1 3 3 1.5-1.5q.7-2.6-2-1.5v-2l3.5-1 3.5 1 2.5-4 8-3 3 1 1.5-3 4.5-1 1.5 3q4.1 1.3 3-2l-3-1.5 13.5-3.5 4.5 1q-1.1-2.7 1.5-2l4.5-1q-1.2 3.7 4 2v-3h6q-1.2 3.7 4 2l1.5-3 8 2q1.2-2.2 6-1l4 2 4-1 3 1h3q-1 3 4 2l2-1 9.5 3q-1.1 3.5 6.5 2 2.8 1.3.5 2.5-.7 2.3 1.5 1.5l3-2 9.5 4.5.5 2.5 5-1 2 4q1.5-3.5 3-1l1.5-.5-1-2 1-2.5-3.5 1q-4.3-1.7-1.5-3.5 1.3-4.2-3.5-2.5l-2.5-4-4-2.5-1-2 1-2-1.5.5q-3.3 1.1-2.5-1.5l-5-6V283q2.7 1.1 2-1.5l-2.5-1.5-2 1-.5-2.5V275q-3.8 1.5-3-1.5l-1-4 2-3.5q-3.8-1.5-3 1.5h-1l1-2q-4.4-4.1-5-10.5l3-.5-1-2.5-4-2.5q-.7-3.7 1.5-4.5 3 .7 1.5-3l-2.5-1-1 4-.5-3.5v-2q-.8-5.3 3-6l-2-1-1.5 2.5-1.5-3.5 1-5-1-4 1-2-1-3v-10l1.5-1.5h1.5v-4h-2v-6q3.7 1.3 2-4.5l3-4-2-4 4.5-8.5q2.3.8 1.5-1.5l1-2v-2l.5-1.5.5 2 3-1.5-.5-2.5-1.5.5 2.5-3.5 2 1 2.5-1 2.5-4 7.5 3 1.5-3 4.5 1q-1.2 3 2.5 2l3.5 4.5-1 2 1.5-.5 3.5 2.5 1 2-.5 1.5 2.5 1.5 1 2-1 3 5 4q-1.1 3.3 1.5 2.5 3.3 1.2 2.5 5 2.7-1.1 2 1.5l2 3-1 3.5q3 1.3 2-2.5l2 1 1 2v2q-.7 2.3 1.5 1.5 1.8-2.7 3.5 1.5v2q-.8 2.6 2.5 1.5l2.5 4q3.8-.7 5 2.5-1.3 4.2 3.5 2.5l2.5 4q3.8-.7 5 2.5-.9 3 3.5 1.5l5-2 2 1 3-4 3.5-.5-.5-1.5 5-2 .5 2q3.7 1.5 3-1.5l-.5-1.5 5.5-1q1.3-3-2.5-2l-3 1-6-2-2.5-2.5 2-7-2-2 3.5-3.5q1.1 2.8 4.5 2l-.5-3-1.5.5q-.7-2.2 1.5-1.5 1.5 2.5 3-1 3.3 1.1 2.5-1.5l9.5-5.5 4.5 1 1.5-3 3-1 4.5 2q1.3-3-2.5-2v-1l3-1 2 1 2.5-1q-1.2-3 2.5-2l3.5-1q-1.2 3 2.5 2l1.5-3 6-1q-1.7 4.1 2.5 3l1.5-3 3.5-1 2.5 1q-1.2 3 2.5 2l1.5-3 6.5 2 13.5 1 1.5 3 5-1 10 5 5.5 1 .5 3 .5-3.5-2-5 1-2.5-4-2.5-3-8.5 2-.5-2.5-3.5q-2.6.8-1.5-2.5v-2l2-3-3-1.5-.5 3-1.5-3.5 1-5.5q-2.7 1.1-2-1.5l-1-3 1-5-1-4.5 5 2q1.1-2.7-1.5-2l-1.5-2.5 2.5-2.5Zm15.5 9q-1 3 2 2 1-3-2-2Zm-16 7v2l2-1-2-1Zm15 3-1 3q3 1-1 3-1 3 2 2l2 3 1 4-1 3 1 2q-1 3 2 2l2 5-3 1 2 3 2-3 1 4 1 3q-1 2 2 1l1 4 1 1-3 3 2 1q2 1 1-2l2 1-1 3 1 2 4 3q-1 4 2 3l2 4q1 4-4 2v4l-9-4-2-3h-1l-3-1q-3 1-2-2l-3 1-4-1 1-5q-3-1-2 3l-4-1q-3 1-2-2h-7l1-3q-4-1-3 2l-4-1q-4-2 0-3v-3l-3 4q-6 1-6-3l-3 2-6-2h-11l-1 1h-10l-3-3-2 3 3 1-2 1-3-1-4 3-5-1q-4-1-3 3l-12 5 11 1 2 2h7v1q-3-1-2 3 5 2 3-3l5 1q2-1 1 2l6-1 1 1h-1v2q-1 4 3 2l2-4 4 3q-1 2 2 1h2l2-1 1 1h-1v2q1 3-1 4-5 1-6-2 1-3-2-2l-1 5h-5l-1-1-3-2-1 4 2-1v2l-2-1-2 1-4-3q-4-1-3 2l-2 1h-2q-3-1-2 2-8-2-11 2l-4-1q-5 0-5 3l-8-1q-1 3 2 2v1l-2-1-2 1-3 4 4 1q2-1 1 3l2-1h3q1 4 5 3l1-2 4 1q1 3 3 1l2 1 1 3 3 1q2 1 1-2h4q3 2 0 3h-2v4l3 2-3 2-4-1-1 4-2 1q-5-1-3 3l-4 2-4 4-2-2-3 1 1 4-2-1-2 1-4 5h-2v5h-4q1 4-2 5l-2 1v5h-4l1 4-5 8 1 1q1-2 6-1l-1-1 5-3 4 2 1-4 9-3 2 1q4-5 13-6h2q3 1 2-1l5-3q2-1 1 2h3l3-4q3 1 2-1l6-3 1 3 2-1q1-3-2-2-1-3 3-2h2q4 2 3-2l10-5-1 2q1 3-3 1v4l5 2-6 9q-3-1-2 4l-4 2 1 4-1 3-1-1q-5-1-3 3l3 1-3 8-4 2q-1 4 2 3l-1 6-2-2-3 1 4 3q1 5-3 6-1 3 2 2l-1 16-1 1 1 4 7-5 3 1 1-2q-2-2 1-3 5 2 4-2 1-3 5-3l-1-1 6-4 2-3q2 1 1-2h2v-1l4-4 1 2q-1 4 4 2l1 2-5 6q4 1 3-2l4-2q3 1 2-2l5-2q2-1 1 2h3v-2q-3 1-2-1l3-2h2q2 1 1-2l9-7q3 1 2-1l3-2 6-6 1 1 2-1-1-2 3-2h2q3 1 1-3l3-2 1-2 4-3 1-3 3-2 1-3q-2-2 1-3 4 2 3-2v-2l1-2 1 2 3-2q1-3-2-2l3-4v2q5-1 6 3l-1 2q1 2-2 1-1 4 2 6l-1 4-2 1 2 5q1 3-2 2v-2l-2 3 3 1q1 5-2 7 0 4 3 5l-2 4q-1 4 2 3l1 3-2 6 3 2q-1 2 2 1-1-4 2-5l3 1 1-3q-1-3 2-2l2-3 3-2h2q-1-5 3-6 2 1 1-2l5-2 1-3 4-2-1-2 5-4 1 4-5 3 1 3 3 1-2 4-2-3q-6-2-4 4l-4 1q-2 5 4 3-1-4 3-5l2 2-9 14-2 1h-2l1 2-7 8-4-1q1-3-2-2l3 5-2 3q1 2-2 1 1 3-3 5l-3-2q-6-1-6 3l-4-2q1-5-2-4l-1-3 1-6-3-1v-5q3 1 2-1l-2-2q-3-1-2-4l3-2q2-4-3-3v2l-1-7-6 5q-3-1-2 3l-3 3-1-1-1 3-5 2-2 4q-4 1-3-1l-2 1 1 3q-1 2-6 1l-1 4-2 1q-3-1-2 2l-4 2-2-3-3 1 2 4-2 1-2-1q-4-1-3 3l-8 4h-4l-5 4-2-1-1 2-3 1q-7-1-6 2l-3 2-2-1v2l-5 3v-3q-5 2-1 5l-2 2-3-1-2 3-5 3-3-1v-1q2 1 1-1l-3-3-2 1 1 2q-3 1-2-2v-2q1-5-2-4l1-6-2-5 1-4-1-10h2l-2-6 2-7q-1-3 2-2l-1-2 1-7 3 2-3-4q-1-4 3-5 2 1 1-3h-2l3-6-3-2 1 3-4 1h-2l-5 4-2-1-11 5h-2q-6-1-6 3-5 1-6-2l-2 3 2 1h-6q-3-1-2 2l-3 1-2 1q1-3-2-2l-2 3-9 4-1-2-2 1-2-1-2 1v-1l-1-4-3-1 1-4q4-2 1-4-3-1-2 3l-4 3 1 4-2 1q-2-2-3 1-1 2 2 1l-1 3v2l-2 1v5h-2l-1 14-3 2 1 2 6-2h1q-1 4 4 2l-3 5-2-3h-1q-4-1-2 4l-3 1 1 5q-1 2-5 1l-1 3q-1 2 2 1l-1 2-1-2-3 1 1 4-1 4-5-1q-1 3 3 2l-1 5-2 1v2l-4 5v4l-1-1-3 1 2 4-1 3q1 2-2 1l1 3-1 3-3 2 1 3-2 5q2 6-2 5l1 5-1 8-2 2q-3-1-2 3l3 2q2 5-2 4-2 5 2 4l-1 7q-1 4 2 3l-1 7q0 4 3 5 1 3-1 4-3-1-2 2l3 1 1-3 3 12-1 4v2h3l1 5-2 4 3 1q1 5-1 6-3-1-2 3l3 2q1 5-2 6l1 4q1 4-2 3l1 5 2-1q2 1 1-1l10-8 3 2 1-2-1-2h2l2-1q2 1 1-1l4-3 4 3 1-3h-3l3-2q6 2 5-2h4l-2-1q-1-3 2-2l1-4h6v2q4 1 3-2h-2q2-3 7-2l3-6-5 1q-2 2-3-1l-4 1q-7 1-9-2-3 1-2-2h-4l-3-1v-1q2 1 1-3h-3q1 3-1 2-5-2-2-3l-1-4-2 1q-3 1-2-1v-2q1-5-4-3l-4-8 1-2-1-4q-3 1-2-2v-2l-2-3q2-7-1-8v-8l1-1-1-2 1-2v2l4-1-2-2q-3-1-2-4l3-2-1-5 2-3 3 1 1-2v-2l-3 1 3-5 1 3 3-1-4-3 8-10 2 4 2-1v-3q-4 1-3-1l8-7h4l1-3 5-1 3 4 2-3-3-1 10-1-5-4q-4 1-3-2l-4 1q-5 1-6-1l-9 2v-1l-1-1h-2l-2 1 1 3-5 2-2 4q-5 1-3-3l3-2q-1-5 3-6h2v-5l3-1q3 1 2-1l5-3q2-1 1 2l3 1 1-4 3-1 3 1q2 5 5-1 3-1 4 2v1h4l1-2 3 1q3 2-1 4l2 1 1-3h3l6 4 2 4-2 3 4-3 2 1 1 3 3 1 2 4q1 2-2 1l2 3 2-3 2 4-1 4 4 3q-1 3 2 2l2 5q1 2-2 1v2q-1 2 2 1l2 1q1 5-1 6-4-1-2 3 3 1 2-1l3-2v9l2 2-1 4v3l3 4 1-5q-2-6 2-5l1-3-2-1 1-5q1-6-2-5v-4l2 1q-2 5 4 3 2 1 1 5l-3 1-1 3 1 1 3-1 1-3v9l-4 1-1 4q-5-1-3 3l3 1v-2q1-4 5-3l1-3v5q2 6-4 4 1 5-3 7-1 2 2 1l1 1q-2-5 2-4h1l-2 9-1 1q-3-1-2 7-1 2-2 0-4-1-2 3l2 1-6 9-3-2q-3-1-2 2l3 2-8 9-2-3-2 1 2 3-3 3-1-1-4 2q-1 2 2 1v1l-2-1-2 1-2 4-8 5h4q5-1 6 2 3 1 2-2l7 1 4-1 10 2 2 3 3-2 18 1 1 1 1-1h9l2 3q2 1 1-1l1-2-2 1 1-2q5-1 7 2-1 2 2 1l1-3h-3l9-1 3-2 4 1h2q2 1 1-2h7l3 1-1-1 6-1h2l2 1v-2q6-1 10 2l2-1q8-2 10 3 3 1 2-2l10 2 3 3 3-1 2 1q3-1 2 2-4 1 0 3l2-3h3l6 3 1 4 5-1 3 5 2-1 3 3h-1v2q-1 2 2 1l2 4 5-1q2 1 1 6l4 1 1 3q-1 3 3 1l2 4q-1 2-4 2l-2-4-2 1-5-2q1-4-2-3l-3-4-4 1q-3-1-1-2l-1-3-3-1v2l-4-1 3-1-2-4-2 3h-3l-6-3-2-3-3 1-10-2q-2-4-6-3v2l-9-2q-3-6-6 0-5 1-6-2-4-1-3 2-6 2-7-2-4-1-3 2l-2 1q-5 1-4-2-6-2-4 3h-6v-2q-4-2-3 2l-5 2-1-1-2-2-2 3-2 1-6-3-2 3-2 1-2-1q-3 1-2-2h-2l-2 3q-5 1-6-2l-4 2q-5-3-13-2v-1q3 1 2-1-2-4-4 1-6 2-5-2l-10 1v-2l-1 1h-12l-2-3-4 3q-6 1-7-2l-2 3h-6v-2q-4-2-3 2-1 3-5 2l-3-3-2 2 3 2-2 1q-7-2-6 2l-2 1q-5 1-5-2-3-1-2 3h2l-1 2-2-1-4 1-1 4q-5-2-4 2l-3 2q-2 2-3 0 1-3-2-2-1 4 2 3l-2 4q-3 1-2-1l-2 1 1 2-2 4-4-2q-1 3 2 2v3l-7 10v3l-3 1 1 4q1 5-2 6l1 4-2 1-2 3 3 1v6q-3-1-2 3l3 2q1 5-2 6-1 2 2 1 3 1 2 6l2-1 2 6h-2l-5-3v8l-1 1 2 5v3l-2-3-3 2 3 1 3 7-1 4 4 8q1 2-2 1v3l4 1q0 5 4 9v2q-3-1-2 2l3 1 1-3q2 1 1 6l5 3q-2 4 3 3h2q3-1 1 3h5q2 1 0 3-1 3 3 1l1-2 3 1 3 3 1-1q4 0 5 3l3-2 5 2q5 1 6-2 4-2 3 2l2-1q3 1 2-2h4l1-1 2 2-3-4q1-4-3-2v-1q-4-2-1-3v-2l-2 1-3-3q-2-2 1-3 2 1 1-2l-5 2-2-3 1-4-4-2q1-5-1-4l-3-3 2-6-3 1v-1l-1-2 1-4h-1q-3 1-2-3v-2l-2-4v-5h2l-2-4q-1-7 2-6l-1-1 1-9-3-3q-4-1-3-6l-2 1-7-8 1-4-2-2q-4-5-3-14l4-3q1-4-2-3-1-4 2-5l3 2q3-1 0-3-3 1-2-1l8-6q6 1 8-2 4-2 3 2l2-1 7 1h-2v2q-1 2 2 1l1-3 10 3 2 4 3 1q2-1 1 2l6 4q-2 4 3 3l1 3v2q1 2-2 1v2l3 1 1-4 2 4q1 2-1 1v2q-1 4 3 2l1 4-1 2q-3-1-2 3l4 3-3 7 3 2q2 5-1 4-3 1-1 3 1 4-1 6l-1-2-3 2q-1 2 2 1l-2 5-1-3-3 2q-1 2 2 1l-2 4v5l4 5-1 2q-3-1-2 2l5-2 1 3q-2 5 2 4l2 4q5-1 6 3-1 3 3 2l3 4 3-2 8 4q3-1 2 2 5-1 6 2-1 3 3 1l2-3q5-2 4 2 5 2 4-2h6v2q4 2 3-2l10-5 3 1 1-2 4-3q2 1 1-1l5-3 4-5h1v-2q3 1 2-1 2-4 4 0l2-2-3-1 6-13-2 1-4-1 1-4-2-1q-3-1-2 2l-2-1 2-1-1-2-3-3q-4 1-2-4l3-2q1-4-2-3l-1 3h-2v-7l1-2q-3 1-2-3 3-2 1-3l3-5-1-3 1-5 5 1q1-3-3-2l1-4 3-2 1-3q-1-3 2-2l4-5 4 2q2 1 1-2l-3-1 4-3q1-2 3 1 3 1 2-2l4-3 4-2 3 1 4-2q6-2 5 2 5 2 4-2h6v2l3-1 2 1 3 2q1 3 3-1l8 7-1 4 3 1v-1h1l-1 2 2 5q2 6-1 8 1 4-3 2 1 6-2 7h-2v5l-2-1-3 1q1 4-2 5-3-1-2 3-1 3-5 2 1 4-3 6l1 8-2 1q3 2 2 8-3 1-2-2-4-2-3 2l3 1 1 3-3 4 1 4-3 9-3 1q1 5-1 6-3-1-2 3v2l-1 2-1-2-3 2q-1 2 2 1l-1 4-6 7 2 2 5-3q3-1 2 2h3l1-3q6 1 9-2h6l5-3 2 1q3 1 2-1l10-6 1 2 2-1 3-4q4 1 3-1l10-8v2l2-1q2 1 1-1-2-2 1-3 6 2 4-3l3-2 4-5q3 1 2-2l4-3q-1-4 3-5 4 1 2-3l4-3 1 1-1-2 1-2q-1-3 2-2l1-3 4-3 1-3 3-2-1-3 3-4 3 1q1-4-2-3l1-2q-1-3 2-2 1 4 3 1l-1-1-2-2 5-4v-2l5-7 3-2 4-5 3 2v-1l-2-2 4-4 4 2-2-2 3-4 3 1 1-2-4-1 3-4q3-1 2 2 5 2 3-4l4-1 3 1v-2l10 1v-2q4-1 3 2l3-1q4 0 5 3h6l-2 4 3 1v-3l4 3-1 3 5 4q-1 5 3 3l1 5v1h-4v4l-4 1-1-3v-2l-4-3q-1-3 2-2l-1-2-4 2-5 6q1 2-2 1v3l-4 4v2l-4 2 1 6-2-1-2 4 2 1-2 3q1 2-2 1l1 3-1 2-3 2 1 4-1 3-4-2q-1 5 3 3l-4 10q1 2-2 1l1 5q-1 7-5 11-1 3 2 2l2 4v1l2-1 2 1 6 9-2 1 1 2 3-2q3 1 2 5l-2 1 1 2 4-1v4l3 3 4 10-1 3h2l3 6 8-6 1 3 2-1-1-2 3-4 3 1 1-2-1-2h2l2-1-1-2 1-5 3 1 2-1-3-1 4-9q-1-3 2-2l2-4-2-1 2-3v3l3-2q1-3-3-2v-4l3-2-1-3 2-4 2 1h2v-2l3-2h1q2 7-2 6l-1 4 1 1 2-1-1 2q-1 7 2 6l1-5 4-1v-2l3-4v-2l1-3 3 1q2 1 1-2l-3-1 2-5 4 2q2 1 1-2l-4-2 1-4 3-1-1-4q3-3 2-8l3-2-2-4 1-4 3 1 2-1-5-3 1-7v3l3-2q1-3-2-2-3-1-2-6l3-1q1-5-3-3v-6h2l-1-4q-3 1-2-2v-2q-1-3 2-2l-1-2-2 1-1-2q2-6-2-5l-1-3 1-2q2-6-3-4l-1-3 3-4q1-3-1-2l-2 3q-3-2-2-7l-3-6 3-1-1-1q1-5-3-3v-5q3 0 2-4l-3-1q-1-5 2-6 1-4-2-3v-6h2l-2-4 2-10 3-2q2-5-2-4l2-8 3-3q1-4-2-3-1-4 2-6l-1-4q-2-6 2-5l-1-1q-1-6 3-6 1-3-1-2l-3-3 3-4q1-4-1-3l-3-3 3-5-3-2-1-4 1-2h-2v-9h-2l-1-3 1-3q1-4-1-3l-5-7 1-3-1-2q1-3-1-2l-2-2v-2q-1-3 2-2l1-3-2-1-2 4-3-3q-1-3 3-2l-1-1 1-2v-2l-5 1-1-4q1-3 5-2 2 1 1 5l5-1 2 4 8-2h2q3 1 2-1l10-7 2 3 1-3h-2l4-3 2 1 1-2 9-7q3-1 2 2l3-1-1-4 3 1 6-4q5-2 4 2l3-1q1-3-2-2v-1l3 1 8-5q2-1 1 2 5 2 4-2l2-2 8-1h5l4 3q1-3-1-2-3-1 0-3l7 1 4 3 1-2-1-1q-2 2-3 0l4-1h2l3 1q2-1 1 2h3l2-3q5-2 4 2 5 2 4-2 4-1 7 2l4-1 4 1h2l2 1q3-1 2 2l4-1 6 1h2l3 1 1 3q4 1 3-2l9 2 3 3q-1 3 3 1l1-2 4 1q1 3-2 2l2 4 3-5 3 1 1 3 4-1 3 2h-2q1 5-2 6-4 0-5-2 1-3-3-2l-1 4h-4q-2-3-5-2l-1 3-3-1q-3 1-2-2-5-2-4 2l-6-1-4 1-9-1-3-3-2 3 3 1h-7l-4-3-2 3-1 1h-10l-2 3 3-1 4 1v1q-3-1-2 2 4 1 3-2l10 4q2-1 1 3l5 1v-2l3 2-3 1 1 2-1 3-3 1h-6l3-2-1-1q1-3-1-2h-2l1 2-1 2q-1 2-4 1l-2-3q-4-2-3 3-1 2-4 1l-2-3q-4-2-3 2l-3 2-4-3h-3l-1 4q-4 1-5-1 1-3-2-2l-2 3 2-1v2l-2-1-10 3 21 10 1 4 3-1 4 5 3-1-1 2 2 3q-1 2 3 1l1-3 2 4-1-1-2 1 1 4q-5 1-6-2l-4 2-5-1v-2l-5 2h-4l3-1-1-1q1-3-3-2l-1 3q-6 2-5-2-5-2-4 2l-15-1-3-1-5 2 6 3 2 4 2-1 4 4-2 3q-1 4 2 3-1-4 2-5l6 4 3 4-2 2-4-2v-2h-4v4l-10-4-1 2q-3 1-2-2h2l-2-2-2 3-3-1-3-3-1 1-3-1-2 1 5 3q6 3 1 6-3-1-2 3l-9-4q-4 1-3-2l-5-1-1-4q-3-1-4 2l-2-2q2-2 0-3l-2 1-3-1h-2l1 2-1 2 2 5-1 4 2 6q1 3-1 2l1 3-1 1 6 2 2 3 3-1-1 2 1 2q4 1 3-2l4 1h2q-1 3 2 2h2q3-1 2 2l4 1 1-2 9 3q3-1 1 3 5 2 3-3l7 2 9-1-3 4 2 1v-1l3-3 4-1 4 1q4-3 13-2l3-2h7l4-2q1-3 3 1 3 1 2-1l9-6q3-1 2 2l2-1q2 1 1-1 1-4 6-3l-1-1 4-3 4 2q2 1 1-2l-3-1 4-3 3 1 1-4 3-1q2 1 1-2l4-2h2q-2-4 2-3l7-7 2 2q2 1 1-1l-2-2 4-4 3 2v-2q-3 1-2-1 2-5 4-2l2-1-2-1 2-5 4 1 1-2h-2l1-4 4 2-1-3 2-4 3 1q3 1 1-3h-2l3-4 3 2q1-4-1-3l3-4 3 1 1-2-2-1 2-3 2 1q2 1 1-1l-2-2 4-4 3 2q1-3-2-2l2-4 2-1q-1 2 3 1 1-3-2-2l2-4h1q-1 3 2 2 3-2-1-3 2-8 7-12v-3l3-2-1-4 1-2-1-6-3 1-3-1h-2l-3-1q-3 1-2-2-5-2-4 2l-9-2-3-3q-4-1-3 2h-6v-2h-8l2-1-1-3-3 2-8-2-3-2q1-4-3-2v2l-5-3h-4l-2-3h-8l2-1-1-1q1-3-3-2v3l-5-3h-4l-3-4q-3-1-2 2l-5-1 1-2q1-3-2-2l-1 3q-5 1-5-2l-4 1q-3-3-9-2l-2-3q-5-2-4 2h-5v-2l-5 1-8-1-2-3q-6-2-4 3h-4l-2-2h-1q-4-1-3 2-5 1-6-2l-4 2-5-1q-5-1-5 2l-5-1-8 3q-2-4-3-1-4-1-3 2l-2 1-2-1q-3-1-2 2h-7l-5 3-4-1-2 3-9 3v-2l-7 5-7-2-2 4q-5 1-5-3-4-1-3 2l3 1h-4l-7-2h-2l-9-3q-4-2 1-4l-1-2-3 4-3-1q-5-2-2-3l-2-1q-4 0-3-4 1-3 5-2 4 2 1 4h2v-2l-8-10 1-4-4 1 1-2-1-4-2-1h-2v-5h-4l-4-7v-2q1-4-1-3h-2l-1-5-5-1-1-2q1-3-2-2l-3-4-4-1-1-3h-1l-5-3q1-3-2-2l-3-5-2 4-2 1-3 4 6 4q-1 3-4 2l-2-5-4 1 1 4 2-1 1 3-10-3 2-4h1v-4q-4-2-3 4l-5 2 1 3h-6v-2l5-2-1-3 4-2h2q2-4 8-3l-1-2h2q-1-4 3-2v-2l7-5q2 1 1-2l-2 1q-5-2-4 2l-3 2q-4 1-3-2l-2-1-2 3h3q3 2 0 3-5 1-4-1h-1q-4-1-3 2l-3 2-3-3 4-3 1 1-1-3 4-3 4-6-1-2 1-5 3 1 2-1-3-1 1-3v-3h2v-5l3-1-1-4-5 6-4-2q-1 3 2 2l-2 5-2-2-2 1q-1 2 2 1l-7 10q-2-3-6-2-2 5 4 3l-1 4-2 1-2-4-4-1q-1-5 2-5l-1-4v-9l1-1-1-4v-2l1-3q-1-3 2-2 1-4-1-3l-2-2v-2l-2-9-4 13q-4 1-1 3l-1 2q-5 2-1 5l-1 5-2 1 1 5-5 3v1h4q1 5-1 6h-3q1 3-1 2l-2-2h3l-1-5-2 1-3-1-4-7 1-6-3 1q-3-1-1-2 2-6-3-4l-3-3q1-3-2-2l-2-3 2-3q1-3-2-2l-1 3-1-1-2-4q2 1 1-2l-2 1-4-2 1-2q1-4-2-3v3l-4-3 1-1-1-3-2 1-3-1 1-4-4 1-2-2q2-2 0-3l-2 1h-2l-12-8-2-3q-5 1-6-2 1-3-3-2l-2-2q-1-3-2-1l-2-1Zm11 0q-1 3 2 2 1-3-2-2Zm16 1 2 2q1-3-2-2Zm209 7q-1 3 2 2 1-3-2-2Zm-197 2-2 2h2v-2Zm50 2q-1 3 2 2 1-3-2-2Zm-63 1v3l2-1q1-3-2-2Zm-27 1v2l3 1-1-1q1-3-2-2Zm262 1-3 1q-1 3 3 2v-3Zm-454 2q-1 3 2 2 1-3-2-2Zm421 1 1 3q2 1 1-2l-2-1Zm10 1v3l-4 2q1 4-2 5-5-1-3 4l-4 2q1 4-2 5-5-1-3 4l-2 1-3 5q-6-2-4 4l-5 1q1 4-2 5l-3 2q-3 6-5 1l-3 2h2l-2 4q-3 1-2-1h-1q-3-1-2 3l-4 2-2 4q-4-1-3 2l-4 3-1 2q2-1 1 2h3v2l-3 1-2-1-8 3-4-1-2 4q-4-1-3 2l-4 3v2h5l1 3q-1 3 3 2 3 1 2 5 4-1 5 3-1 2 3 1l6 9v2q-4 1 0 3 2 1 1-1l2 1-2 1 2 3 5 3q-1 5 3 3l6 9-3 2q2 3 4-1l2 1 2-1 3 1 1-2-2-1 2-3v2l4-1-4-2v-6h5l-1-1q1-5-4-3-1-5 2-6l3 3-1 2h3l1 4-3 2 1 2 3 1 6-8 3-2-1-1q-1-8 2-7l1 2 1-3-3-1q-1-5 2-6l3 1-1-1 3-4 1 6-1-1q-3-1-2 3l5 2 2 2-1-4 4-3-1-1 7-11 2 1-1-1v-3q4-1 3-5v-2l-1-17-2-5v-2q4-1 4 3-1 2 4 1l-1-1q1-3-2-2-3-1-2-5l4 3q-1 3 2 2l2-2 1-4-2-1 2-3v3l2-1-3-4q-1-5 2-5 1-5-2-4l1-5q1-6-3-6l1-3-2-4h2l-6-11-3-2-2 1-4-1Zm9 0q-1 3 2 2 1-3-2-2Zm-433 1-2 2h2l1 1q1-4-1-3Zm290 0-2 2h2v-2Zm-302 3v2l-5 2-1 4v1l-2 1v7l-2-1q-3-1-2 2l3 2q1 5-3 6l1 7-2-1q1-3-2-2l3 5v6l-1-1h-1q-1 4 2 3l1 5 4-2q-2-2 2-4l3 2-1 3q1 3-3 1 1 5-3 7l2 4-2 4q-1 5 1 7 1 2-2 1v-3l-2 3 3 1 3 10-1 3 3 1 2 8 2-1q-1-3 2-2l-1-1 2-3q-1-3 2-2-1-4 3-5l3 2q1 3-1 4-5-1-3 4l-5 2 2 3 3-1-1-1 4-3-3 10q1 2-2 1-2 4 2 3l2 5-2 3 3-2 2 4-1 2q-1 3 2 2l1-3 2 4q-1 3 2 2l1-2h-2l1-9 5-2-1-2 4-2-3 10q-6-2-4 4l3-1 2 1-1-1 2-3v6l-1 4h2l1 6q1 2 5 1l1 4v-1l1-3q-1-3 2-2l1 2 1-4h-2l1-3 3 1q2 1 1-1 2-2-1-3l3-4 3 2q1-3-2-2l1-3q2-4 4 0l1-1-1-2 3-5 3 2v-2q-3 1-2-1l4-3 1 2 2-1-2-2 3-4 3 1 1-2 3-2 4-6q3 1 2-1l6-4-7-5q1-4-3-2l-2-3q-4-1-3 2l-6-1q-1-3 2-4l-1-3q-3-1-2 2 2 1 0 2h-2v-4h2l-1-2q-1-3-5-2l-1-2q1-3-2-2l-3-4-4-1-1-4q-5 1-6-2 1-3-1-2-4-1-3-6-4 1-5-2 1-4-1-3l-2-2q-4-2 0-4 1-3-1-2l-4-5-4-2 1-4-2 1-4-4 4-3-3-2-1 3q-3-2-2-7l-2-1q-3 1-2-1l-3-2Zm424 1-2 2q-1 2 2 1v-3Zm-408 1 2 2q1-3-2-2Zm-29 4-1 2 2-1-1-1Zm270 0q-1 3 2 2 1-3-2-2Zm160 0v3l2-1q1-3-2-2Zm-252 2-2 2h2v-2Zm286 1v3l2-1q1-3-2-2Zm-470 1v2l3-1-3-1Zm281 0q-1 3 2 2 1-3-2-2Zm-81 1-2 4 2-1v-3Zm234 1-2 2 2 1v-3Zm-400 1q-1 3 3 2 1-3-3-2Zm281 0-2 3 2-1v-2Zm-29 1q-1 4 2 3 1-4-2-3Zm19 0v2h3l-3-2Zm-136 2-2 2q-1 3 3 1l-1-3Zm-11 1v2l3 1v-1l-3-2Zm271 0-2 2 2 1v-3Zm55 0-2 2h2v-2Zm-366 2q-1 3 2 2 1-3-2-2Zm-70 1-2 2h3q1-3-1-2Zm234 1-1 2 2-1-1-1Zm142 1q-1 3 2 2 1-3-2-2Zm-297 2-1 3h2l-1-3Zm-131 1q0 4 2 1l-2-1Zm487 2q-1 3 2 2 1-3-2-2Zm-75 1v3l2-1q1-3-2-2Zm12 1 1 2h1l-2-2Zm-193 2v2h3l-3-2Zm-181 1q-1 3 2 2 1-3-2-2Zm269 0q-1 3 2 2 1-3-2-2Zm-190 1q-1 3 3 2 1-3-3-2Zm111 0-4 1q-2 5 4 3v-4Zm169 0 1 2q1-3-1-2Zm81 3-2 2q-1 4 3 2v-4h-1Zm-435 1v2l2-1-2-1Zm54 0v2h3l-3-2Zm27 1 1 2q1-3-1-2Zm217 1-3 2h3v-2Zm-357 1 1 4 2-1q2-4-3-3Zm65 0q-1 3 2 2 1-3-2-2Zm236 0v1h2l-2-1Zm23 2v2l2-1-2-1Zm-253 3 1 2q1-3-1-2Zm323 0 1 2q1-3-1-2Zm9 0q-1 3 2 2 1-3-2-2Zm-325 3-2 2h2v-2Zm253 0v1h3l-3-1Zm-331 2v4l2-1q2 1 1-1l-3-2Zm401 0q-2 3 1 2l-1-2Zm89 2-2 2h2v-2Zm-129 1 1 2q1-3-1-2Zm-279 1 1 2q1-3-1-2Zm392 4-2 2q-1 2 2 1t0-3Zm-460 2q-1 3 2 2 1-3-2-2Zm333 0q-1 3 2 2 1-3-2-2Zm46 1-2 2h2v-2Zm-37 6-1 2 2 1-1-3Zm-340 11q-1 3 2 2 1-3-2-2Zm357 4q-1 3 2 2 1-3-2-2Zm-243 3q-2 3 1 2l-1-2Zm248 1 2 2q1-3-2-2Zm88 2q-1 3 2 2 1-3-2-2Zm-342 2q-1 3 2 2 1-3-2-2Zm259 1v2l2-1-2-1Zm-362 1q-1 3 2 2 1-3-2-2Zm440 1q-1 3 2 2 1-3-2-2Zm13 1 1 2q1-3-1-2Zm-458 5v2l2-1-2-1Zm448 5q-1 3 2 2 1-3-2-2Zm-74 1q-2 3 1 2l-1-2Zm-218 3-3 1q-1 5 3 3v-4Zm275 1q-1 3 2 2 1-3-2-2Zm-53 1v2l2-1-2-1Zm-373 3q-1 3 2 2 1-3-2-2Zm424 1-2 2h2v-2Zm10 1q-1 3 2 2 1-3-2-2Zm-191 2v1h2l-2-1Zm-236 1-2 2h2v-2Zm378 0v1h2l-2-1Zm44 2q-1 3 2 2 1-3-2-2Zm-320 2q-1 3 3 2 1-3-3-2Zm283 0-2 2h2v-2Zm150 1q-1 3 2 2 1-3-2-2Zm-579 1v3q4 2 3-2h-1l-2-1Zm65 0v3l2-1q1-3-2-2Zm-50 3 2 3 1-1q1-3-3-2Zm140 0-1 3h1v-3Zm266 2v2l2-1-2-1Zm-255 2v2l2-1-2-1Zm292 0 1 2q1-3-1-2Zm106 0v2h3l-3-2Zm-424 2-1 3h1v-3Zm-22 1q-1 3 2 2 1-3-2-2Zm58 1-2 2h2v-2Zm279 0-2 2h2v-2Zm-527 1 1 2q1-3-1-2Zm54 1-2 2-5-1q-5-1-4 2l-6-1q-5-1-4 2h-3q-2 3-3-1l-7 4q-3-5-5-1-1 2 2 1v1l-2-1-9 5q-3 1-2-2h-3l1 4-3 1q-5-1-4 2l-2 1q-5-1-4 2l-7 1-2 4q-5 1-4-2l-3 2 3 2-3 2-5-1-1 4-6 3q-2 3-3 1l-1 2-8 1-2 4q-5 1-6-2l2 4-3 1q-2 2-3-1l-2 3-9 3h-2q-6-1-4 3l-4 1-2-3q-4-1-3 3l2 1-3 1q-6-2-5 2l-3 1-3-1-2 3-4 1-1 4 2 3v5h3l1 4q5-1 6 3-1 3 2 2l2 4 1 1-2 3 3-2 3 3q1 3-2 2-1 3 3 2l1-2 1 4v3h4l1 3q-1 3 3 2 3 1 2 5 4-1 5 3-1 3 3 2l7 8q-5 2-1 4l2-3 7 4q2 1 2 5l2-1 3 1 1 3 4 1q2-1 1 2l7 4 1 1h5l-1 4q4 1 3-2l11 4 1 3 2-1h2q3-1 2 2-2 1 1 2 2 1 1-1 1-3 3-1 4-1 3 2l14 1 2 2 4-2 5 1 5-1 5 1 8-2 2 1q4 1 5-2l5 1q3 1 2-2l3-1q4-1 5 2 3 1 2-2l8-4h5l6-4 1 3q4 1 3-2l-3-1 4-2q5 2 4-1l3-2q3-2 1-8h1q-1 2 2 1 3-2-2-4-1-5 2-6l-1-6-2 1-3-1-3 5q-4-1-3 2l-4 2h-2v-4q-6-2-4 5-1 2-4 1v2l-3 1-2-2 3-2q-1-5 4-6l2 1-1-1 3-7q-4-1-3 2l-3 1h-2l-1 2-2 1h-2l4-3q1-3-3-2l-2 4h-2v5l-3 1q-3-1-2 2l-9 5-1-1q1-3 5-2l-2-2v-3q-3 1-2-1l3-2 1 2 3-1q-1-4 2-5 2 1 1-5l3-2 1 1-1-3q-3 1-2-2-4-1-3 2l2 1-4 1q-5 1-5-3-3-1-2 2l3 2-2 1-7-1-1 3-9-1-1 3q-7 2-5-3h-1l-3-1q1 4-1 5-4 1-5-2l1-2v-2h4v-2l8-7q3-1 2 2l3-2-2-1 2-3 2 1 2-1q2 1 1-2l4-3 3-4q2 1 1-2l-2 1q-5 1-6-1l-9 1v-2l-1 2-5 1-4-1-2 1-6-3q-1 3 2 2 1 3-3 2h-2l-3-1v2h-9l-4 2q-4 1-3-1h-1l-3-1-1 3q-6 2-5-1l5-3-1-4h-2q1-3 5-2l6-5 2 2q-1 2 2 1l-2-5 5-2v2q5 2 3-4l7-3 1-2-3 1q-5 1-5-2-5-1-4 2l-6-1q-5-1-4 2l-6-1-4 2-9-1-1 3q-6 1-6-3l-3 2q-1 2 3 1v1l-3-1-4 1-3-4q-3-1-2 3l3 2h-4l-2 1-2-1-2 2q-8-1-13 1l2-3h1v-4q-4-2-3 4-1 2-4 1l-3-3 12-6v2q5 2 3-4l8-3h5l1-3 4-1 5 2-1-4 3 1 8-5q2-1 1 2h3l10-7q2-1 1 2l3-1q3 1 1-3l5-1 1 4 2-1q2 1 1-2h-2l3-2h2l4 1-1-1 5-2 2 1q4 1 3-2l7 1q3 1 2-2l6-1v2q4 1 3-2l7 1 8-1q1 3 3 1 5-2 4 3l3 1 2-3 8 2 3 3 3-1 5 1-2 4q-1 2 2 1l2-3 3 1q2-1 1 2l5 1 1 3q-1 2 3 1l4 4 2-2 3 3-1 3q3 1 2-2h3l6 5 5-8v-3l3-2 1-4h-2l2-8 4-3-1-1 1-2-1-4h1q-1 2 2 1l1-3-3-1 2-5q1-3-1-2h-5l3-1-2-3q-3-1-2 2l-4-1q-3 1-2-2l-4-1q-3 1-2-1-2-3-7-2l2-1-1-2-3 2-3-2q-3 1-2-1h-1l-5-3h-6l-1-2q2 1 1-2l-2-1-1 3-9-2-3-3-4 3q-5 1-5-3l-4 2q-6 1-8-2Zm280 0 1 2q1-3-1-2Zm227 0-1 3h1v-3Zm7 0q-1 3 3 2 1-3-3-2Zm-38 2 1 2q1-3-1-2Zm-397 1 1 2q1-3-1-2Zm-3 1 2 3 1-1-3-2Zm36 0q-1 3 2 2 1-3-2-2Zm21 0v2l3 1-1-1q1-3-2-2Zm531 0-2 2h3q1-3-1-2Zm-398 1-2 2h2v-2Zm371 0v2l2-1-2-1Zm16 1-1 3h1v-3Zm-604 1v2l2-1-2-1Zm443 0-2 3h4l-2-3Zm-168 2v3q-1 2 2 1l1-3h-1l-2-1Zm-259 1q-2 3 1 2l-1-2Zm55 0-2 2 1 1 2-1-1-2Zm140 0 1 2q1-3-1-2Zm191 0v3q4 1 3-1l-3-2Zm-534 1v2h3l-3-2Zm22 0q-2 3 1 2l-1-2Zm332 0q-1 3 2 2 1-3-2-2Zm386 2v2l2-1-2-1Zm27 0-1 3h2l-1-3Zm-11 1-1 2 2 1-1-3Zm-761 2q-1 3 2 2 1-3-2-2Zm22 0-2 3 3-1q1-3-1-2Zm386 0v2l3 1v-1l-3-2Zm378 0v3h1q1-4-1-3Zm-602 1q-1 3 2 2 1-3-2-2Zm170 0v2h3l-3-2Zm422 1-1 3h1v-3Zm-373 3q-1 4 2 3 1-4-2-3Zm-63 1q-1 3 2 2 1-3-2-2Zm-75 1v3l2-1q1-3-2-2Zm45 0v4q5 2 3-3l-3-1Zm482 0q-2 3 1 2l-1-2Zm25 2q-2 3 1 2l-1-2Zm-12 1v3l2-1q1-3-2-2Zm-480 1v3h1q1-4-1-3Zm12 0-1 3h1v-3Zm-354 1-1 3h1v-3Zm11 0-1 3h1v-3Zm829 0-3 2h3v-2Zm-518 1v2l3-1-3-1Zm-125 2q-1 4 2 3 1-4-2-3Zm473 1v2l3 1 1-2-4-1Zm57 0q-3 2 0 3l1-2-1-1Zm-719 1-3 2 3 1v-3Zm405 0 1 2q1-3-1-2Zm-428 1v2l2-1-2-1Zm334 0 1 2q1-3-1-2Zm83 0-1 2 2-1-1-1Zm341 2-2 2 2 1v-3Zm-408 3q-3 4 1 3l-1-3Zm506 0-2 2h2v-2Zm-542 6q-1 3 2 2 1-3-2-2Zm23 0q-3 2 0 3h1l-1-3Zm-343 1-1 3h2l-1-3Zm85 0q-1 3 2 2 1-3-2-2Zm117 0 1 3q2 1 1-2l-2-1Zm-234 1v2l3-1-3-1Zm794 2q-1 3 2 2 1-3-2-2Zm88 0q0 4 2 1l-2-1Zm-117 1v2h3l-3-2Zm-758 2-1 3h2l-1-3Zm353 0q-2 3 1 2l-1-2Zm-364 1 1 2q1-3-1-2Zm881 0 2 2q1-3-2-2Zm-885 5q-1 3 2 2 1-3-2-2Zm781 5-1 3 2 1-1-4Zm-787 1q-1 3 3 2 1-3-3-2Zm72 2-2 1v2q-1 2 2 1v-4Zm168 0q-1 3 2 2 1-3-2-2Zm-8 1q-1 3 2 2 1-3-2-2Zm-226 1q-1 3 3 2 1-3-3-2Zm59 4v2q-1 3 3 2l-1-1q1-4-2-3Zm185 0-2 2h2v-2Zm21 2q-2 5 3 4l-1-1q1-4-2-3Zm11 0-1 3h2l-1-3Zm603 2v2l2-1-2-1Zm-879 2 1 3 2-1q1-3-3-2Zm740 3-2 2q-1 2 2 1v-3Zm-733 2 2 2q1-3-2-2Zm305 2 1 2q1-3-1-2Zm340 0-1 4 3-2q1-3-2-2Zm-641 1v2l3-1-3-1Zm137 0q-1 3 2 2 1-3-2-2Zm595 0v1h2l-2-1Zm128 0q-2 3 1 2l-1-2Zm-732 1q-1 3 2 2 1-3-2-2Zm-28 1q-2 3 1 4h1l-2-4Zm10 1 1 2h1l-2-2Zm745 2q-1 3 2 2 1-3-2-2Zm-579 1v5l-1-1-4 1-3-4-2 3h2l1 3-4 2-1-3-3 1-1 4q1 3-3 1v3l-4 2-1 4-3 1 1 4-1 3-2-1q-4-1-3 2l4 3-3 5 1 4-1 5q-1 5 2 7l-1 2 1 2-1 2h2l1 3q1 4-1 3v2q-1 2 3 1l5 8v2l-3 2 3 1 2-3 9 7 1 1h5v2l10-1 1 2 3-2 5 1 2-1q2 1 1-1l5-3 4-5q1-3-1-2l-5 3-3-2q-4-1-3 2-6 2-7-2l-5 1h-3q-1-3 2-2v-3q-4-1-3 3l-3-1q-3 1-2-2h-1l-5-3 2-3q2 1 1-2l-2-1-2 3q-4-1-3-5h2l-1-3-4-2q1-4-2-3v-3q-3-2 1-3l-2-4 1-8 4-4-2-3 3-4 3 1 1-3h-3l4-3-1 2 1 1 2-1 1-4h-2q3-3 8-2l2-3 5 1 4-1 4 3-3 2 1 2 2-1q-1-3 3-2l2 4-3 2 4 2 1 3v2h2l-1 4-1-2-4 2 4 2q1 4-2 4-3-1-2 2l-3 2 1 1h7l2 3 1-3h-2l5-8q2-4 4 0 2 1 1-2l-4-2 3-6-3-2-1-3 1-2h-1l-3-4 2-1-1-1v-2h-4l-1-5q-4 1-5-3l-2 1-5-2h-4l-3-2q1-3-2-2Zm11 0-2 3 2-1v-2Zm-65 1v2h3l-3-2Zm33 0q-1 5 3 3 2-4-3-3Zm595 4v2h3l-3-2Zm-102 3-1 3h1v-3Zm100 1-2 2 2 1v-3Zm-534 2-2 2h2v-2Zm-67 1v2l3-1-3-1Zm-233 1-2 2h2v-2Zm207 2-2 2 3 1q1-4-1-3Zm485 1-2 2h3q1-3-1-2Zm135 0q-1 3 2 2 1-3-2-2Zm-706 1v2l-1 2h3l-1-1q1-4-1-3Zm514 0q-1 3 2 2 1-3-2-2Zm-632 1v2l2-1-2-1Zm288 0q-1 3 2 2 1-3-2-2Zm-27 1-1 4h1v-4Zm431 1q-1 3 2 2 1-3-2-2Zm130 0-2 2 2 1v-3Zm-563 4-3 1 2 4-2 3-4-1-1 3 3 1-1 3q-4 1-1 3 1 4-3 5l2 2q2-1 1 3v2q-1 2 2 1l1 5v2q-1 2 3 1l1 4 4-1 3 1-1 2 2 3h1v-4l7 2q3 1 2-2l5-1q2-1 1 2 4 2 3-2h-2q1-3 3-1l3-2 4-5v-5l-3 2-1-2q-4-2-3 3h2q-1 2-2 0l-5 3-13-1 1-3-3-2-2-4q-4 1-5-2l1-5 3-1-1-3q0-4 7-2l2-5q1-3-1-2l-3-4q-4-1-3 2l-6 1v-4Zm-247 2q0 4 2 1l-2-1Zm633 0q-2 3 1 2l-1-2Zm-471 2-2 2q-1 3 4 1l-1-1q1-3-1-2Zm494 1q-1 3 2 2 3 1 2 6l2-1q4 1 2-4h-3l-5-3Zm133 2 1 2q1-3-1-2Zm-580 2 1 2 2-1-3-1Zm82 2q-2 3 1 2l-1-2Zm342 0q-2 4 3 3l-1-1q1-3-2-2Zm-398 1q-1 3 3 2 1-3-3-2Zm561 0q-2 3 1 2l-1-2Zm-796 1q-2 3 1 2l-1-2Zm260 1-1 3 1 1 3-1-1-1q1-3-2-2Zm15 3-1 3h1v-3Zm-254 2q-1 3 2 2 1-3-2-2Zm190 0 1 2 2-1-3-1Zm44 0q-1 3 3 2 1-3-3-2Zm381 1-2 2q-1 2 2 1v-3Zm-625 2q-2 3 1 2l-1-2Zm252 1-2 2q-1 2 2 1v-3Zm-57 1q-1 3 3 2 1-3-3-2Zm9 3-4 2 4 1 1-2-1-1Zm15 0 1 2 2-1-3-1Zm35 0q-2 5 2 4 2-5-2-4Zm496 1q-2 3 1 2l-1-2Zm-522 2-1 2 2-1-1-1Zm-219 1q-1 3 2 2 1-3-2-2Zm188 3-2 3 4-1q1-3-2-2Zm-156 3 1 2q1-3-1-2Zm99 0-3 2 3 1v-3Zm62 1v1h3l-3-1Zm432 3 1 2q1-3-1-2Zm-9 1 1 2q1-3-1-2Zm67 0 2 3 1-2-3-1Zm20 0 1 2q1-3-1-2Zm-642 1v3l3-1q1-4-3-2Zm632 0v2l2-1-2-1Zm-667 1q-1 3 2 2 1-3-2-2Zm69 2q-1 3 2 2 1-3-2-2Zm64 0 1 2q1-3-1-2Zm63 0q-2 5 4 3l-1-1q1-4-3-2Zm497 1 1 2h1l-2-2Zm-481 1v3h1q1-4-1-3Zm-44 1v1h2l-2-1Zm80 2q-2 3 1 2l-1-2Zm-228 1q-1 3 2 2 1-3-2-2Zm154 0-2 2h3q1-3-1-2Zm459 1q-1 3 2 2 1-3-2-2Zm-59 3q-1 3 2 2 1-3-2-2Zm-388 4-2 2q-1 2 2 1v-3Zm52 2q-1 3 2 2 1-3-2-2Zm-46 1-3 1 2 3 1-2v-2Zm-47 1q-1 3 2 2 1-3-2-2Zm50 6-1 3h2l-1-3Zm375 0 2 3 1-1-3-2Zm-428 10-2 2h2v-2Zm200 5v2l3 1q2-4-3-3Zm-126 2q-1 3 2 2 1-3-2-2Zm97 0v3l2-1-2-2Zm20 0q-1 3 2 2 1-3-2-2Zm-30 1 2 3q1-4-2-3Zm55 1 1 2q1-3-1-2Zm-117 1 1 2q1-3-1-2Zm33 1v2q-1 2 2 1l1-2-3-1Zm-38 5-1 3h1v-3Zm-9 1-1 2v1h2l-1-3Zm126 0q-1 3 2 2 1-3-2-2Zm27 1-1 3h1v-3Zm-119 1q-2 3 1 2l-1-2Zm106 0v4l2-1q1-4-2-3Zm16 3q-1 4 2 3 1-4-2-3Zm-233 2 1 2h1l-2-2Zm12 2q-2 5 2 4 2-5-2-4Zm0 4-3 1v2q-1 3 3 2l-1-1 1-2v-2Zm25 23-2 2 2 1v-3Zm-44 1-2 2 4 1-2-3Zm31 0v2l3 1q2-4-3-3Zm334 0v2q2 3 3 0t-3-2Zm-10 1v2q2 3 3 0t-3-2Zm84 0-2 2 1 1 2-1-1-2Zm-218 2-2 2h2v-2Zm14 4q-1 3 2 2 1-3-2-2Zm218 1-3 2 3 1v-3Zm-469 7v1h2l-2-1Zm388 2q-1 3 2 2 1-3-2-2Zm18 1-4 1v3h4v-4Zm-348 2q-5 3-4 10l-3 2q-1 2 3 1l2 4 5 4h2l-1-3 1-3 3 1q3 1 1-3h-2l2-3-1-3q2 1 1-2l-3-1-1 2q-3-1-1-2l-1-2-3-2Zm-50 1 1 2h1l-2-2Zm32 1q-1 3 2 2 1-3-2-2Zm152 0v3q3-1 0-3Zm65 0v2q-1 2 2 1 2-4-2-3Zm128 0 1 2q1-3-1-2Zm-148 3q-1 3 2 2 1-3-2-2Zm7 0-5 2-1 3h-6v3l-4 3q-1 2 2 1l3 9 3-1 2 1 2-1-1-3q1-3 3-1l3-1-3-2 2-6 4 3q1-3-1-2-4-2-3-8Zm-36 3-1 3q1 2-3 1-1 3 3 2l3 10v5l3 5q1 2-2 1-1 4 2 6 2 5-2 4l1 6q1 3-2 2l1-2-1-1-2 4 3 2-1 3-3 1q1 5-3 7l1 3-2 3-4-1-1 3 3 1-2 3-2-2-2 1 2 3-3 3-1-1-4 2q-1 2 2 1l-1 2-1-2-2 1-4 5q-6-1-4 3l-4 2-2-4-2 4h2q1 2-1 1l-3 1q-4-1-3 2l-3 1q-4 1-3-2l-2 1q-3-1-2 2l-4 1-2-3h-1q-5-1-3 3h-4l-2-3-7 2q-4-2 0-3l-1-3-2 4q-6 2-5-1l-1-2h-7q-1-3 2-2l-2-3-2 1 1 2-3-1q-3 1-2-1l3-2-1-3-3 4-3-1-2-4h-3l-8-6 2-4q2 1 1-2-4-2-3 2l-1 1-4-3 2-3q2 1 1-2-4-1-3 2-3 1-2-1v-2l-1-4-3-1v-4q-3 1-2-4v-2q1-5-2-4l1-6-1-2v-2q-1-8 1-11l3-1-2-3 3-8v-3q4 1 3-2l-2 1-1-2q-3-1-2 2l-3 2q1-3-2-2l1 3-1 4-3-2-3 1q-1 4 4 2l-4 10-3 1q-1 4 2 3l-1 6-3-3-3 2 5 3v3l-3 4 3 1 1 3-1 2q1 2-2 1-2 4 2 3l4 7-1 4 1 2 3 1 1 3-1 2 1 1 2-1 2 5q1 2-2 1v2q-1 2 3 1l-1-1 2-1q2 1 0 3l1 3q4-1 5 3-1 4 4 2l1 3 5 3q-1 3 3 2l2 4 4-1 4 1-2 4q4 1 3-2l4 1q3-1 2 2l2-1 5 4q3 1 2-2h4l1 3 8-2v1q-3-1-2 2l3 1 2-3 8 2 2-3q3-1 4 2-1 2 3 1l1-2-2-1 2-1h2l4 1v-2q2-2 8-1l3-3 6 1 3-4q2 1 1-2l4-2h2q-1-3 2-2l8-8 2 2-1-2 3-4 3 1q1-3-2-2l2-5 5 1q1-3-3-2l3-5v-3l4-6-1-2 2-1q1 2 2 0 1-3-1-2-3-1-1-2-1-5 2-4l-1-8 3 1q2 1 1-1l-3-2-1-2 1-2-1-4 3 1q2 1 1-2l-2-1q-3 1-2-1v-2l-2-3 1-3-4-7-1-1 3-3-1-2q-3-1-2 2l-3-2 1-3-2-2v2q-5-2-2-3 1-3-2-2Zm131 0-1 2 2 1-1-3Zm-270 1v2l2-1-2-1Zm12 0 1 2q1-3-1-2Zm-86 1 1 3 2-1-3-2Zm340 4q0 4 2 1l-2-1Zm-289 3 1 2 2-1-3-1Zm6 3-1 3v1l2-1q2 1 1-2l-2-1Zm153 1q-1 3 2 2 1-3-2-2Zm-135 2-3 2 3 1v-3Zm113 0q-1 4 2 3 1-4-2-3Zm-126 1 2 2q1-3-2-2Zm171 0q-1 3 3 2 1-3-3-2Zm9 2-3 3q-1 2 2 1l1-2v-2Zm136 1q-2 3 1 2l-1-2Zm-150 3v2l3-1-3-1Zm-166 4v3h1q1-4-1-3Zm25 3v2l2-1-2-1Zm265 6q-2 4 3 3l-1-1q1-3-2-2Zm107 0q-1 5 3 3 2-4-3-3Zm-447 1q-2 3 1 2l-1-2Zm50 0 1 2 2-1-3-1Zm309 3-2 2h2v-2Zm-21 1-2 2q-1 3 3 2l1 4 3-1q1-5-3-3l-1-2q1-3-1-2Zm7 0q-1 3 2 2 1-3-2-2Zm-38 2q-2 3 1 2l-1-2Zm27 3-2 2q-1 2 2 1l1-2-1-1Zm-32 3 1 2q1-3-1-2Zm-224 1-2 2 1 1 3-1q1-3-2-2Zm259 1v2h3l-3-2Zm-254 3v1h2l-2-1Zm106 0v3l2-1q1-3-2-2Zm109 0q0 4 2 1l-2-1Zm19 0q-1 3 2 2 1-3-2-2Zm-8 1 1 3-1 3-5-1 1 4-1 2-1-2-3 1 1 5-2 1-2-1-2 3-4 2-1 4q-1 2-4 1v2l-3 4q-1 3 2 2l2 4q4 1 3-2l4 3-3 1 1 3q4 1 3-1-2-2 1-3l3 2-2 5 4 1 1-3 3 2q1 3-3 2-2 4 3 3 2-4 4 1l-1 4q4-1 5 3-1 3 3 2l2 4-1 2h3l1 5-2-1-2 1 1 4 3-1 2 1 3 7v3l-3-2q1-3-3-2l-3-3 1-2h-1q-4 1-5-2v-3q-3 1-2-1-4-2 0-4l3 3v1h4q2-6-3-4l-2-3h-4q1 3-1 2-5-2-2-3 2-6-4-4v-1l-1-4q-5 1-6-2 1-3-2-2l-2-4q-6 1-7-4l-3 1-3-1 1-2q2 1 1-2l-2-1-1 3-3-1-2 1-1-1h-1q-3-1-2 2l-8 5q-4 1-3-1h-1q-4-1-2 3l-9 3h-2q-5-1-4 2l-2 1h-4q1-3-2-2l-2 3-8 2 8 4q2-1 1 3l2-1 3 1 1 4 2-1 2 1q4 2 1 4h3q3 1 2 6l2-1 3 4-1 1q1 2-1 1l1 2q2 1 1-2h2l1 7 3 1 1 4 4 3v3q-3-1-2 2l5-2 2 4q1 2-2 1v2l3 1 1-3v4l1 2 4 1 1 4 4 1 1 3q2 3 4-1l3 2-1 2q-1 4 3 2l1-2 3 3h-2l2 3 2-3 3 1 1 3q7-1 10 3v-2h6v2l2-1 2 1q3-2 10-1l1 1q-1-3 6-2h2l5-2q1-3 3 1 2 1 1-2l10-7 3 2q1-3-2-2l8-10 2 3 1-1-3-3 3-5 1-6 3-1q1-4-2-3l1-5v-13l1-1-2-7 1-3-2-1-1-4 1-3-3-2-1-3 2-3q1-3-1-2l-3-3-2-2-3-3 1-2 2-3-4 2-3-3q-1-3 2-2v-2l-2-1-1 3-3-7h-4v-5q-5 1-6-2v-2h-4l-1-3-5-5h-6l1-4-2-1-1 2-8-3h-3q1-3-2-2Zm46 0-2 2h2v-2Zm-354 1q-1 3 2 2 1-3-2-2Zm53 1-2 2h3q1-3-1-2Zm6 4 1 2h2l-3-2Zm162 1-1 2h3l-2-2Zm-42 2q-1 4 2 3 1-4-2-3Zm38 3-2 2h3q1-3-1-2Zm203 1q-1 4 4 2 1-4-4-2Zm-245 1v2l2 1q1-4-2-3Zm35 2-1 3q4 1 3-2l-2-1Zm-153 1 1 2 2-1-3-1Zm36 1q-1 3 2 2 1-3-2-2Zm-26 1-3 2h3v-2Zm202 2q-1 3 2 2 1-3-2-2Zm-171 1-1 3 1 1 2-1q1-4-2-3Zm-90 2-2 2h2v-2Zm107 1q-2 3 1 2l-1-2Zm42 1v2l2 1q1-4-2-3Zm12 0q-3 4 1 3l-1-3Zm96 0 1 2q1-3-1-2Zm-146 3q-2 4 2 3v-2l-2-1Zm36 3-1 3h1v-3Zm96 0 1 2q1-3-1-2Zm-43 1 1 2q1-3-1-2Zm204 0 1 2q1-3-1-2Zm-343 2 1 3 2-1-3-2Zm123 3q-1 3 2 2 1-3-2-2Zm-116 1q0 4 2 1l-2-1Zm150 0v2l3 1q2-4-3-3Zm31 0q-1 3 2 2 1-3-2-2Zm-69 4 1 2q1-3-1-2Zm56 2 1 2q1-3-1-2Zm134 0-1 1q-3-1-2 2l3-1v-2Zm-338 6-2 2h2v-2Zm22 2q-1 3 2 2 1-3-2-2Zm45 1v3h1q1-4-1-3Zm52 1q-1 3 2 2 1-3-2-2Zm246 0v2l2-1-2-1Zm-308 2-2 4 2-1v-3Zm27 0-2 2q-1 2 2 1v-3Zm-90 1-2 2h2v-2Zm52 0v3l-7 4-3-1-2 1q4 1 3 6l6 3q-1 4 3 2 1 5 5 8l-1 4 4 3-1 5 3-2 1 4-1 3q-1 4 2 3l-1 7q-1 4 2 3l-1 7 2 4q1 5-1 7l3 2q2 5-2 4l2 3 2-3 1 5v2q-1 2 2 1 3 1 2 6 4-1 5 3-1 2 2 1l3 4-2 2 1 2 1-3 9 5 1 4 3-1 7 3 2 4q4 1 3-2l5 1q1 3 3 1l4 3 4-1 4 1-2 4q-1 2 2 1l3-4 7 3 2-3 5 2 4-1q4-1 6 1l4-2q4-1 6 1 4 1 5-3 4-1 5 2 3 1 2-2l8-4h6l2-3q5 2 4-2l4-1q5 2 4-2l4-2 1-3 4-2q2 1 1-2l4-2 3 1 1-2h-2l3-4v2l3-1q1-3-1-2l3-4v2l3-1-1-3h2l3-4q-2-2 1-3 4 1 3-2l-2-1q-3 1-2-1l-3-3q-3 1-2-1l-5-3-1-4h-1l-2-1-2-4-4-2q1-3-2-2l-4 5q-4-1-3 2l-3 2h-2l-1 2-2 1-2-1-2 1-2 3-4 1-2-3-3 1q-1 3 2 2v2h-8v2l-2 1-5-2-3 4q-6 1-6-3-3-1-2 2l-2 2-4 1h-4l3-1-1-3q-3-1-2 2l-5 3q-5 1-6-1-2 3-7 1v-1q2 1 1-1l-3-2-1 4-6-3-4 1h-4q1-3-1-2h-2q-4 1-3-2h-4l-3-1v-1q2 1 1-2-3-1-4 2l-6-4-4-3 2-2q2 1 1-2-4-1-3 2l-5-3 2-3-5-4q1-4-2-3l-1-2q-1-5 2-4 1-3-2-4-2-7 2-6-2-4-1-12l-3-5 1-2q1-4-1-3-4-1-3-5-4 1-5-1 1-4-3-2v2l-9-4q-2 2-3 0 1-3-3-2Zm-9 1q-1 3 2 2 1-3-2-2Zm145 0-2 2h2v-2Zm168 0q-1 3 2 2 1-3-2-2Zm13 0-1 3h1v-3Zm-21 1v2l2-1-2-1Zm-334 2v3q3-1 0-3Zm324 0-2 2 1 1 2-1-1-2Zm25 4q-1 3 2 2 1-3-2-2Zm-25 5v4l2-1-2-3Zm-298 1v2l3-1-3-1Zm5 5q-1 3 2 2 1-3-2-2Zm163 1v2l2-1-2-1Zm131 3v3q3-1 0-3Zm10 0q-1 3 3 2 1-3-3-2Zm-298 1 1 2q1-3-1-2Zm33 2q0 4 2 1l-2-1Zm-38 4-2 2 1 1 2-1-1-2Zm294 3-2 2h2v-2Zm-136 2-4 5-2-1-2 1 1 2v2l1 1 3-2 2 4q5 2 3-4l-2 1-3-3 5-2-2-4Zm-10 2q-1 3 2 2 1-3-2-2Zm153 1 1 2q1-3-1-2Zm-140 1-1 4 3-2-2-2Zm-72 3-2 2q-5 1-6-1-4-1-3 2l-3 1h-3q1-3-2-2l-1 3 2 1-2 1q-2-2-3 1l1 2-2 4-2-2-1 2q3-1 1 3l7 2 2 3 2-1q2 1 1-2 1-3 3-1h1v-4h2v4h-1v2q-1 4 4 2 2 6 5 1 7-1 6 2l4-2q5-1 7 1l2-1-4-2q-4 1-2-3l-4 1q-3-1-1-2 2-6-3-4l2-7-6-3q1-4-1-3Zm61 3-2 3 4 1-1-1q1-4-1-3Zm2 4q-1 3 3 2 1-3-3-2Zm-53 1q-2 3 1 2l-1-2Zm-94 3q-1 3 2 2 1-3-2-2Zm156 2-1 3h2l-1-3Zm23 3q-2 3 1 2l-1-2Zm97 0q-1 3 2 2 1-3-2-2Zm13 0-1 3h2l-1-3Zm-140 3 1 3 2-1q1-3-3-2Zm-104 4v3l2-1q1-3-2-2Zm144 2q-1 3 2 2 1-3-2-2Zm-186 6 1 2q1-3-1-2Zm63 1v2h3l-3-2Zm208 0v2l2 1q1-4-2-3Zm-31 1q-1 3 3 2 1-3-3-2Zm-152 1q-1 3 2 2 1-3-2-2Zm143 0 2 2q1-3-2-2Zm-39 5v2l2-1-2-1Zm65 0q-2 3 1 2l-1-2Zm-67 5-2 2h2v-2Zm-185 2 1 2 2-1-3-1Zm178 3q-1 3 2 2 1-3-2-2Zm-2 6-1 2 2 1-1-3Zm-17 4-1 2 2 1-1-3Zm-147 6v2l2-1-2-1Zm17 2 1 2q1-3-1-2Zm-12 2v2l2-1-2-1Zm19 1-2 2h2v-2Zm105 1q-2 3 1 2l-1-2Zm-112 7-2 3h2q3-1 0-3Zm25 0 1 2q1-3-1-2Zm89 5 1 1 1 1q1-3-2-2Zm-93 3q-2 3 1 2l-1-2Zm69 4q-2 3 1 2l-1-2Zm-40 3q-1 3 2 2 1-3-2-2Z"/><path fill="#000" stroke="#000" d="m277.5 158 3.5.5-2.5 1.5-1-2ZM297.5 198l1 2-1-2ZM357.5 203l1.5 2.5-2 1 .5-3.5ZM715.5 207q2.3-.7 1.5 1.5-1.5 3-3 0l1.5-1.5ZM718.5 209l4.5 3.5q-.5 3-4.5 2.5-2.2-.7-1.5-4.5l1.5-1.5ZM277.5 210q3.8-1.2 2.5 2.5l-2.5 1.5-1.5-2.5 1.5-1.5ZM502.5 211l1.5 2.5-2 .5.5-3ZM498.5 215q4.8-1.3 3.5 2-4.2.1-3.5-2ZM434 216l3 1.5-1.5 2.5-1.5-4ZM431.5 220l1 2-2.5-.5 1.5-1.5ZM402.5 223l.5 2-2-.5 1.5-1.5ZM659.5 232l.5 2-3-.5 2.5-1.5ZM292.5 247l2.5 3.5-3.5 2.5-2.5-3.5 3.5-2.5ZM399.5 247l1.5 2.5-4 2.5v-4h1.5l1-1ZM696.5 248l1 2-1-2ZM694.5 252l2.5 1.5q-.9 3 3.5 1.5 2.3.8 1.5 4.5-.7 2.3-4.5 1.5l-3-9ZM578.5 253l.5 2.5-5 2 1 3.5-5 1-1-2.5 5-3-1-2.5 5.5-1ZM605.5 259l2.5 1.5 1 3.5-2.5 1-2.5-1q-1-3.8 1.5-5ZM519.5 269l1.5.5-2.5 1.5 1-2ZM679.5 270l2.5.5q-2.1 3.3-2.5-.5ZM523.5 271l.5 4q-3 1.3-2-2.5l1.5-1.5ZM430.5 274q3.3-1.1 2.5 1.5l-1 2.5q-4.1 1.7-3-2.5l1.5-1.5ZM560.5 292l2.5 1q.8 3.8-2.5 5l-2.5-3.5 2.5-2.5ZM428.5 300q3.3-1.1 2.5 1.5l-1 2.5q-4.1 1.7-3-2.5l1.5-1.5Z"/><path fill="#000" stroke="#000" d="m424.5 304 2.5 1.5q.5 4-2.5 4.5-2.6-.8-1.5 2.5-.7 2.3-4.5 1.5-3.2-1.7.5-3.5l2-3 3.5-3.5ZM648.5 304l3.5 2.5-1.5 2.5-3.5-1.5 1.5-3.5ZM460.5 307l.5 2.5-3 1.5 2.5-4ZM237 311l3 1.5-3 .5v-2ZM455.5 312q2.8 1.3.5 2.5.7 3-3 1.5v-2q2.8 1 2.5-2ZM416.5 315l1.5 2.5-2 1 .5-3.5ZM451.5 317l1.5 4 3 .5-2.5 3.5q-2.7-1.2-.5-2.5l-.5-1.5-3.5 1 2.5-5ZM924.5 322q3.8-1 2.5 2l-2.5-2ZM446 323q2.7-1.1 2 1.5l-3.5 2.5 1.5-2.5V323ZM450.5 326q2.6-.8 1.5 2.5-2 4.5-4 1l2.5-3.5ZM600.5 328q4.5-1 5.5 1.5l.5 1.5 4-3 4.5 1q-1.1 2.7 1.5 2l2-1 3.5 2.5q-.7 2.3 1.5 1.5l2.5 1 .5-2 2.5 1.5-3 .5 1 2.5-2.5 3.5q-3.7.8-4.5-1.5V338h-4l-.5 2h-8l-6 2-4.5-1-1.5 3h-3l-5 3-3.5-1-2.5 4q-3.7.8-4.5-1.5.8-2.2-1.5-1.5-3 1.5 0 3l2.5 1.5-4.5 3.5-1.5-3q-2.7-1.1-2 1.5l-.5 1.5 2.5.5-7 2.5-1.5 4q-3.3-1.1-2.5 1.5l-2.5 3.5q-3.7-1.2-2.5 2.5-1.2 3.3-5 2.5 1 3.8-1.5 5-3.7.8-4.5-1.5l-1-5h1l.5 1.5 4.5-1.5-1-2 4-2.5v-4q-2.7 1.1-2-1.5l2.5-3.5 2 3 2.5-1 3-8-2-.5 4-3q-.8 3 3 1.5 1.5-3.7-1.5-3l1-2q5.9 2.1 4.5-2.5 1.3-3.5 6-2.5l2.5-4 7-3h4.5q-1.2-3 2.5-2l3.5-1 .5 3 2.5-1 1.5-3Zm14.5 3-2 1v2q-1 3 2 2l-1-1 1-2v-2Zm-30 3-3 1q-1 3 3 2v-3Zm9 0-1 3h1v-3Zm-16 6v3l2-1q1-3-2-2Zm10 0q-2 4 3 3l-1-1q1-3-2-2ZM631.5 336l2.5 3.5q-2 3.5-4-1l1.5-2.5ZM627.5 340l2.5 1.5q.8 2.3-1.5 1.5l-2.5-1.5 1.5-1.5ZM337.5 345l3.5.5-3.5.5v-1ZM343.5 346l3.5 1.5-4 2.5.5-4ZM334 347l3 1.5-3 .5v-2ZM352 347q4.3-1 5.5 2h4.5l1 2.5-2.5 3.5q-4 .5-4.5-2.5l1-3-1.5-.5-2 1-1.5-3ZM325.5 349q3-.8 1.5 3-3.8 1.5-3-1.5l1.5-1.5ZM521.5 350l1 2-2.5-.5 1.5-1.5ZM364.5 353l3.5 1.5-1.5 3.5q-4 .5-4.5-2.5l2.5-2.5Z"/><path fill="#000" stroke="#000" d="M556.5 353q2.3-.7 1.5 1.5l-3 1.5 1.5-3ZM902 357q3-1 2 2-3 1-2-2ZM315.5 358q2.3-.7 1.5 1.5l-3 1.5 1.5-3ZM898.5 361l2.5.5-2.5.5v-1ZM548.5 364l.5 2-2-.5 1.5-1.5ZM608.5 365l3.5.5-2 3.5q4.1 1.7 3-2.5.8-2.2 4.5-1.5l2.5 4q4.5 1.5 3-3h3.5q1.4 2.6 6 2l2.5 2.5q-.7 2.3 1.5 1.5 1.5-3.5 3-1l3.5 1.5-2 3.5q2.7 1.1 2-1.5l1.5-1.5 3.5 3.5-2 3 2 1 1.5-3.5 4.5 4.5-1.5 1.5q-4.2-1.1-2.5 3l7 1.5-1 2.5 5 2.5v2.5h4v1.5l1.5 4.5 1.5-.5 2 5.5q-3.3-1.1-2 3l4 1 1 3.5-.5 1.5q3-.9 1.5 3.5v2q-1 5 2 4v7l1 7-1 4 1 6.5-2 .5 1 3q-3.8 1.3-3 5.5 3-1.2 2 2.5l-1 3.5q-2.7-1.1-2 1.5l1 2-1 2.5-3 1.5-1 3 1 2h-1l-.5-1.5-2.5 1v3q3-1 2 2-2.7-1.1-2 1.5l-1.5 1.5q-1.7-3.8-3.5-.5l2 3-3.5 2.5q-1.1-2.7-4.5-2 .8 3.8-2.5 5-2.6-.7-1.5 2h-2v1.5l-4.5 6.5q-3.7-1.2-2.5 2.5l-4.5 2.5-2.5-4q-3.3-1.1-2 3l3 1.5-4.5 2.5-4.5-1q1.7 4.1-2.5 3l-2 1q-1.5-2.5-3 1l-1.5-.5 3-1.5q1.5-4.5-3-3l-1 5-2.5 1-2-1-4.5 2-.5-2-2 2-7.5 1-.5-2-4 1-4.5-3-1.5 3-4.5-1-.5-3-5 1-11-5-2.5 1q-1.5 4.5 3 3-1.1-2.7 1.5-2 4.3 1.8 1.5 3.5l-2.5 4.5-4.5-2.5q.8-2.2-1.5-1.5l-1 1-3.5-3.5q.8-2.6-2.5-1.5l-2.5-4q-4.7 1-6-2.5 1.1-3.3-1.5-2.5l-2.5-1-1-4-3-1.5-1-3 2-3.5h-2q1.1 2.7-1.5 2l-2.5-3.5 1-4.5-4-1.5-1-2 1-1-3-3 1-6.5-3-1.5-1-3 5-2-1-2.5-3.5-1v2q-2.2.8-1.5-1.5v-2q-.7-3.7 1.5-4.5l4.5-.5-1-3.5h-5v-4.5l3.5-1.5 2.5 3.5-.5 1.5 3.5-1v6q-3.8-1.5-3 1.5l1 2.5h3v6q-3.7-1.5-3 1.5l3 1.5 1-4 3-1.5V457l-2-.5V451l3-.5-1-3.5q-2.7 1.1-2-1.5l1-3.5h2q-1.5 3.8 1.5 3l2.5-1q1.3-3-2.5-2l-2.5-1q-1.2-4.6 1.5-6 2.3.8 1.5-1.5l1-2.5q-2.7 1.1-2-1.5l3-8.5 3-.5-1-2 1-2.5 4-1.5-1-2 .5-1.5-1.5-.5q1.3-2.7 2.5-.5l3.5-1v-3q-2.7 1.1-2-1.5l2.5-3.5 2 3q3 .7 1.5-3-3 1.3-2-2.5l2.5-1.5 2 1q3.3-1.7-.5-3.5l2-2q-.7-2.2 1.5-1.5 1.8 3.7 3.5.5.8-2.6-2.5-1.5l1-2 2-1 2 1q2.5-1.2 1.5-5h5v-2.5q1.2-3.2 5-2.5l1.5-3 3-2 2 4 2.5-1q1.1-2.7-1.5-2l-1-2 8.5-1 1.5-3 3-1q1.1 2.8 4.5 2l1.5-3 4-1Zm16.5 5q-2 5 2 4 2-5-2-4Zm5 6v3l-6-2-9 3 9 1 2 2h5l1-2-1-3h2l-3-2Zm-48 3 1 2q1-3-1-2Zm37 2-3 2 3 1v-3Zm13 4-1 3h1v-3Zm-11 1-1 4 1 1 3-1-1-1q1-4-2-3Zm-9 2-2 3q-5 1-6-2-3-1-2 2l-3 2-2-1-1 2-3 1q-6-2-5 2l-6 2-4 7-4 3v2q-5 3-5 9l-3 2 1 3-1 9-3 3 3 3q-1 5 2 8-2 6 2 5l2 5-2 3 3 1v-1l2 1h-1l1 3q-1 2 3 1 1-2 2 1-2 4 3 3h2l1 1h-1l2 3q2 1 1-2l7 2 13-1 3-2 3 1q3 1 2-2l4-3 4-5q3 1 1-3l4-3-1-3q-2-6 2-5l-1-1q-1-6 3-6 1-3-1-2-4 0-3-4 5-3 2-5l-2 3-3-3 1-2v-2h-4l-1-5-2 1-3-1v-1q1-5-3-3v3l-6-2q-4-1-3 2l-6 1-2 4-4-1-1 3 2 1-3 6v3l-2 2 4 5q-1 2 2 1v2l4 2 5-1 2-3-4-6v-3h3l4 3q2-4-2-3l-3-3 4-3q3-1 2 2v2q5-1 7 2-1 3 2 2l1 4q1 3-2 2l1 6-1 2-4-1-1 4h2l-1 2-1-1-2 1q-3-1-2 3l-2 1h-2l-5 1 1-2 2 1-1-1q1-4-1-3l-4 5-2-1q-3 1-2-1-1-3-5-2-3-1-2-5-4 1-5-2 1-4-2-3l-1-6h2l-3-4q-2-6 2-5l-1-5 2-4 3 2q1-4-2-3l1-3q-1-3 2-2l2 3 1-3-3-1 9-8 2 1 2-1 1-3 3-1 4 3q3 1 2-1l3-2h2q2-1 1 2h4l1-2 5 2-2 6q3 1 2-2l4-2 2 4q4-1 5 3-1 3 2 2l3 5-2 1v2q-1 2 3 1l1 5 3 2q1 4-2 5 4 2 3 8l-3 1 2 7q-4 1-1 3l-1 3-3 1v2l-1 3q1 2-1 1l-3 5-5 2 1 2-8 6-3-2-3 2 1 2-10 2h-2l-4 1-10-2-2-3q-4-1-3 2l-5-2 2-1-1-3q-4-1-2 3l-11-6q1-3-1-2l-3-3-1-1 3-3-3-1v2l-4-4 2-1q2-4-2-3l-5-7q2-8-2-9-2-6 2-5 1-4-2-3v-5l2-1v-1l-1-3 1-4v-2l3-5v-3h-1q-3-1-2 3l-4 2 1 4-1 3h-1q1-3-1-2l-3 1 1 3 3-1-1 3q1 3-1 2l-2-4-4 1v2l-1 2 3-1 2 1q3-1 1 5l-3 1-1 3 1 1 2-1-1 6v14l-5 3 4 1 2-3v5q-2 6 3 4l1 4 1 2q2-1 1 2v2l1 2 5 4q-1 2 2 1l2 4q1 2 3 0l3 3q-1 4 4 2l1 3 4-1 3 1h2q-1 3 2 2h2q3-1 2 2l5-1 5 1 13-1 5-2 2 1 5-3h3q-1 5 3 3v-3q-3 1-2-2l3-1q5 2 4-2 1-4 5-3l4-6 5-4q-1-4 2-5 2 1 1-3l1-3q4 2 3-2-4-2-1-3-1-4 2-3l-1-2 1-2q-1-3 2-2 2-5-2-4l1-4q-1-3 2-2l-1-1v-3h-2v-4q3-2 1-3 1-3-2-2l-1-3q-1-4 3-3l-1-1q1-3-2-2l-3-3 1-2-1-1-6-7v-2q3-2-1-4-5 1-3-3l-6-3q1-3-5-2l-1-2q3 1 1-3-4-1-3 3l-3-1q-4 1-3-2l-2 1-6-4Zm-19 2v2h3l-3-2Zm72 11-1 2 2-1-1-1Zm-94 5 1 2q1-3-1-2Zm77 3q-2 3 1 2l-1-2Zm-84 3 1 2 2-1-3-1Zm25 1v3l2-1q1-3-2-2Zm37 2-2 2q-1 2 3 1 1-4-1-3Zm-65 1v1h2l-2-1Zm110 0-2 3h3l-1-3Zm-75 3 1 2h1l-2-2Zm33 0q-1 3 3 2 1-3-3-2Zm-73 2q-3 4 1 3l-1-3Zm8 5-2 2h2l1 1q1-4-1-3Zm25 3-3 1 1 2 2-1v-2Zm-7 5v1h2l-2-1Zm56 0-2 2h3q1-3-1-2Zm-25 7-2 2h3q1-3-1-2Zm-47 3-3 1q-1 3 3 2v-3Zm15 0v2l3-1-3-1Zm26 2q0 4 2 1l-2-1Zm66 0 1 2q1-3-1-2Zm-85 2q-1 3 3 2 1-3-3-2Zm43 1v2l2-1-2-1Zm-38 2 1 4 1-2-2-2Zm-55 1q-1 4 4 2 1-4-4-2Zm66 0-1 3h1v-3Zm-40 3v1h2l-2-1Zm70 5v1h2l-2-1Zm23 1v3q3-1 0-3Zm-29 3 2 2q1-3-2-2Zm-2 5-2 2q-1 2 2 1v-3Zm-54 1-3 1 1 2 2-1v-2Zm-42 3q-1 3 2 2 1-3-2-2Zm45 1 1 2q1-3-1-2Zm35 0-1 4h1v-4Zm-10 1v3l2-1q1-3-2-2Zm-53 1v2h3l-3-2Zm45 1-1 3h1v-3Zm15 3-1 3h2l-1-3Zm-12 2q-1 3 2 2 1-3-2-2Zm50 5v3l2-1q1-3-2-2Zm-4 4 1 3q2 1 1-2l-2-1Zm-5 7q-1 4 2 3 1-4-2-3Zm-55 3-2 2 1 2 1-2v-2Zm41 2q-1 4 2 3 1-4-2-3Zm-10 1q-1 4 2 3 1-4-2-3Zm-9 1v2q-1 2 2 1l-1-1q1-3-1-2Zm-8 1-1 3h1v-3Zm-11 2-1 3h2l-1-3Zm-11 1q-1 3 2 2 1-3-2-2Zm34 1v4l2-1q2 1 1-1l-3-2Zm-10 1 1 4 2-1q2-4-3-3ZM697.5 366l1 2q-2.8.7-1-2ZM849.5 376l3.5 2.5-3 .5-.5-3ZM541.5 377q3.8-.7 4.5 1.5.8 3.8-1.5 4.5-4.8-1.7-3.5 2.5-1.5 3-3 0-1.2-3.7 2.5-2.5l-.5-1.5q-.7-3.7 1.5-4.5ZM846.5 381l2.5.5-2.5.5v-1Z"/><path fill="#000" stroke="#000" d="M654 383q3-1 2 2-3 1-2-2ZM93.5 387l2.5 1q1.1 2.7-1.5 2l-2.5-1.5 1.5-1.5ZM149.5 397q3-.9 1.5 3.5-.7 2.3-4.5 1.5-3.5-2 1-4l2-1ZM299 398l3 1.5-1.5 3.5-1.5-5ZM143 402l3 1.5-1.5 2.5-1.5-4ZM603.5 404l2.5.5q-2.1 3.3-2.5-.5ZM535.5 407l.5 3q-2.7 1.1-2-1.5l1.5-1.5ZM531.5 412l2.5 1.5q.8 3.8-1.5 4.5l-3.5-2.5 2.5-3.5ZM393.5 415l2.5 1.5q1.3 3.8-2.5 2.5l-1.5-2.5 1.5-1.5ZM527 417l3 1.5q.8 3.8-1.5 4.5-4.2 1.3-2.5-3.5l1-2.5ZM531.5 422q2.3-.7 1.5 1.5l-2 5v2l-1.5 2.5q-4 .5-4.5-2.5l1.5-3.5 2-1 1.5.5-1-2 2.5-2.5ZM523 433l3 1.5-1.5 3.5q-3.7 1.3-2.5-2.5l1-2.5ZM216.5 436l.5 2.5-3 1.5 2.5-4ZM528.5 436h2.5v5.5l-2.5 1.5q-3-.5-2.5-4.5l2.5-2.5ZM763.5 437l1.5 3.5-2-1 .5-2.5ZM344.5 454l1 2-1-2ZM397 500l2 .5-2 1V500ZM323.5 509l3.5 1.5q1.1 3.3-1.5 2.5l-3.5-2.5 1.5-1.5ZM572.5 514l4.5 2.5-2.5.5-2-3ZM569 517l4 1.5q.8 2.6-2.5 1.5l-1.5-3ZM642 526l8.5 1 6.5-1q-1.1 2.7 1.5 2h2q2.3-.7 1.5 1.5 1.6 3 7 1.5v6h2.5q2.3.8 1.5 4.5-.7 2.3-4.5 1.5l-3-4q-4 .5-4.5-2.5.7-2.6-2-1.5l-1 3.5 1.5.5q1.8-2.7 3.5 1.5l-2.5.5-3-2-3 1-2.5-1q1.1-3.3-3-2l-1.5 3h-4q-1.1-2.7-4.5-2l-1.5 3q-5.3-.8-7 2H624q1.3 3-2.5 2l-3.5 1q1.1-3.3-3-2l-1.5 4-3.5 1-1.5 3-3 1-1.5-3.5 4-1.5v-5.5l1.5-.5 2.5-1 3.5-5 3 1-.5-1.5q-.7-2.2 1.5-1.5l4.5-2q-1.5 4.5 3 3-.7-3.8 2.5-5h2.5q-1.1-2.7 1.5-2l3-1 5.5 1v-2Zm12 3v3l2-1q1-3-2-2Zm-35 8 1 3q-1 2 2 1 2-6-3-4Zm11 1v2l3 1v-1l-3-2ZM539.5 531l3.5 2.5-1.5.5-2-3ZM672.5 535l3.5 1.5-1.5 1.5-2-3ZM674.5 542q3.8-.7 4.5 1.5l-1.5 4.5-4.5-3.5 1.5-2.5ZM679 547q4.1-1.3 3 2-4.1 1.3-3-2ZM556 553l3 1.5 1 2-3 .5 1 2.5-1 2.5-3-1.5-1-3.5 4-.5-1-3.5ZM601.5 553q3.3-1.1 2.5 1.5l-3.5 2.5-.5-2.5 1.5-1.5ZM559.5 562l.5 1.5-2 1 1.5-2.5ZM673 587q4.1-1.7 3 2.5l-3 1.5v-4ZM697.5 633q2.6-.8 1.5 2.5l1 2q-1.2 2.8-2.5.5-2.2.8-1.5-1.5-2.8-1.8 1.5-3.5ZM693.5 638l2.5 1.5q1.5 4.4-1.5 3.5l-2 1q-2.7-1.2-.5-2.5l1.5-3.5ZM410.5 655l1.5 2.5-2-1 .5-1.5ZM597.5 667l.5 3q-2.7 1.1-2-1.5l1.5-1.5ZM558.5 673l1 2-1-2ZM371 721q4.9-1.6 3 4-4.9 1.6-3-4ZM592 726q3.8-1 5 1.5v2.5q4.1-1.7 3 2.5 2.3 1.3-.5 2.5l-3.5-1.5q1.1-3.3-1.5-2.5-3.2-1.2-2.5-5ZM430.5 751l.5 1.5-2 1 1.5-2.5ZM469.5 776l2.5.5-2.5.5v-1Z"/><path fill="#FFF" stroke="#FFF" d="M0 0h1000v1000H0V0Zm463 130-3 3 2 2q2-1 1 2l-5-2 1 5-1 5 1 3q-1 2 2 1l-1 6 2 3v-3l3 2-2 3v2q-1 3 2 2l2 4h-2l3 9 4 2-1 3 2 5v3l-1-3-5-1-5-3q-3-1-2 3l-2 1 2-4-3-2-5 1-2-3-13-1-7-2-1 3q-4 1-3-2l-2-1-4 1-1 3q-5 1-3-3l-6 1-1 3q-4 1-3-2l-3 1q-4-1-3 2l-3 1-2 3-4-2-3 1-2 3-4-1-10 6q1 2-2 1-4 1-3 5-3 1-4-2l-4 4 2 2-2 7q1 3 5 2l1-3 3 2-4 2 4 1 3-1q3-1 2 2l-5 1v2q1 2-3 1v-2l-5 2v2h-3l-3 4-2-1-5 2q-5 1-4-1-1-4-5-3l-2-4q-5 2-4-2-1-4-5-3l-2-4q-4 1-3-1v-2q-2-5-3-2-3 1-2-1v-2l-1-2-2-1q1 3-2 2l1-3-2-5q-3-1-2 2h-3l3-2q1-4-2-5-3 1-2-2l-5-4 1-3-2-4q-3-1-2 2l-3-1 4-2-1-2-3-3-2 4-3-1 3-2 1-2-3-5q-4 1-3-2l-4-1-2 3-7-3-3 4-2 1-2-1-3 4 2-1v3l-3 1v-2l-1 2v2l-1 2q1 2-1 1l-5 9 2 4-3 4v4l4 1-1 2-5-3v6q3-1 2 4l-3 2 1 8v-4q5-1 3 3l-4 3 1 4 3 2q1 2-1 1l-3 7 2 3 1-2 2 1q-4 0-3 6l4 2q2 4-1 3-3 1-2 5l4 2 1 3h-3l4 10 4 1-2 4 1 4q-1 3 3 1v4l1 2 2-1 2 2q1 2-2 1v3l5 6q-1 2 3 1l3-2q1 2-2 1l-1 3 1 2 4 2 3 4q4-2 3 3-3 1 2 3l3-1-1 4 5 2-1-1 2-1-2 4-4-3q-2-2-3 1l-2-4-5 1-1-2-9-5-3 2q-3 1-2-1 2-2 0-3-8 2-7-2l-2-1q-5-2-4 2l-1 1-4-4q-5 1-4-2l-4-1-2 4q-4 1-3-1l-5-4q-5-1-6 1l-8-2-2 3q-5 2-4-2h-6v3q-5 2-4-2l-4 1q-3-1-2 2l-4-1-14 4 3 1q1 3-3 2l-1-3-5 1-1 3-3-1-8 3-3 4-3-1-4 1v2q3-1 2 2l-1 1-3-3-3 1-2 3-7 3h2l1 2q-4 1-3-2l-6 2 2 3q2-1 1 2-3 1-2-2l-2-1-4 1-1 3q1 2-2 1l-2 4q-3 1-4-2l-5 4h-2q-4 1-3 5l-3-1-5 2v2l-1-1-3 1-2 3-3-1-5 3 3 2q-2 3-4-2l-4 1-2 3-3-1-13 5h3l-1 2q-3 1-2-2l-3 1q-4-1-3 2l-6 3q1 4-1 3-4 1-3 6l-3 2 1 3q-1 2 2 1l1 9h1q-1-5 4-3v3q-4-2-3 3l4 2q-1 4 3 5 4-1 2 4l4 1 1 3 4 3-2 3 1 2q2 4 4 1-1-3 3-2 1 3-1 2-3 1-2 5l3 1 1 3q1 3 6 2l-1 4 2 2 3-1-1 4 4 4 1-2 2 1-2 3 4 2 1 3 4 2 1-2 2 1-2 3q4 5 10 7l2-3 1 2-3 3 4 2q3-1 2 2l4 2q2 1 1-2 4-2 3 2l4 2q2-1 1 2v2q5-1 7 2-1 2 2 1h2q2-1 1 2l4 1q1 3 3-1 4-1 2 4l2-1q5-2 4 2l4 1h2l4 1h2q5-1 4 2h5l2-3 4 4 4 1q4 1 6-1l3 1q5 1 7-2l4 2h4l2-3q3-1 2 2 5 1 8-3l3 2 6-3h5q1 2 2 0 1-3-2-2v-2l6 3 2-1 1-3 3-1 2 3 3-2q2 1 1-2h3l2-4q3-1 5 2l3-2 3-2 1 2 1 10 2 1q2-1 1 4l-2 4 3 4q3 1-1 3l1 3q-1 2 2 1l-1 5 2 6-1 4 1 5q1 6-2 9h3v4h-1l-2 2-2 9 2 1-3 5q-1 3 2 4 2-1 1 2l-3-2-3 4 2 3-4 4v2l-3 1-1 3 1 3h-2l1 7q1 5-2 4v5l3 2-2 1-1-3-1 4v2l1 2q1 2-2 1l1 7-1 3q-1 5 2 7l-2 4v4l3 2-3 4v3l4 2-3 5 1 3q-1 2 2 1l1 3-3 2 1 4 3 1-1 4 1 4q-1 2 2 1v4l4 3-2 3 4 5v2l4 2 4 5q3-1 2 3-2 1 1 2 5-2 4 2l2 3 4-1-1 4q7-1 9 4 4-1 3 2l4 1 3-2 4 3h4l2-4q3 2-2 5l2 1q5 2 4-2 4-2 3 2 1 3 5 2l3 4h3v5h4l1 3 4 3-1 2 2 4q3 1 2-1 2-3 3 0l-3 2q0 5 4 7l-1 2q-2 5 2 4-1 5 3 6 2-1 1 2-3 1-2-1-1-3-3 0l2 7q1 2-2 1-1 5 2 7l-1 4 2 7 3 2q4-1 2 3l-3 2 2 3q-1 3 3 1-1 5 3 6 2-1 1 2v2l2 3 1-3 2 1-2 4 4 4q2-1 1 2l4 3 1-1 4 5 2-1v3l5 2 1-2 2 1-3 2 4 2q2 1 1-2 5-1 3 3l-2 1 3 1 5-1 3 4q4-1 3 2l4 1q4 1 2-3h3q1 4-1 3v1h8v2l5 1 1-3q4-2 3 2l3 1 3 1q4 1 6-1l4 1q4 1 6-1l4 1q6 2 5-2l5 1q5 1 7-2h4q5 1 4-2h3l1-4q4-1 3 2h6v-1l3-2h2l2-1q3 1 2-1l-2-2v-1q3-1 2 2l5-1q2 1 1-1l3-2q3-1 2-5l4 2 4-3-3-2 2-1q-1 2 2 1 1 2 3-1 2 1 1-1l3-2q3-1 2-5 4 1 5-2l-1-3h2l3-1 1-3 3-2 1-2-1-2 5-2 1-4 7 1 1 1q-1-3 3-2l1 3 4 1q1-3 3 1l5-1q5-1 4 2h4l1-3 8 3 2-4q3-1 5 2 5 2 4-1l4-3v2l4-1q3 1 2-2h3l2-4 4 1 4-2-2-5q3-1 2 3h3l3-3-1-1 5-3q-1-4 2-3l3-4-3-2 1-3 3 4 2-3v-3q-4 1-3-2l5 1 1-3-1-2 5-11q1-5-2-4-2-4 2-3 2-1 1-5l-4-2q-1-3 3-2l1 2v-5q-1-4 5-2l2-3q-3 1-2-2l3-1v2l5-2-1-2q-3 1-2-2 3-1 2 2l5-1 1-3 5-2q-2-5 3-4l4-5q3 1 2-2l4-3q1 2 2 0l-1-2 2-3q2-1 1 2l3-2-1-3 3-2 1 2 2-3q1-3-2-2l2-3v2l4-2-1-5 3 1 2-1-1-6 4 1q2-1 0-2-2-5 3-4l5-8-3-6 5 2 1-2q1-4-2-3v-3q3-1 2 2l2-1-1-2 3-6v-5l-3-1 3-2v2l2-1-1-4q-1-5 2-4 2-1 1-4l-3-2q4-1 3-7l-3-2q-1-3 2-2l2 2-1-5 1-4-2-6 1-4-3-9-4-3 3-2v3l2 1-2-8-4-3q-1-3 2-2l-1-3q1-4-2-3l-1-4 1-4-4 2-1-2 2-1q2-1 1-4l-3-2-1-2q-1-3 2-2 1-5-3-6l1-4-1-7q-2-2 1-3 2-6-2-5l-1-3 3-1 1-4-3-2q-1-4 3-5-1-5 2-4v-6h-2q-2-4 2-3l3-6q1-5-2-6l2-1 2 3q4-1 3 2l4 1q1 2 2 0-1-4 2-3l-1 5 4 1 4-2 1 3 4 1h1q-1 2 2 1l3 1 2-2 5 3 5 1 4-1q4-1 6 2 4 1 3-1l3-2 1 3h6v-2q1-3 3-1 2-1 1 2 6 1 8-3l3 2h4l4-3 3 2 3-1q-1-4 5-2h2q4 1 3-2 6 1 8-4l2 1 8-3 1-4 4 1 4-2-2-4 4 2 7-4q3-1 2-5 5 1 6-1l-1-4 3-1v2l5-2-1-1-2-3q3-1 2 2 5 1 6-3-1-3 2-2l3-3-1-1 3-1q3-1 2-5 4 1 5-2-1-4 2-3 3-1 2-5h2l2-3v-2l3-1 2-4-4-2q-1-3 2-2 3 6 6 0l-1-4q-3 1-2-2 3-1 2 2l3 1 6-7q1-4-2-3-1-4 2-3l2 3 4-5 4-4-1-2q-3 1-2-2l5 2 5-8q2-2 0-3-3 1-2-2l5 1 1-2-1-3 4-5q-1-4 2-3l3-8-1-3 1-8-3-2q1-5-2-6-4 1-3-1l-3-3-4 3q1 2-2 1l2-5-3-1-5 2-1-1q-1-3-6-2l-1 3-4-3q-5 1-4-2h-5q0 3-4 2l-1-3-2-1-2 1q-3 1-2-2l-2-1-6 2 1-2-6-2-10-5q-3-1-2 2-4 2-3-2-1-3-5-2l-4-3-5 2 1-2-2-2-3 1q-5 1-3-3l-4-1-3 4-2-1 2-4-3-1q-3-1-2 2h-2l-2-3-10-3-1 2-9-4-5 1q-5 1-4-2-6-1-7 2-4 1-3-2l-4-1-3 4q-4-2 0-3l-1-2-7 2-1-2h-6v2q-5 2-4-2l-8 3-1-2q-5-1-6 2l-3-1-8 2h-6l-2 2q-7-1-9 2l3 1v1q-2-3-7-2l-2 3-3-1-8 3q-4 1-3 5-4 1-3-2l-4 1-2 3-1-1-4 1h-2l-3 2v-1l-1-1 1-2 1 2 9-7-3-2 2-3v2l3 1 3-5 4-2-1-4q-3 1-2-2 3-1 2 2l4 1q3-1 2-5l4-2q1-4-1-5-3 1-2-2 3-1 2 2l4 1 5-8 1-1-2-4 3 2 2-4q-4-3 1-5l1 2 1-2-1-2q-1-4 2-3l5-8-1-4q-3 1-2-2l5 1 1-3-2-1v-4h2l1-2v-2l2-3-1-4q-1-5 2-4v-6q-4 2-3-2l3-2 1-2-1-2 1-6h-2l2-5q-3-4-2-12l-1-2-1 2-2 1 2-4v-3l-3-4v-2l-2-5-1 3q-4 1-3-2l3-1-3-5-5 3q-1-3 2-2l1-2-7-6-4 1-5-1-5 3q1 2-2 1l-3 4-5 4 1 3-1-1-2 1-2 4-3 1-1 5 4 1-1 3-1-1q0-3-4-3l-3 4-2 1-2 4-3 1q-3 1-2 5l-4 2q1 3-1 2h-2q-5 0-5 3-1 2 2 1l-1 3-1-2q-2-4-4 1-3-1-2 2l-4 1-1 3q1 2-2 1-4 1-3 5l-2-1-7 4-3 4-2 1-4-5-4 2q1 3-2 2l-2-3-4 1q-3-1-2 2-7-1-10 2-4-2 1-4-1-5 2-4l1-3q1-5-3-3-1-4 3-3l1 2 1-3-1-2q-1-4 2-3v-5q-3 0-2-4l3-1q1-5-1-6-5 1-3-3l3-1q1-4-2-5l-4 2q1 2-2 1l-2 1q1-3-2-2l-1 3 1 3q-1 2-5 1l1 5q-4 1-3-1l-3 2 1 3q-2 3-3-1l-3 4-2 1q1-3-2-2-1-4 2-3v-4l-3-2-1-2 3-2-1-2q1-4-2-3v-2l-4-4 1-2v2l3 1-2-7-4-2q-2-5 2-4l-1-6-4 3h-3l2-1q3 0 2-4l-2-3-5-1-2 3h2q2 4-2 3l-5 8v4l3 1-1 2-4-2 1 4-4 6v3q1 2 5 1l-1 2-4-2-2 4q-3 1 1 3l-3 4q1 2-1 1-3-1-1-2l-2-4-1 3q-3 1-2-3h2l-3-5-2 3q-3 1-2-2l3-1-3-5q-3 1-2-1l-5-4-3-5-2 1-3-5h-3q1-4-1-3-2-4-3-1-3 1-2-2l-8-7q-4 1-3-2l-3-1q-3-1-2 3l-2-1 1-4-4-2-1 2-5-4h-3l-1-4q-6 2-5-1l-3-3-2 1v-1l-3-2-3 1-7-1Zm-185 28 1 2 2-1-3-1Zm340 22-1 3h1v-3Zm-223 2-2 1v1l3-1-1-1Zm-30 13v2l2-1-2-1Zm-7 8-1 4 2-1-1-3Zm390 5-1 4h1v-4Zm-121 9v1h2l-2-1Zm-375 5-1 4h1v-4Zm2 19-1 4h1v-4Zm-18 54 1 1q1 2 2 0l-3-1Zm14 2 1 2h3l-4-2Zm675 25 2 2q1-3-2-2Zm-808 7v2l2-1-2-1Zm-56 76 2 3v-1l-2-2Zm58 59 1 1 1 1q1-3-2-2Zm55 19v1h2l-2-1Zm93 77-2 3 2-1v-2Zm-8 73-1 4h1v-4Z"/><path fill="#FFF" stroke="#FFF" d="M478 139q3-1 2 2-3 1-2-2ZM462 146l2 .5-2 1V146ZM476.5 149l2 1q1.3-2.3 2.5.5l1.5 2.5q4.4-1.5 3.5 1.5 1.3 3.5 6 2.5l1.5 3 3 1 3-2v1l-2.5 1.5 6 3.5q-1.3-4.1 2-3l-2 3.5q.5 3 4.5 2.5l2-1q2.8 1.3.5 2.5l1.5 2.5 4.5-1-1 4 2.5 1 2-1 1.5 2.5-1 1 3.5 3.5.5-3q3-1.2 2 2.5l-1 2 3.5 2.5 2.5-1q1.1 2.7-1.5 2l2.5 3.5.5 1.5 1.5-3q2.7-1.1 2 1.5l-2 3 2 3.5q2.7-1.1 2 1.5l2.5 3.5q5.3-1.7 3.5 3.5-2.2 1.2.5 2.5l3.5-1-1 5.5 4 7.5 2.5 1 2.5-1q-1 3.8 1.5 5l3.5-1.5V219h-4v-1.5l5-2.5-1-5.5 2-.5 1-5.5q-4.5-2.5 1-5l1-2q-2.5-1.5 1-3l1-5.5q-4.1 1.3-3-2l3.5 2 2-7 2 7 2-3 .5 1.5-3 4 2.5 3.5q3-.8 1.5 3-2.7-1.1-2 1.5l-1 3 4 2.5q1.1 2.7-1.5 2l-2.5 2.5v9l1 4q-2.7.8-2 5l3.5 1.5 1.5-4q4.3-1 5.5 2l3.5-5-4-.5 3.5-.5 1 1 3.5-3.5-2-3 2-1 1.5 2.5 2.5-5q-3 1-2-2l3.5 2 5-6 1.5 3.5-3 1.5v4.5l-2 .5v2.5l-1 3.5 3 .5-2.5 1.5-2.5-1-1 4.5 1 2-4.5 6.5-3.5 2.5 2.5 4.5 3-1 .5 2q3.8 1 5-1.5l-4-2 1.5-2.5 2.5 1q-1.2 3 2.5 2l3.5-2.5q-.9-3 3.5-1.5l2.5-1q1.1 2.7-1.5 2l-6.5 5v2q-3.7-1.5-3 1.5l-1 2.5q-5.7-1-8 2.5l3 .5v4h-1.5l-1.5 4 6 1q-2.1-5.2 2.5-4l1.5-.5q-.7 3.8 1.5 4.5 4 .5 4.5-2.5l-6-4 2.5-3.5 2.5-1.5 1.5-3.5 3 5q3.3-1.1 2.5 1.5l4.5 3.5 1.5-.5 1 3.5 4 1 2.5 4q3.3-1.1 2.5 1.5l1 2.5 5 1 .5 5h2q2.6-.8 1.5 2.5v2l4 7.5h4v5h1.5l2.5 1 1 3.5-1 2.5 4-1-1 3.5 8 10v2.5l-2-.5q2.8-1.8-1.5-3.5-3.7-.7-4.5 1.5-.5 4 2.5 4.5l2.5.5q-2.7 1.7 1.5 3.5l3 1 3-4 1.5 1.5q-5.2 2.3-1.5 4.5l4.5 1q-1.5-3.7 1.5-3l1.5 3-3 .5 4.5 1.5h2l7 2 1.5-3 7.5 3 2.5-4 6.5 2 8.5-6.5.5-1.5q.5 3.5 5 3l2.5-1 1.5-3 4 1 5-3h7.5v-2q-4.1 1.3-3-2h3q-1.1 2.7 1.5 2l2 1 2.5-1q-1.2-3 2.5-2 1.5-2.5 3 1l8-3 5 1q.8-2.7 5-2l5 1 4-2q1.5 3.3 6.5 2-1.2-3 2.5-2l1.5-.5 1.5 2.5h4.5q-1.6-4.9 4-3l1.5 3 8 1 5.5-1v2h5q-1.2-3.7 4-2l1.5 3q6.1-.6 9 2l4-1q.8 2.8 5 2l1.5-3q2.7-1.1 2 1.5l-1.5 2.5 5.5 1q-1.1-2.7 1.5-2l3 4h4l5 3 .5-3q3.8-1.5 3 1.5l.5 1.5-1.5.5 8 .5 1.5 3h4.5q-1.1-2.7 1.5-2l-1.5 2.5 1.5 1.5 3 1 .5-2q3.8-1.5 3 1.5l2.5 2.5 8 2 3-2 1.5 3-2 .5 6.5.5 1.5-.5v2.5h6q-1.2-3 2.5-2l3 3 9.5 2q-1.2-3.7 4-2-1.1 2.7 1.5 2l3 1 1.5-4q2.7-1.1 2 1.5l-1.5 2.5 3 1 3.5-1 1 5.5-1 2 1 4.5-3 1.5v3l-4 6.5q4.1-1.3 3 2l-3.5-2-2.5 5.5q3.8 1.7.5 3.5-2.6.8-1.5-2.5h-1l-2 4.5q3-1 2 2-3.8 1.5-3-1.5l-2 1-2 4.5q3-1 2 2l-3.5-2-3.5 3.5 2 2q.8 2.3-1.5 1.5l-2-1-2 3 2.5.5-1 2.5-3.5-1-3 4q3-.8 1.5 3l-3.5-2-2.5 3.5 2 .5q1.5 3.8-1.5 3l-2.5-1.5-2 4 1 3.5-4-2-1 3.5h2l-1.5 2.5-3.5-1-2 5 2 .5-2.5 1.5q-1.8-2.7-3.5 1.5-.7 2.6 2 1.5v2l-3.5-2-3.5 3.5 2 2q.8 2.3-1.5 1.5l-2-2-7 7q-2.6-.8-1.5 2.5l3 2-1.5.5-4-2-3.5 2q1.1 2.7-1.5 2l-2.5 1-1 4-3.5-1-3.5 2.5 3 1.5q1.1 2.7-1.5 2l-4-2-3.5 2.5.5 1.5q-4.7-.7-5.5 2.5.8 2.3-1.5 1.5l-1.5.5q.8-2.6-2.5-1.5l-8.5 5.5q.8 2.6-2.5 1.5-1.5-3.5-3-1l-4 2h-7l-3 2-8.5.5 4 3-2 1-2.5-3.5q-4.7-.7-5.5 2.5l-.5 1.5q-.7-3.7-6-3l-3 4-1.5-1.5 2.5-3.5-9 1-6.5-2q1.5 4.5-3 3 1.5-3.8-1.5-3l-9-3-.5 2-4-1.5q.8-2.6-2.5-1.5h-2q-2.6.7-1.5-2h-2.5l-3.5-1q1.1 3.3-3 2l-1.5-3-3.5-1.5q.8-2.2-1.5-1.5l-4.5-2.5q2.7-1.8-1.5-3.5-2.2.8-1.5-1.5l2-1q-1 3.8 2 2.5l-1-7.5-1.5-1.5q-4.2 1.1-2.5-3 2.7-1.1 2 1.5l2 1-2-8 1-2-1-2 1.5.5 3 1 2-1q2.8 1.3.5 2.5l1.5 2.5q1.1-2.7 4.5-2l1 4 5 1q-1.2 3 2.5 2l3.5 1q1-4.7-2.5-6-2.6.7-1.5-2l4.5 3h3.5q2.1 5.2-2.5 4l-1 2 5.5 2q-1.5-3.7 1.5-3 5.5-3-1-6l-5.5-4.5 1.5.5 4 1 1-1 3 3 3 1 2-3 4 3h3l6 3 .5-4h4v1.5l3.5 2.5 2.5-2.5-3.5-3.5-6-4q-2.5 1.2-1.5 5-3.3 1.3-2-3.5l2-3-4.5-3.5-1.5 3q-3 1-2-2 2.7 1.1 2-1.5l-4-2.5q1.3 3-2.5 2l1-2 1.5-.5-4-3 4.5-1.5 3 1 15.5 1q-1.2-3.7 4-2-1.4 3.7 4.5 2l1.5-3q3.8-1.5 3 1.5l.5 1.5-2.5.5 3.5.5 4-1 2.5-2.5.5-2.5.5 2.5-2 3.5 4.5 1 4-2q1.5 3.3 6.5 2 1-3.8-1.5-5-3.3 1.1-2.5-1.5l-2.5-3.5-3.5-1.5-2.5-3.5-3 1-.5-4-16-8q1.3 4.1-2 3l2-3.5-5-2 10-2.5 1.5-3q3.3-1.1 2.5 1.5.8 2.3 4.5 1.5l1.5-4h2.5l4 3 3.5-2.5q-.8-3 3-1.5l1.5 3q3.8.8 4.5-1.5-1.1-4.2 3-2.5l1.5 3q3.8.8 4.5-1.5l1-2-1-2 1.5.5q2.3-.7 1.5 1.5l.5 1.5-2.5 1.5 3.5.5h2l3.5-1 1-3.5-1-2.5-5-1q1.5-3.8-1.5-3l-9.5-4q1.1 3.3-3 2-1.1-2.7 1.5-2v-1l-4-1-2.5 1 1.5-3h10l1.5-1.5 1.5-2.5 4 3h3l3-4 3 3 9 1 4-1 6.5 1q-1.2-3.7 4-2-1.1 2.7 1.5 2l3 1 1.5-3q3.4-.7 4.5 2h4l1.5-4q3.7-1.5 3 1.5.5 3 4.5 2.5 3.5-1.3 2.5-6l2-.5-3.5-1.5-3.5 1-1.5-3-3-1-3 5-1.5-4q3 1 2-2l-4.5-1-.5 2q-3.8 1.5-3-1.5l-3.5-2.5-8.5-2q1.1 3.3-3 2l-1.5-3-3-1h-2l-6-1-3.5 1q1.3-3-2.5-2l-2-1-3 4q-3-1.5 0-3l1.5-.5-4.5-1.5-4 1q-2-2.8-6.5-2 1.2 3.7-4 2 1.4-3.7-4.5-2l-1.5 3h-3q1.1-2.7-1.5-2l-3-1-2.5 4-4.5-3-7-1q-3 1.5 0 3 2.6-.7 1.5 2l-4.5-3h-3l-2.5 4-3-1.5q.9-3.4-4.5-1.5l-1.5 4h-4q1.1-2.7-1.5-2l-8.5 5.5-1.5 2.5q-2.6.7-1.5-2h-4.5l-6 4-2.5-1 1 3.5-3 1.5q1.3-3-2.5-2l-8.5 6.5-1.5 2.5-2-1-3.5 2.5 2 .5-1.5 3-2-3-9.5 6.5q.8 2.6-2.5 1.5h-2l-7.5 2-2.5-4-4.5 1-1 3.5.5 1.5q-3.3-1.1-2.5 1.5l2.5 3.5 2-4 2.5 1-1.5 3q-2.2-.7-1.5 1.5v2l1.5 2.5q2.3-.7 1.5 1.5l1 2-1 3 1.5 2.5 1.5-4q2.7-1.1 2 1.5l-3 4 2.5 3.5q2.6-.8 1.5 2.5l-1 3 1 3.5h2v8.5l1.5.5 1.5-3q3-1 2 2l-4 2.5 1 4.5 3 1.5-3 5 2.5 3.5q2.6-.8 1.5 2.5l-3 4 2.5 3.5q2.3-.7 1.5 1.5-3.8.7-3 6l4 3-1.5.5-3.5-2 1 8.5q-2.8 2-2 6.5 3-1.2 2 2.5l-3 3-2 8.5q3.7-1.2 2 4l-3 1.5q-1.9 5.4 1.5 4.5l2.5 1.5-1.5 1.5-3.5-2.5-1 5 2 4.5h-2v6q3-1.2 2 2.5-3 1-2 6l3 1.5q1 4.3-2 3.5v5.5q4.1-1.7 3 2.5l.5 1.5-2.5.5 3 6q-.9 5.4 1.5 7.5l2-3q2.3-.7 1.5 1.5l-3 4 1 3.5q4.5-1.7 3 3.5l-1 2 1 3.5q2.7 1.1 2-1.5 1.5-3 3 0l-3 2q-1 4.5 1.5 5.5l2.5 1.5-2 .5-1 2.5 1 3.5 3 1.5v2.5l-2 .5v5.5q4.1-1.7 3 2.5l-3 1.5q-1.2 4.6 1.5 6 3.3-1.1 2.5 1.5l-3 2-.5-2.5-.5 6.5 5 3-2.5 1.5-2.5-1.5-1 4 2 4-3 2v4.5q4.5-1.5 3 3-4.1 1.7-3-2.5h-1l-1 3 1 4-3 1.5-1 3.5 4 2.5q1.1 2.7-1.5 2l-3.5-2-2 4.5 3 1.5q1.1 2.7-1.5 2l-2.5-1.5-1 3v2l-3 4v2.5l-4 1-1 5q-3.5 1.1-2-6.5l.5-1.5-2.5 1.5v1.5h-4v-2h4v-1.5l1-3.5q3.5 1.1 2-6.5l-1.5.5-2.5 1.5-.5 2.5h-2l-2-1-1.5 3.5 1 3-3 2v4.5q3.8-1.5 3 1.5l-5.5 7.5q-2.2-.7-1.5 1.5l-4 9.5 3 .5-2.5 1.5-2.5-1-1 4.5 1 2.5-3 1.5-1 3.5-3.5-1-2.5 3.5 1 2-2 1-1.5-2.5-10 8-.5-2q2.7 1.1 2-1.5l-2.5-4.5-1.5-.5 1-3-2.5-5.5-2 3q-2.6.7-1.5-2l3-1.5q-.3-5.1-4-7V675l-4 1-1-2.5 2-.5q.8-3.8-2.5-5l-3 2-1-2 2.5-1.5-6.5-8.5-2-1-2 1 .5-1.5-2.5-3.5q-2.6.8-1.5-2.5 4.2-3.8 5-11l-1-4.5q2.7 1.1 2-1.5l4-9.5q-4.5 1.5-3-3l3.5 2 1.5-3.5-1-4 3-1.5 1-2.5-1-2.5q2.7 1.1 2-1.5l2-3-2-.5 1.5-4 2.5 1-1-6 4-2.5v-2l4-4V584q2.7 1.1 2-1.5l4.5-5.5 4-2 1 2q-2.2-.7-1.5 1.5l4 2.5-1-2.5q4.7.2 6-3 .8-4.7-2.5-5.5l-2.5-1.5 1-3-4-2.5-.5 3-2.5-1 2-4h-6.5q-.5-3.5-5-3l-2.5 1-1.5 3-1.5-3q-3.1-2-10-1v2q3.7-1.5 3 1.5-1.5 3-3 0l-1.5-2.5-5.5 1q1.9 5.6-3 4 1.3-3-2.5-2l-2.5 4 4 .5-1 2.5-3.5-1-2.5 3.5 1.5 2.5-4-2-3.5 3.5 2 2-.5 1.5-3-2-3.5 5-3 1.5-1 3 2 3-2-1-.5-1.5q-4.2 1.3-3.5 6l3 .5q-1.7 3.3-3.5-.5l-4.5 3.5 1.5 2.5 1.5.5q-1.7 3.3-3.5-.5-2.2-.7-1.5 1.5l-1 2.5q3.3-1.1 2 3l-3.5-1-2.5 3.5 1 3.5-3 1.5-1 3.5-4 2.5-1.5 3.5q-2.2-.7-1.5 1.5l-1 2 1 2-1.5-.5-3.5 2.5q1.7 4.8-2.5 3.5-3.2 1.2-2.5 5l-4 2.5q1.3 3.8-2.5 2.5l-4 5-2.5 1.5q1.8 5.7-4.5 3.5-2.7 1.3-.5 2.5.8 2.3-1.5 1.5l-1.5.5-.5-1.5-9.5 7.5 1.5 2.5q2.3-.7 1.5 1.5l-3.5-2.5q-4.7-.7-5.5 2.5.8 2.3-1.5 1.5l-1.5.5-.5-1.5-4.5 2.5 3 1.5-.5 2q-.5-3.5-5-3l-2.5 4-4.5-1-5 3q-6.1-1.1-8.5 1.5l3 .5q1.5 3.8-1.5 3l-1.5-3h-5.5l-.5 1.5-4 1.5q1.3-3-2.5-2l-5 3-1.5-2.5 6-7 1-3.5q-2.7 1.1-2-1.5l3-1.5.5 2 1.5-2.5v-2q-1.1-3.3 1.5-2.5 2.8-1.4 1.5-6l3-1.5 3-9-1-4 3-4-1-2.5-3-1.5q-.8-3 3-1.5-1 3 2 2 .8-5.5-2-8.5l2-.5-1-8.5q3.7-1.3 3-5.5 3.8.8 5-2.5-1.1-3.3 1.5-2.5 3.3-1.2 2.5-5l2.5-1 2.5 1v-5h1.5q3.8-1.5 2.5-7 4.1 1.7 3-2.5 2.8-1.7 1-8l-1-4-2.5-2.5q-2.6.8-1.5-2.5l1-2-8.5-6.5q-1.5 3.5-3 1l-3-2-2-1-3.5 2.5q.8 2.3-1.5 1.5l2.5-3.5-.5-1.5H497q1.2 3.7-4 2 1.4-4-5.5-2l-4 2-3-1-4 2-3.5 2.5q1.3 3.8-2.5 2.5-1.5-3.5-3-1l-3.5 2.5 3 1.5q1.1 2.7-1.5 2l-4-2-4 5q-2.2-.7-1.5 1.5l-1 3.5-3 1.5-1 4.5q4.1-1.3 3 2l-5-1-1 4.5 1 3-3 5q2.5 1.5-1 3-1.5 4.4 1.5 3.5l-.5 1.5v7l1.5.5 1.5-3q3.3-1.1 2 3l-3 1.5q-1.9 5.4 1.5 4.5l3.5 2.5 1.5 2.5 3.5 1-1 3.5 3.5 1.5 2.5-1-3 7.5 3 1.5-1.5 3-2-4-2.5 5 3 .5-2.5 2.5q-1.8-3.7-3.5-.5.7 2.6-2 1.5v2q3.3-1.1 2 3h-2q1.5-3.8-1.5-3l-3.5 5-5 2.5q.8 2.3-1.5 1.5l-3.5 2.5-1.5 2.5-3-1-9.5 4.5q1.1 4.2-3 2.5v-2h-6q1.2 3.7-4 2 1.4-3.7-4.5-2l-1.5 3q-3.7 1.5-3-1.5-1.4-2.7-6-1.5 1.3-3-2.5-2l-8-4-3 2-3-4q-3.7 1.3-2.5-2.5-1.3-3.5-6-2.5l-2.5-4q-3.4.9-1.5-4.5l-1-2.5-5 2q-1.1-2.7 1.5-2l1.5-2.5-4-5v-5l2-3.5q-2.7 1.1-2-1.5l3-1.5.5 3 2.5-5q-2.7 1.1-2-1.5l3-1.5.5 2q2.3-1.7 1.5-6.5-2.2-1.2.5-2.5 3.4.9 1.5-4.5l-3-1.5 3-7.5-4-2.5q-1.5-3.8 1.5-3l1.5-2.5-1-3.5q-4.1 1.7-3-2.5l-.5-1.5q2.3.8 1.5-1.5l-2.5-3.5-1 4-2.5-1v-2q2.7 1.1 2-1.5v-2l-1.5-2.5q-4.2 1.3-2.5-3.5l-6-4q.8-2.2-1.5-1.5l-2.5-1-2.5-4-9.5-3-1.5 3q-2.2.8-1.5-1.5l-.5-1.5 2.5-.5-7.5-.5-3 5q-3.8-2.3 1.5-4.5.9-3-3.5-1.5l-3 2q-5.4-.9-7.5 1.5l3 .5q1.5 3.7-1.5 3l-1.5-3-5 3.5q-.7 2.3 1.5 1.5 3 1.5 0 3l-3-2q-2.5 1.2-1.5 5 3.3-1.1 2 3l-4 2.5.5 9.5 2.5-4q3-1 2 2l-4 2.5q-.7 3.8 1.5 4.5l2.5 1.5-1 4 6.5 8.5 3.5-2.5.5-2.5 2.5 1q1.1 2.7-1.5 2l-2.5 1q-1 4.7 2.5 6l3.5 2.5q-.7 2.6 2 1.5v2.5h-1l-1.5-2.5-.5 7.5 5 3-2.5 1.5-2-3q-2.7-.6-1.5 5.5l2 4-2 .5v4.5l2 4v2q-1.5 4.4 1.5 3.5l4.5-3v2q-3.8-1.5-3 1.5l-1 3 1 2.5q4.1-1.7 3 2.5l-2 3 2.5 3.5 2.5-1.5q-.8-2.6 2.5-1.5v1l-3.5 2.5q-.7 4.8 2.5 5.5 2.3-.7 1.5 1.5l-1 2 2 3.5 5-2q1.1 2.7-1.5 2-2.7 1.3-.5 2.5l2.5 3.5 2.5-1.5q-1.1-3.3 1.5-2.5l1 2-2.5 1.5-1 2 2 3.5q3.8-1.5 3 1.5l3 4-2.5-1.5-1 1H342q1.3 3-2.5 2l-1.5.5q.9-3-3.5-1.5-1 3-6 2l-5-2-3 2q-.5-3.5-5-3l-1 1-3-3-3-1-.5 2q-3.7 1.5-3-1.5 2.3-1.2-.5-2.5H300q1.5-3.8-1.5-3h-2q-4.2 1.3-2.5-3.5l-5-3q1-4.5-1.5-5.5l-1 3-2.5-1q-1-3 2-2v-2.5q-3.7-3.1-4-8.5l-4-1v-3q2.7 1.1 2-1.5l-5.5-9.5q-2.6.7-1.5-2 2.7-1.1 2 1.5l2 1v-3l-3.5-6.5-2.5-1.5 2.5-1.5 2 3 .5-3.5-2-5 1-1V618l4.5 3h2.5l-2.5-6-1.5.5q.8-4.7-2.5-5.5-2.2.8-1.5-1.5 3-1 2-6l-3-1.5q-1-4.2 2-3.5V592l-3-1.5 1.5-2.5 2.5-1.5q.8-3.7-1.5-4.5l-2.5-1.5 1.5-.5q1.8 3.8 3.5.5l-1-7.5 3-1.5v-3l4-6.5-4-1.5 1.5-1.5 3.5 2.5 2-5.5q-3 1-2-2l3.5 2 2.5-4.5-1-2 2-1q-.7 2.3 1.5 1.5l2.5-4q-3.3 1.1-2-3 2.7-1.1 2 1.5 1.3 2.8 2.5.5l3.5-2.5q-.9-3 3.5-1.5l1.5-4 5-2.5q-1.1-3.3 1.5-2.5.8 2.8 5 2l2.5-1q-1.4-4 5.5-2l2.5-1.5-3-2 1.5-1.5 3 3q4.8.8 5.5-2.5-.8-3 3-1.5v2h6l1.5-3q1.7 2.8 7 2l4.5-3 1.5 3h12l1-1 .5 2 10-1q-1.4 3.7 4.5 2 2.2-5.3 4.5-1.5.8 2.6-2.5 1.5v1q8.4-.9 13 2l4-2q1.5 3.3 6.5 2l1.5-3h2.5q-1.1 2.7 1.5 2l2 1 2.5-1 1.5-3 6 3 2.5-1 1.5-3 2.5 1.5.5 1.5 5.5-2.5q-.8-3 3-1.5v2h6q-1.6-4.9 4-3-1.3 3.3 3.5 2l2.5-1q-1.2-3 2.5-2 1.7 3.5 7.5 2-1.2-3 2.5-2 1 3 6 2 3-6 6 0l9 2 .5-2q4.2-.8 5.5 3h4.5q-1.7-5.2 2-4 .8 3.4-2 4.5l5.5 1.5 3.5-1 1.5 3 6 3h3.5l1.5-3 3 4 3.5 1 1 2.5q-2.2 1.3.5 2.5l4.5-1 2.5 4q3.8-1.2 2.5 2.5l4.5 2.5 2.5-1 1.5 4q4 .5 4.5-2.5l-2-3.5q-3.7 1.5-3-1.5l-1-2.5-4-1q1.3-4.6-1.5-6l-4.5 1-2.5-4q-2.2.8-1.5-1.5l-.5-1.5 1.5-.5-3.5-2.5-2 1-3-5-4.5 1-1.5-4-6-3h-3l-2 3q-3.2-1.7.5-3.5.8-2.6-2.5-1.5l-2-1-3 1q-.8-3.7-6-3l-3 4-1-2 3.5-2.5-6-1.5q1.3 3-2.5 2-1.7-4.7-10-3v1q4.2-1.1 2.5 3l-3-1.5q.8-2.2-1.5-1.5-3.2-3-9.5-2l-.5 2-2-1h-2l-5.5.5 4 3-1.5.5-5-3h-2q-5.9-1.7-4.5 2l3 1.5-2 1-1.5-2.5-2-1-2 1-3-1-2.5 1.5 3 .5-.5 3q-2-5-11-3v1q3.3-1.1 2.5 1.5l-3 1.5-1.5-3-6.5.5 2 1-1 2.5-3-1.5-.5-1.5h-9v1l3.5.5-1 2.5q-2.7 1.1-2-1.5l-2.5-2.5-18-1-3 2-1.5-3-10.5-2-4 1-6.5-1q1.3 3-2.5 2-1-3-6-2l-1.5 3q-3 1-2-2l2-.5-2-1 8-5 1.5-3.5 2.5-1.5 1.5-2.5 3 1 3.5-3.5-2-2 1.5-2.5 2 4 8.5-9.5-3-2q-.7-2.2 1.5-1.5l3.5 2 6-9.5-2-.5q-1.5-3.8 1.5-3 1.3 2.2 2.5-.5-1.5-7 1.5-6.5 2.3-.7 1.5-4.5l-4-2.5 3-4.5V449q6 2.3 4-4.5l-3.5-1.5-3 5-2.5-1q-1.7-4.1 2.5-3l1.5-4 4-1.5-.5-8.5-.5 3q-3.8-.7-5 2.5v2.5l-2 .5v4l-1.5 5.5-2.5-4.5v-3l1-4-2-2V426l-3 1.5q.7 2.6-2 1.5-1.5-3.8 1.5-3 2.8-1.2 1.5-6.5l-2.5-.5q-2.2.8-1.5-1.5l-.5-1.5q3.3 1.1 2.5-1.5l-2-4.5q-3 1.3-2-2.5l-4-2.5 1-4.5-2.5-3.5-2 3-1.5-3q2.7 1.1 2-1.5l-2-3.5-3-1.5-1.5-2.5-2-1-4 3 2.5-3.5-2.5-3.5-6-4H350l-1.5 3-1.5-1.5q3.8-1.7.5-3.5l-3-1-.5 2h-4v-1.5q-.7-2.2-4.5-1.5-2.5 5.5-5 1l-3-1-2.5 1-1 4-3-1.5q.8-2.2-1.5-1.5l-4.5 2.5q.8 2.6-2.5 1.5l-2.5 1q-1.2 4.6 1.5 6l2 1 2-1v2l5.5-1.5-4-1.5q-1.7-5.2 2-4-.7 3.8 2.5 5l9 1 4.5-1q-1.2 3 2.5 2l5.5 3.5-10 1 3 1-2.5 3.5-3-4-4.5 1-1.5 3q-5.5-1-6.5 2.5l3 .5q1.5 4.5-3 3 1.5-3.7-1.5-3l-3.5 5q4.1-1.7 3 2.5l-2 1-2.5-3.5-7.5 9.5 4 3-4 3-1 3.5-3.5-1-1.5 2.5 1 5.5-3 1.5q-.7 3.8 1.5 4.5l2.5 1.5-4 1.5q-2 3-1 10.5l3-2q-.8-3 3-1.5 1.3 3-2.5 2-4.2 1.8-2.5 9.5l2 1 1.5-2.5q3.3-1.1 2.5 1.5l.5 1.5-2-1-2.5 1-1 2.5 1 3.5 3 1.5-1 4 4 8.5q5.2-2.1 4 2.5v2q-.7 2.3 1.5 1.5l2-1 1.5 3.5q-2.7 1.8 1.5 3.5 2.6.7 1.5-2h3q1.5 3.7-1.5 3v1l3 1h4.5q-1.1 2.7 1.5 2l3 1 3-5 1.5 2.5-4 3 5.5.5 4-1q1.5 3.5 3 1l5.5-1-3 6q-5.4-1.5-7 1.5l2 .5q1.1 3.3-3 2v-2h-6l-1.5 4q-2.6-.7-1.5 2l2 .5-4 .5q1.4 4-5.5 2l-2.5 1.5 3 .5-1.5 3-4-3-3.5 2.5q.8 2.3-1.5 1.5l-2.5 1-1 4-3.5-2-9.5 7.5q.8 2.3-1.5 1.5l-2.5 1.5 1-3-1-2.5-3-1.5 1.5-.5 3.5 2-1-7.5q3-1 2-6l-3-1.5q-1.5-3.8 1.5-3 2.8-1.4 1.5-6l-3-1.5 2-4-1-4.5-3-.5v-2l1-4-1.5-3.5-1.5.5 1-4-1.5-4.5-.5 3-3-1.5q-.7-2.2 1.5-1.5 2.3-.7 1.5-4.5-3.5-.5-3-5l1-6.5q-3.3 1.3-2-3.5l1-6.5q-3.7 1.2-2-4 3.7 1.4 2-4.5l-3-1.5q-1.5-3.7 1.5-3l2.5-2.5 1-8-1-4.5h2v-6l-3-1.5 3-1.5.5 3 1.5-4.5h-2l2.5-4.5q2.6.8 1.5-2.5v-2l2-3 1-3-2-3.5 2.5-1 1.5.5v-4l4-5-.5-1.5 2.5-1.5 1-4.5q-4.1 1.3-3-2l5 1 1-4.5-1-3.5 3-1.5 1-3.5q3.8 1 5-1.5l-1-4.5 3-1.5q-1.5-4.4 1.5-3.5l1.5-.5 1.5 3.5 3.5-5q-5.2 2.1-4-2.5l-1.5.5-5.5 2-1-2.5 3-2 1-13.5h2v-6q-3 1-2-2l4 2 1-5q-2.7 1.1-2-1.5 1.3-2.7 2.5-.5l2.5-1.5-1-4 4-3q-1.1-3.3 1.5-2.5l1.5-.5-2 4-1 4 3 1.5 1 3.5-.5 1.5 2-1 2 1 3.5-2.5 1.5-2.5q.8 3.7 6 3l3-4q3.3-1.1 2.5 1.5l1.5-.5 3.5-1.5q.8-2.2-1.5-1.5l-1.5-3q2.7-1.1 2 1.5l3.5 2.5 5.5-1.5-2-.5 1.5-3q1.4 2.6 6 2 .7-3.8 6-3h2l11-5 2 1 5-4h2l4.5-1.5-1.5-2.5 3.5 1.5-3 6 2 .5q1.5 3.8-1.5 3-3 .5-2.5 4.5l3 4.5-3.5-2-.5 6.5 1 2.5q-2.7-1.1-2 1.5l-2 7 2 6-2 .5 1 9.5-1 4 2 5-1 6.5q3.3-1.3 2 3.5l6 4q.8 2.3-1.5 1.5v1l3 1 5.5-3.5 1.5-2.5 3 1 2.5-2.5q-4.2-2.2.5-4.5l.5 3 5-3.5-3-1.5.5-2 4 3 3.5-2.5q-.6-2.7 5.5-1.5l3.5-1q1.1-2.7-1.5-2-3-1.5 0-3l3 4 8-4h2l8.5-4.5q-1.2-3.7 2.5-2.5l2 1 2.5-1-2-4 2.5-1 2 3 4.5-2q-1.1-2.7 1.5-2l2.5-1 1-4q4.6 1.3 6-1.5l-1-3 2-1q-.8 2.6 2.5 1.5l2.5-4q-4.1 1.3-3-2l4.5 2 3.5-2.5.5-2.5 1 1 3.5-3.5q-1.1-3.3 1.5-2.5l6.5-5 .5 7 .5-2q4.5-1.5 3 3l-3 1.5q-.7 3.8 1.5 4.5l2.5 1.5q.7 2.6-2 1.5v4.5l3 1.5-1 5.5 1 3.5 4.5-2-1 2q-3-.9-1.5 3.5l3.5 2.5q.8-3.7 6-3l3 2q4.8-2.5 3-5 3.3 1.1 2.5-1.5l2-3-3-4.5q2.7-1.1 2 1.5l3.5 1.5 7.5-8.5-1-2 1.5.5 2.5-1.5 5-7v-2q-1.2-2.5-5-1.5-1.5-3.7 1.5-3l2.5-1q-2-6 4-4l1.5 3 2.5-4.5-3-.5-1.5-4-3.5 1.5-1 3.5-5 2q1.1 2.7-1.5 2-3.2 1.3-3 6h-2l-2.5 1.5-2.5 3.5q-2.2-.7-1.5 1.5l-1 3.5-3.5-1q-2.5 1.2-1.5 5-2.7 1.1-2-1.5l-3-1.5 2-6.5-1-2.5q-3.3 1.3-2-3.5l2-4q-3.5-.5-3-5 3.3-1.4 2-6.5l-3-1.5 1.5-2.5.5 2q3 1.3 2-2.5l-1-4-2.5-2.5-2.5-.5 2.5-.5 3.5 2 1-4.5q-3-1.2-2-5.5 2.7 1.1 2-1.5l1-2q-1.3-3.5-6-2.5l-.5-2-2.5 4q2.7-1.1 2 1.5l-5 4q1.3 4.2-3.5 2.5-2.8 1.2-.5 2.5l-1.5 3.5-2.5 1.5-1.5 3.5-3.5 2.5-1.5 2.5-2.5 1.5q1.5 4.4-1.5 3.5h-2l-2.5 1.5 1 2-2.5 1.5-1-1-6 6-2.5 1.5 2 3-2.5-1.5h-2l-8.5 6.5q1.1 3.3-1.5 2.5h-2l-2.5 1.5q-.7 2.6 2 1.5v2h-3q1.1-2.7-1.5-2l-4.5 2 1.5 3q2.6-.8 1.5 2.5h-1l-2.5-3.5-5.5 2q1.3 3.3-3.5 2l5.5-6.5-1.5-1.5q-4.8 1.7-3.5-2.5l-1.5-1.5-3.5 3.5 1.5 2.5q4.2-1.1 2.5 3-3.7 1.5-3-1.5l-1-2.5h-2q1.1 2.7-1.5 2l-1.5 3-6 3.5.5 1.5q-4-.5-4.5 2.5 1.4 4.6-4.5 2.5-2.8 1.3-.5 2.5l-1.5 2.5-3-1-2 3q2.6-.7 1.5 2-2.7 1.1-2-1.5l-2.5 1.5q-3 .9-1.5-3.5v-2l1-15.5q-3 1.3-2-2.5 3.8-.8 3-6l-4-3 2.5-.5 2.5 1.5 1-5.5q-3.3 1.1-2-3l4-2.5 3-8-3-.5q-1.7-4.1 2.5-3l1.5.5 1-3-1-3.5 4-2.5q-1.5-4.4 1.5-3.5l6.5-9.5-5-1.5v-4q3.8 1.5 3-1.5l.5-1.5-9.5 4.5q1.3 4.2-3.5 2.5h-2q-3.7-1-2.5 2 3-1 2 2l-2.5 1-.5-3-6 2.5q.8 2.6-2.5 1.5l-2.5 4h-3q1.1-2.7-1.5-2l-4.5 2.5q.8 2.6-2.5 1.5h-2q-8.2 1.3-13 6l-2-1-8.5 3-1 4-4.5-2-4.5 2.5 4 2.5q1 3-2 2l-1.5-3q-4.7-1.2-6 1l-.5-1.5 5-8-1-3.5h4v-5.5l1.5-.5q3.3-1.2 2.5-5h4v-5h1.5l4-5 2-1 2.5 1-1-4 2.5-1 2 2 4-4 4.5-2-1.5-4q-2.2.8-1.5-1.5l3.5 2.5 4.5-1 1-4 3.5 1 3.5-2.5-3-1.5v-4h1.5q3-1.5 0-3H392q1.1 2.7-1.5 2l-2.5-1-1.5-3-2-1q-1.5 2.5-3-1l-4-1-.5 2q-4.3.7-5.5-3h-3l-1.5.5q1.1-3.3-1.5-2.5l-3.5-1 2.5-4 2.5-1.5q-.8-2.6 2.5-1.5l5 1q.5-3.5 5-3l4 1q3.3-3.8 11.5-2-1.1-2.7 1.5-2h2l2.5-1.5q-.8-2.6 2.5-1.5l4 3 2.5-1 1-4 3 1.5.5 1.5h5.5l1-5 2.5-1-.5 1.5 2.5 3.5q3.8.8 4.5-1.5.8-3.7-1.5-4.5l-2-1-2.5 1-1.5-3-3-1-1.5 4q-4.1 1.7-3-2.5-1.4-2.7-6-1.5 1.1-2.7-1.5-2l-4.5-1q1.5 4.5-3 3-1.5-3.7 1.5-3v-1h-7q-1.5-3.2-6.5-2 1.1 3.3-3 2-1.2-3 2.5-2v-1q-5.2 1.3-6.5-1.5l1.5.5 11.5-4.5q-1.2-3.7 2.5-2.5l5 1 4-3 3 1 2.5-1.5-3-.5 1.5-3 3 3h10l1-1h11l6 2 3-2q.8 3.8 6 3l3-4 .5 2.5q-3.7 1.8-.5 3.5l4.5 1q-1.1-3.3 3-2l-1 2.5 7 .5q-1.1 2.7 1.5 2l4.5 1q-1.3-4.1 2-3l-1 5 3.5 1 3.5-1q-1.1 2.7 1.5 2l3 1 1.5-.5 1.5 3.5 9.5 4q1-3.8-1.5-5-5.2 1.5-3.5-3 3.8.8 5-2.5.8-4.7-2.5-5.5-2.2.8-1.5-1.5l-5-4 3-3-1-1-1.5-3.5q-2.2.8-1.5-1.5l-1-3-1.5-3.5-2 3-1.5-3 3-1.5-2.5-4.5q-2.6.8-1.5-2.5l-1-2.5-3-1.5q-.7-2.6 2-1.5l1.5 3 .5-2.5-1-4-2.5-2.5q-2.6.8-1.5-2.5 3.5-1.5 1-3l.5-2.5Zm15.5 42-1 3 2 1-1-4Zm82 12-1 4 2-1-1-3Zm-76 1q-3 1-2 5 1 2 5 1 1-3-2-4 1-3-1-2Zm5 7-1 3h2l-1-3Zm-4 4q-1 2 3 2 1-3-3-2Zm-65 1 2 4 1-2-3-2Zm-2 4-2 2h3l-1-2Zm-20 2-2 2h2v-2Zm-9 1-2 2h2v-2Zm152 1 1 3q2 1 1-2l-2-1Zm23 3-2 2 2 3 2-1 1-2q1-3-3-2Zm7 13-3 3 3 3 2-1 1-2-3-3Zm-185 7-1 1h-2v4l4-2-1-3Zm188 3-5 3 2 3q3 1 4-1 1-4-1-5Zm-9 3-6 1 2 3q3 1 4-1v-3Zm2 3-2 4h6v-2q-1-3-4-2Zm-9 1-3 3 1 2 3-1q3 1 2-2l-3-2Zm25 2-2 2 3 1q2 1 1-1l-2-2Zm9 0q-3 1-2 5l3 1 2-1-1-3-2-2Zm-86 10-1 2 2-1-1-1Zm4 2-2 2q-1 3 2 2v-4Zm-93 3-2 2q-1 4 3 2l1-2q1-3-2-2Zm130 18-3 3 3 3q3-1 2-5l-2-1Zm-4 5-4 5 4 1q2 0 2-4l-2-2Zm-128 3-2 2q-1 4 3 2l1-2q1-3-2-2Zm-4 4-4 4-2 3q-4 1 0 3 3 1 4-1-1-4 2-3 3 0 2-4l-2-2Zm224 0-2 4 4 1 1-2-3-3Zm-188 3-3 4 3-1v-3Zm-5 5q0 3-3 2v2q4 1 3-1 2-2 0-3Zm97 0-3 3 2 3 3-4-2-2Zm-136 3-1 4 2-1-1-3Zm35 2-3 5 4-1-1-4Zm256 2v2l4-1-4-1Zm-370 2-3 3 1 1 4-2-2-2Zm115 0v2q-2 1 1 2l2-3-3-1Zm-7 2v2l-1 2 3-2q1-3-2-2Zm239 2v1h2l-2-1Zm-234 1-3 4q2 3 4-1 1-4-1-3Zm150 2-2 3-2 1-1-3-3 1q-4-1-3 2h-4l-7 3-3 4 4 1-1 3-3-4q-5-1-6 3 1 4-4 2l-1 2q3-1 1 3-4 1-3-1l-4 3h2l-3 8-2 1-2-3-3 4q-1 2 2 1v4l-4 3 1 2h-3q-3 1-2 5 1 2 5 1 2-1 1-5 4 1 5-2-1-4 3-3l2-3q-1-3 3-2l1-4 7-2-2-1v-1q-1-3 2-2l2 3 4-3-2-2q-3-1 0-3 2-1 1 2 1 2 5 1l2-4 4 1 5-3h3l1-3 5 1 6-2h8v-2h4v2q1 2 5 1l2-3-1-3-2-1q-3 1-2-1l-3-3-4 1-1 3 1 2h-2l-1-3 2-1 1-3-4-1-4 3-1-1q-1-3-5-2Zm26 5-1 2h3l-2-2Zm5 3-2 3q2 4 4 1l-2-4Zm172 2 1 2 2-1-3-1Zm-176 2-2 2 3 1q2 1 1-1l-2-2Zm156 0v1h3l-3-1Zm-446 5v1h3l-3-1Zm6 1-1 4 4-2-3-2Zm-10 1v2h3l-3-2Zm18 0 2 3 3-1q-1-3-5-2Zm409 0v1h2l-2-1Zm-435 2-2 2q-1 3 3 1 2-4-1-3Zm32 0-2 4q1 3 5 2l1-2v-2q1-4-4-2Zm164 1-2 2h3l-1-2Zm-157 3-3 3q1 3 5 2l1-3-3-2Zm192 0-2 3 3-1q1-3-1-2Zm345 4q-1 3 2 2 1-3-2-2Zm-586 1-2 3 3-1q1-3-1-2Zm529 3v1h2l-2-1Zm54 0v1h2l-2-1Zm-350 3-2 2h2v-2Zm60 1-4 1-2 3q-3 1-4-2l-3 1-2 3-8 1 1 2q2-1 1 2l-2 1-2-4-3 2-2 3q-4-1-5 3v2h-5q1 4-1 5l-2-1-2 1-1 2q3-1 2 2-2 3-3-1-3-1-2 2l-2 2q4 1 1 3l-2-1-3 2q-1 3 2 2 1 4-1 3-4 1-3 5l-3 1q-2-2-3 1h2l-1 2 1 2-4 1-1 3 1 2h-3l-1 4q-1 4 4 2 2-1 1-4h2l2-1 1 2 1-2-1-5 4-2q-1-4 2-3l2-1-3 8-1 1 3 3q1 2-2 1v-3l-2 5 1 3q1 2-2 1v6h2q1 4-2 3-1 5 2 7v7l5 7q4-1 2 3l-2 1 1 2 3 2q-1-3 3-2l-3 4 4 4q2-1 1 2l10 6q3 1 1-3h2l1 3-2 1 4 2q2 1 1-2 4-2 3 2l8 3 5-1 4 1 6-3h5l-1-1 2-3 3 2 9-6-1-2 5-2 1-3 3-2 1-4q0-3-4-3v-1l6 2 2-4q-2-2 1-3l-2-7 3-1q1-6-3-8 3-1 2-5l-3-2-1-3q1-3-3-2l-1-2 3-2-1-2-3-3-2 3-4-1 4-1 1-3q-1-4-5-3l-2-4-4 2q1 3-2 2l2-6-5-2-1 2q-5 2-4-2l-2-1-2 1-2 3-5-2h-2q-3-1-2 2l-2 1h-2q-7 2-10 8l3 1-1 3-1-1-3-2-1 3q-1 3 2 2h1l-1 3-3-2-2 3 1 2q2 5-2 4-1 6 3 9h-2l1 5q-1 2 2 1-1 4 3 5 4-1 2 4 1 2 6 1l1 3 4 1 4-5q2-1 1 3l4 2 3-2q-1-4 2-3 4-1 3-6l4 1v-3q-2-6 2-5l-1-3q1-4-2-3v-2q-1-3-6-2v-1l-1-3-4 1-2 3q1 2 5 2h1l-1 3-4-3h-3v3l4 6-1 2-3 2q-5 1-5-2-3 1-2-2h-2l-4-5 5-12-2-1 1-3 3 1 3-2q1-3-1-2l-1-2 3 2 3-1q3 1 2-2l8 1 1 1q-1-5 3-3l-1 4 3 1 3-1 1 4v1h4l-1 3 3 4 1-2 2 1q-3 0-3 5l4 2-3 5v3l4 2-1 2-1-1-3-2 1 6q1 3-1 2-4 1-3 6l-5 4q1 2-1 1-4 1-3 5l-3-1-11 3q-8 1-11-2-4-1-3 2l-5-4q-5 1-3-3-1-3-2-1-4 1-3-1l-5-4 2-3-2-3q1-3-2-2 1-6-1-9l-1 3q-4 1-3-2l3-1q1-6-3-7l3-3 1-5-1-7 3-2 3-7q3-2 1-3l2-1 7-9-2-2v-1l3 2 4-2q2 1 1-2l8-1q1-3-3-2v-2l5 3 3-1 1-3 4 2h4l2-3 6 4 2-1 1-2q-1-4 2-3l1 4h-2l-2 3 4 1q4 1 2-3h3q1 4-1 3l1 2q6-1 5 2l6 3q-2 4 3 3 4 2 1 4l3 7 4 2-1 2 1 3 4 1 1 3h-3l1 4v2q3-1 2 2 3 1-1 3-2 5 2 4l1 4h-2l-1 3q-1 4 2 3 2 5-2 4l-1 3 1 2q1 2-2 1v3q-3 1 1 3 1 4-3 2v2l-1 4-3 2q1 4-1 3l-8 10 1 1-3-1q-4 1-3 5l-7 1q-1 3 2 2v3q-4 2-3-3-5-1-7 3l-2-1-15 3-5-1-5 1q-5 1-4-2l-3-1-3 1-1 4h-1l2-6-3-1-6 1-1-3q-5 2-4-2l-2-2h-2l-2-2-4-3-3-5q-3 1-2-1l-1-3q1-3-1-2v2q-4 1-3-2l3-1-2-3q1-3-3-2l1-5-1-4-2 3-4-1 3-1 2-2v-14l1-1q2-6-1-5l-3 4-2 1q-3 1-2-3h-2l-1 4q-1 2 2 1-1 4 3 5 4-1 3 2h-4v-1l-4-2v6h2v3l-3 1-1 4-3-1q-1-4 3-2v-6h-3l-1-2q1-4-4-2-3 1-2 5l5 2 1 3-5 2 1 3 3 1-1 7 3 3-1 1 1 2 4 1-1 5 3 3q2 1 1-2h2l-2 4 1 3 3 1 1 4 3 1q2-1 1 3 1 3 6 2l3 4q3-1 2 2l4 3 1-1q2-1 1 2l5 2 2-4q3-2-1-4-3-1-2 2-4 2-3-3l3-1 6 3q2 1 1-2 3-1 2 2l-2 1 8 1 3-5 1 3h-1l-2 4 5 1 1-3 5 3q3 1 4-1-1-6 3-4 1 4-1 3l-2 3 8-1q3-1 2-6l3 2q1 2-1 1l-2 3 5-2 2 1 2-1 1-2q-1-5 3-3l2 4 2-1q4 1 2-3l5 1 4-2-3-2q-1-4 2-3l3 4 4-2q-1-4 3-3l4-6v-2h2q-1-3 2-2 3-1 2-5 3-1 5 2l3-2-2-3q2-4 4 0l1-1q-1-3 2-2 1-3-2-2-2-4 2-3l2-4 3-2 1-2-1-2q-1-3 2-2l1-3q1-4-2-3-1-4 3-5l-1-3 2-1-1-6 1-4-1-7v-7q-3 1-2-4v-2q1-5-1-4v-1l-1-4-4-1q-1-4 2-3l-2-5-3 2h-2l3-2-1-4v-2h-4v-2l-5-3 1-2-7-2q-2-4 3-3l1-1-4-5-2 4-2-1 2-3-3-4-2 2q1 2-2 1l2-3-3-2q-2-3-3 1-3 1-2-1l-2-3q-5 1-6-2h-4q2 5-3 3l-2-4q-4-1-5 2 1 4-3 2l2-3-3-1Zm89 1q-2 3 1 2l-1-2Zm-5 2-2 2 1 2q-1 4 4 2 2-1 1-4t-4-2Zm-387 1v2l2-1-2-1Zm91 2q-3 4 1 3l-1-3Zm448 2 2 3 1-1-3-2Zm5 3v3h3l-3-3Zm-308 1q-3 1-2 5 1 2 5 1 2-1 1-4t-4-2Zm305 4v1h2l-2-1Zm-309 2v3q2 3 3 0 1-5-3-3Zm116 0q-1 3 2 2 1-3-2-2Zm145 1-2 2h2v-2Zm-491 3q-4 1-3 6l-3 2q-2 4 3 3l2-4 4-1 1-3q0-3-4-3Zm-9 11 2 5 1-3-3-2Zm254 3-3 5 4-2-1-3Zm51 3q0 4 2 1l-2-1Zm-68 3-2 2q-1 2 2 1v-3Zm288 1q-3 4 1 3l1 1-2-4Zm-292 4-3 4 4 2q2-1 1-4l-2-2Zm-138 3-2 2 2 2q3 1 2-2l-2-2Zm133 2-1 3q-2 4 3 3 2-1 1-4l-3-2Zm-223 1-3 5 4-2-1-3Zm88 1q-3 6 1 5 1-4-1-5Zm140 3-3 3 1 2-1-1-2 1-2 4q1 3 5 2l1-2v-2l2-5q1-3-1-2Zm-139 2-1 10q3 1 2-1v-2l3-1q2-1 1-4t-5-2Zm154 1-2 4 3 1 1-3q1-3-2-2Zm-7 2-2 4q3 1 2-1 2-2 0-3Zm3 3-3 1-1 3q1 2-1 1-3 1-2 6l5 1 2-3q-1-3 2-2 2-1 1-6l-3-1Zm225 1q-1 3 2 2 1-3-2-2Zm-245 2-1 3q-1 3 3 2l1-3-3-2Zm6 3-3 3q0 3 3 4l2-1v-6h-2Zm235 1-1 3 2 1-1-4Zm-364 3-1 3h1v-3Zm124 2-2 2v4h5l2 4h2v-6l-2 1h-2l1-2q0-3-4-3Zm-125 11-3 1q-1 4 2 5l1-4v-2Zm213 2v2l2-1-2-1Zm-89 3q-2 3 1 2l-1-2Zm51 2q-2 3 1 2l-1-2Zm26 0-1 2h3l-2-2Zm195 6v1h3l-3-1Zm-398 34v2l2-1-2-1Zm-73 9-2 2 4 2q2 1 1-2l-3-2Zm295 3-1 2 2-1-1-1Zm-46 2 2 3h2l-4-3Zm-4 3 2 3q3 1 2-1l-4-2Zm73 9v2l-5-1-3 1q-3-1-2 2h-2q-4 1-3 5-4 2-3-3l-4 2q-3-1-2 2l4 1q2 5-2 4l-1-4-3-1-4 5-2 1-2 1v5l-4 2 2 3 3-1 1-3 4-1 1-4q4-1 3 2l4-1q3 1 2-2l9-1-1-2q-3 1-2-2l3 2q-1 3 5 1l1-3q3-1 5 2h4l1-3q4-1 3 2l5 1q3-1 2-5 3-1 2 2 1 3 5 2l3 4q3 1 4-1 1-4-1-5h-3v-6q-5 1-7-1 1-3-1-2h-2q-3 1-2-2l-6 1-9-1Zm-102 5 2 3h1l-3-3Zm-227 3-2 3 2-1v-2Zm360 1 2 3 1-1-3-2Zm-146 1 2 2h1l-3-2Zm134 2-3 2 5 1-2-3Zm14 4-2 3 5 3 1-4q-1-3-4-2Zm4 5q-1 3 3 2 1-3-3-2Zm-123 6 2 4h2l-1-2-3-2Zm46 0-2 2 1 2 3-2q1-3-2-2Zm-49 4 3 5q2 1 1-1v-4h-4Zm93 0q-1 3 3 2 1-3-3-2Zm-86 5-2 3 2-1v-2Zm113 14q-3 1-2 5 1 2 5 1l-1-2q2-5-2-4Zm-5 5-2 2 2 3q-1 2 3 1 2-1 1-4t-4-2Zm5 6v4l3-1q1-5-3-3Zm-220 39 1 2q1-3-1-2Zm245 7q-5 2-2 4-1 2 2 1 1 2 2 0l-1-2q1-4-1-3Zm-4 5-2 4q-2 1 1 2l2-1q3 1 1-3l-2-2Zm-283 17-1 2 2 1-1-3Zm277 5-2 2q-1 2 2 1v-3Z"/><path fill="#FFF" stroke="#FFF" d="M488 149q3-1 2 2-3 1-2-2ZM503.5 150q3.8-1 2.5 2l-2.5-2ZM493.5 153l.5 1.5-2 1 1.5-2.5ZM713 157q3-1 2 2-3 1-2-2ZM515.5 159l.5 2-2-.5 1.5-1.5ZM566 161q3-1 2 2-3 1-2-2ZM284 166q3-1 2 2-3 1-2-2ZM704.5 167l2.5 1q1.1 2.7-1.5 2l-1-3ZM715 168l3.5 1 2-1 3.5 2q-1-3 2-2v2q-2.7-1.1-2 1.5l6.5 9.5q2.3-.7 1.5 1.5-3.5.5-3 5 3.8.7 3 6l-1 5.5q3.3-1.3 2 3.5-2.8.7-2 5l3 4-5 8 .5 1.5-2.5-1 1 2.5-4 .5-2.5-4-2.5.5 3 6 1 17v2q.5 4.5-3 5v3l4 3-1.5.5-4-3-6.5 10.5 3 1.5q1 3-2 2 1.1-2.7-1.5-2-3 .5-2.5 4.5l1 2-2.5-1.5-4.5-2.5q1.1-3.3-1.5-2.5l-2-1q-2.5 1-1.5 5.5l3 1.5-1.5 3-.5-2q-3.5-1.1-2 6.5l4 2.5q1 3-2 2l-1.5-3-2.5 1.5-6 8.5-3-1.5-1.5-2.5H680v6l4 1.5-4 1.5-.5-2-1.5 2.5 2 1-1 2.5-3.5-1-2 1-2-1q-1.7 3.8-3.5.5l3-2-6-8.5q-4.5 1.8-3-3.5l-5-2.5-2.5-4-2.5-1.5 2-4-6.5-8.5q-3.3 1.1-2.5-1.5-1.2-3.2-5-2.5.8-3.8-2.5-5-3.7 1.3-2.5-2.5l-1-2.5h-5v-2.5l4-3q-.8-2.6 2.5-1.5l2.5-4 3.5 1 8-3 2 1 3.5-1v-2h-3q1.1-2.7-1.5-2l1-2 4.5-3.5q-.8-2.6 2.5-1.5l2.5-4 4-2.5q-1.1-3.3 1.5-2.5l1.5-.5q-.7 2.3 1.5 1.5l2.5-4-2-.5 2.5-1.5q2.5 4.5 5-1l3-2q3-.5 2.5-4.5l-4-3 1.5-.5q.5 3.5 5 3l2.5-1q-2.2-5.6 3.5-4l3-5 2.5-1.5q-1.7-4.8 2.5-3.5 3.3-1.2 2.5-5l4-2.5q-1.7-4.8 2.5-3.5 3.3-1.2 2.5-5l4-2.5V168Zm13 13v2l2 1q1-4-2-3Zm-12 26-2 2q2 3 3 0t-1-2Zm3 2-2 2q-1 3 2 4 4 1 4-2l-4-4Zm13 1-2 3h2v-3Zm-9 5q-1 4 2 5t2-2l-4-3Zm-63 17-3 2h3v-2Zm35 20 1 4 1-2-2-2Zm3 3q-3 1-2 5 1 2 5 1 2-1 1-4t-4-2Zm7 5-3 4 3 1 1 1-1-6Zm-25 10q0 4 2 1l-2-1Zm-24 6q-2 3 1 2l-1-2Zm26 0-2 2q-2 6 4 4l2 4 2-1-1-4h-3l1-2-3-3ZM279 172l3 1.5q-.7 2.3 1.5 1.5l2.5 1q-.9 4.7 1.5 7l1-3 3.5 1.5-4 3 3.5 4.5 2.5-4q4.1-1.3 3 2-3.7-1.5-3 1.5l-1 3 4 2.5 3.5 5q2.3-.7 1.5 1.5-4 2 0 4l1.5 2.5q2.6-.8 1.5 2.5 1.2 3.3 5 2.5-1 4.7 2.5 6 2.3-.7 1.5 1.5 1.3 3.5 6 2.5l1 4 4 1 2.5 4q3.3-1.1 2.5 1.5l1 2.5q3.8-1 5 1.5l1.5 2.5 2.5 1.5-2 5.5 6 1q-1.1-3.3 3-2l1.5 3q4.4-1.5 3.5 1.5l7 5-6 4q.8 2.6-2.5 1.5l-4 6-2.5 1.5-1.5 2.5-3-1-2.5 3.5 1.5 2.5-2 1-.5-2-4 2.5q-.7 2.6 2 1.5v2l-3.5-2-2.5 4.5 1 2-1.5 1.5q-1.7-3.7-3.5-.5l-1 3.5q3-1 2 2l-3.5-2-2.5 3.5q3.5 1.5 1 3 .8 2.3-1.5 1.5l-2.5-1-1 2.5 2 .5-1.5 4-.5-2q-2.7-1.1-2 1.5l-1 3-.5 1.5-.5-4q-3.8 1-5-1.5l-1-5.5q-2.7-1.1-2 1.5l-2 1q-1.1-3.3 1.5-2.5 2.3-.7 1.5-4.5l-3.5-2.5-2.5 1-1.5 3q-2.6.8-1.5-2.5l-2.5-3.5-.5 3q-3 1.3-2-2.5l1-2-2.5-3.5-3 2 2.5-3.5-2.5-4.5q-3 .7-1.5-3 2.7 1.1 2-1.5l3-9.5-4 2.5.5 1.5-3 1-2-4q-2.2-.7-1.5 1.5l-2 1-2-7.5-3-1.5 1-3-3.5-9.5-2.5-1.5 1.5-2.5.5 3q2.7 1.1 2-1.5-2.5-1.5-1-7l2-4-2-4q4-1.4 3-6.5 3.8 1.5 3-1.5l1-3-3.5-1.5q-3.7 2-2 4l-4 2-.5-5q-3.3 1.3-2-3.5h1l.5 1.5.5-6.5-3-4.5q2.7-1.1 2 1.5l2 1-1-7q3.7-.7 3-6l-3-1.5q-1.1-2.7 1.5-2l2.5 1v-7.5l2-.5v-1.5l1-3.5 5-2v-2Zm-1 38-2 2 2 2 2-1q1-4-2-3Zm57 29v4h2q2-1 0-2 1-3-2-2Zm-42 8-4 3 3 3 3-2-2-4Zm-6 5-3 3q1 3-2 2l-1 4q-2 1 1 2t4-1q-2-5 3-4 2-1 1-4l-3-2Zm16 24-2 2 1 2h-3q-3 1-2 5 1 2 5 1l3-7q1-4-2-3Zm-6 9-1 6 2-1q1-4-1-5Zm7 1-2 3 2 1v-4ZM702.5 173l.5 3q-2.7 1.1-2-1.5l1.5-1.5ZM265.5 178l1.5.5-2.5 1.5 1-2ZM536 178q3-1 2 2-3 1-2-2ZM443.5 180l.5 2-2-.5 1.5-1.5ZM260 182l3 .5-3 1.5v-2Z"/><path fill="#FFF" stroke="#FFF" d="m693.5 184 .5 2.5-2-1 1.5-1.5ZM428.5 188l1.5 3q-3.7 1.5-3-1.5l1.5-1.5ZM418 189l3 1.5-.5 1.5-2.5-1v-2ZM688.5 189l.5 2.5-2-1 1.5-1.5ZM743.5 189l.5 2-2-.5 1.5-1.5ZM378 191q3-1 2 2-3 1-2-2ZM541.5 193l1.5.5-2.5 1.5 1-2ZM684 194q3-1 2 2-3 1-2-2ZM386.5 196l1.5 2.5-2 .5.5-3ZM743 199q3-1 2 2-3 1-2-2ZM487 203l3 1.5-3 .5v-2ZM306 204q3-1 2 2-3 1-2-2ZM664.5 205q2.3-.7 1.5 1.5l-1.5-1.5ZM311 209l2 .5-2 1V209ZM391.5 210q2.3-.7 1.5 1.5l-1.5-1.5ZM608.5 211l.5 2-3-.5 2.5-1.5ZM317 212q3-1 2 2-3 1-2-2ZM552.5 212l2.5.5-2.5.5v-1ZM576 214l2 .5-2 1V214ZM322.5 217q2.3-.7 1.5 1.5l-1.5-1.5ZM645.5 217q2.3-.7 1.5 1.5l-1.5-1.5ZM655 217q3-1 2 2-3 1-2-2ZM329.5 220l.5 2-2-.5 1.5-1.5ZM652.5 222l1 2q-2.8.7-1-2ZM741.5 224l.5 2-2-.5 1.5-1.5ZM612.5 225q2.3-.7 1.5 1.5l-1.5-1.5ZM333.5 226q2.3-.7 1.5 1.5l-1.5-1.5ZM725.5 230q3 1.5 0 3-2.2.8-1.5-1.5l1.5-1.5ZM266 232q3-1 2 2-3 1-2-2ZM599 232q3-1 2 2-3 1-2-2ZM644.5 233l.5 2-2-.5 1.5-1.5ZM607.5 239l1.5 2.5-2-1 .5-1.5ZM268 250q3-1 2 2-3 1-2-2ZM625 254q3-1 2 2-3 1-2-2ZM629.5 258q3.8-1 2.5 2l-2.5-2ZM718 260q3-1 2 2-3 1-2-2ZM376 262q3-1 2 2-3 1-2-2ZM635 263l2 .5-2 1V263ZM273 264q3-1 2 2-3 1-2-2ZM268 271l2 .5-2 1V271ZM641.5 277l1 2q-2.8.7-1-2ZM423.5 280l.5 4q-4.5 1.5-3-3l2.5-1ZM646 282l2 .5-2 1V282ZM273 285q3-1 2 2-3 1-2-2ZM696.5 286l.5 2-2-.5 1.5-1.5ZM657.5 290l2.5.5-2.5.5v-1ZM702 292q3-1 2 2-3 1-2-2ZM382 294q4.1-1.3 3 2-4.1 1.3-3-2ZM664.5 294l.5 2-2-.5 1.5-1.5ZM815 295q3-1 2 2-3 1-2-2ZM390.5 299l.5 2.5h-1l.5-2.5ZM657 301l2 .5-2 1V301ZM402 303l2 .5-2 1V303ZM693.5 303q2.3-.7 1.5 1.5l-1.5-1.5ZM800 303l3 1.5-3 .5v-2ZM375.5 305l.5 2.5h-1l.5-2.5ZM411.5 307l.5 2-2-.5 1.5-1.5ZM163.5 308q2.3-.7 1.5 1.5l-1.5-1.5ZM217.5 309q2.3 2.7 8 2l4-2q.5 3.5 5 3l4-3 3 3 9.5 2 .5-3 2.5 1q1.1 2.7-1.5 2l1 2h6l5 3 1.5-.5q-.7 2.3 1.5 1.5l3 2 3-2 1 2-1.5.5q5.4-.9 7 2-.7 2.3 1.5 1.5l4.5 1q-1.1 2.7 1.5 2l4.5 1q-1.1-2.7 1.5-2l5.5 4-2 6.5 3 1.5-1.5 3q-2.2.8-1.5-1.5h-1l1 4-1 2 .5 1.5-3.5 2.5q-.7 3.8 1.5 4.5 2.6-.7 1.5 2l-3 1.5-1 4.5-3 1.5v3q-3.6 1.9-3 6.5 3-1 2 2-2.7 1.1-2-1.5l-2.5 1.5-3-3-5.5-2q1 3-2 2l1-3.5-3.5-2.5-2 2-4-4q-3.3 1.1-2.5-1.5l-1-2.5-5-1q1.1-2.7-1.5-2l-3-1-1.5 3q-2.7 1.1-2-1.5l2-3.5-5.5-1-3 1-3-3-8-2-1.5 3-3-1.5q1.3-4.6-4.5-2.5-1.5 2.5-3-1l-8 1-6.5-1q1.1 3.3-3 2l-.5-2-5.5 1q1.3 3-2.5 2l-6.5-1q1.3 3.3-3.5 2l-2-1-4.5 1.5 3 1.5q1 3-2 2 1.1-2.7-1.5-2l-3-1h-2l-2.5 1.5 2 .5q1.1 2.7-1.5 2l-1.5.5-1.5-3.5-4.5 1q1.5 3.7-1.5 3l-2.5 1q1.1-2.7-1.5-2l-10 7H143q1.1-2.7-1.5-2l-8 5-2.5-1 1 4-5.5-2-3.5 1-1.5 3h-5l-7.5 3q2.2 5.6-3.5 4v-2l-5.5 2.5 4 1.5v4h-1.5l-1.5 3q4.5-1.7 12.5-1l2-2 2 1 2-1h2l2.5-.5-3-1.5q-1.3-4.1 2-3l2.5 4q3.8.8 4.5-1.5l1.5-2.5 4 3h3l1.5-3 8.5 1 4-2 6.5 1q-1.3-3.3 3.5-2l6.5 1q-1.3-3.3 3.5-2 .8 2.8 5 2l3-1-1 2-6.5 3q1.9 5.6-3 4l-.5-2-4.5 2 2 5q-2.7 1.1-2-1.5l-2.5-1.5-6 5q-3.7-.7-4.5 1.5l2 .5 1 3.5-5 3q-.9 3.4 4.5 1.5l1.5-3 2.5 1 1.5-.5q-.8 2.6 2.5 1.5l3.5-1.5-4-3 .5-2.5 4 5 9.5-.5-4-3 1.5-.5 5 3h2q4.8 1.3 3.5-2-3 1-2-2l5.5 3 2-1 4 1 5.5-1 1-4q3-1 2 2-3-1-2 2l8.5-1q1.3 2.2 6 1l2.5-1q1.1 2.7-1.5 2l-2.5 4-4 2.5q1.1 3.3-1.5 2.5l-2 1-2-1-1.5 3 2 .5-3 2q.8-2.6-2.5-1.5l-7.5 6.5v2.5h-4v1.5l-1 2q.5 3 4.5 2.5 2.5-1.2 1.5-5l2.5 1 1.5-.5q-1.8 5.7 4.5 3.5l1.5-3 8.5 1 1.5-3 6.5 1 2.5-1.5-3-1.5q-1.1-2.7 1.5-2 .5 3.5 5 3l4.5-1.5-2-.5q-1.1-3.3 3-2-1.1 2.7 1.5 2l1.5 2.5-1.5-.5-2.5 1.5q1.3 6.1-1.5 5.5-2.5 1.2-1.5 5l-3.5 1-.5-2-3 1.5q-.7 2.6 2 1.5v2.5q.5 3 4.5 2.5l2.5-4 5-1v-5h1.5l2.5-4q3.7-1.5 3 1.5 1.3 2.8 2.5.5l3.5-1q-1.1-3.3 3-2l-3 6.5q1.2 2.5 5 1.5v4h1.5l4.5-2-1.5-3q-4.4 1.5-3.5-1.5l3-1.5 2.5 4q5 .5 5.5-3.5-.7-2.2 1.5-1.5h2q3-.9 1.5 3.5l1 2q-3 1-2 6 5.3 2.3 1.5 4.5-2.2.8-1.5-1.5h-1q1.8 6.7-1.5 8.5l-2.5 1.5q.9 3.4-4.5 1.5l-3.5 1.5 3 1.5q1.1 3.3-3 2l-1.5-3-6 4h-5l-7.5 3.5q1.3 3.8-2.5 2.5-.7-2.8-5-2l-2.5 1q1.3 3-2.5 2l-5-1q-.8 2.7-5 2l-2-1-8 2-5-1-5 1-5-1-4 2q-1.4-3.2-6.5-2l-1.5 3q-2.2.8-1.5-1.5l-.5-1.5 3.5-.5-9-.5q1.3-3.3-3.5-2-1.2-2.3-2.5.5.8 2.3-1.5 1.5-2.7-1.2-.5-2.5.8-2.6-2.5-1.5h-2l-2 1-.5-3-11-4q1.1 3.3-3 2l1-4h-5.5l-.5-1.5q-.7-3.2-5.5-2.5l-1.5.5v-2q.8-2.2-1.5-1.5l-3.5-1-1.5-3-3-1-1.5 3q-3 1-2-2 3 1.3 2-2.5l-9.5-6.5-2 3q-3.8-2.3 1.5-4.5l-7.5-7.5q-3.7 1.3-2.5-2.5-1.2-3.2-5-2.5.8-3.8-2.5-5-3.7 1.3-2.5-2.5l-1-2.5h-4v-3.5l-1.5-3.5-.5 2q-4.1 1.3-3-2 3 1.3 2-2.5l-3.5-2.5-3 2 2.5-3.5-1-1-2.5-3.5q-2.6.8-1.5-2.5-1.3-3.5-6-2.5l-1.5-4H58v-5.5l-2-3 1-3.5 4-1 1.5-3 3 1 3.5-1q-1.3-3.7 4.5-2l3.5-1.5-2-.5q-1.5-4.5 3-3l1.5 3 4.5-1q-1.7-4.5 3.5-3h2l3.5-1.5-2-.5.5-3 2 3q4.5 1 5.5-1.5l1.5-2.5q1.5 3.5 3 1l3.5-1.5-2.5-3.5q1.4 2.6 6 2l2.5-4 8-1q1.1-2.7-1.5-2l-1-2 2-1 2 4 8.5-5 1-4 4.5 1 3.5-2.5-3-2 3-1.5q-1.3 3.3 3.5 2l2.5-4 7-1-.5-2-2.5 1 1.5-3q2.6-.7 1.5 2h3.5l2.5-1q-1.3-3.3 3.5-2l3.5-1.5-1-3.5h3q-1.1 2.7 1.5 2l9.5-5.5 1.5-2.5 4 3 6-4q1.5 3.5 3 1h3q-1-3 4-2l6.5 1q-1.3-3.3 3.5-2l5 1 2-2Zm19.5 2v2h3l-3-2Zm57 20v1h2l-2-1Zm-1 24-2 5 3-2-1-3ZM98 381l-2 1-2 3q1 3 6 2 2-1 1-4l-3-2Zm33 3v1h2l-2-1Zm-37 3-2 2 3 1q2 1 1-2l-2-1Zm56 10-2 1q-5 2-1 4 3 1 4-1 1-5-1-4Zm-7 5 2 4 1-2-3-2Zm96 26-2 3 3-1q1-3-1-2Zm6 4-4 4q1 3-1 2l-2 3 4 1q2-1 0-2l4-1q2-1 1-6l-2-1Zm-28 4-3 4 3-1v-3Zm3 4-2 2 1 1 4-2-3-1ZM497.5 309q2.3-.7 1.5 1.5l-1.5-1.5ZM724.5 309l.5 2.5h-1l.5-2.5ZM693.5 311q2.3-.7 1.5 1.5l-1.5-1.5ZM330 313q3-1 2 2-3 1-2-2ZM881.5 313q2.6-.7 1.5 2l-3-.5 1.5-1.5ZM483.5 314l.5 2-2-.5 1.5-1.5ZM855 314l2 .5-2 1V314ZM870.5 315l.5 2.5h-1l.5-2.5Z"/><path fill="#FFF" stroke="#FFF" d="m267 316 2 .5-2 1V316ZM541.5 318l2 1 1.5-.5-1.5 3.5q-2.2.8-1.5-1.5l-.5-2.5ZM282.5 319l1 2q-2.8.7-1-2ZM156.5 320l1 2q-2.8.7-1-2ZM489 320q3-1 2 2-3 1-2-2ZM901.5 322l1.5 2.5-2 .5.5-3ZM287.5 323l.5 1.5-2 1 1.5-2.5ZM890.5 323l1.5 2.5-2-1 .5-1.5ZM538 325l3 1.5-.5 1.5-2.5-1v-2ZM915.5 325q2.6-.8 1.5 2.5h-1l-.5-2.5ZM905.5 327l.5 2.5h-1l.5-2.5ZM533 330q3.3-1.1 2 3-3.3 1.1-2-3ZM470 331q3-1 2 2-3 1-2-2ZM395 332q2.7-1.1 2 1.5l-2 1V332ZM921.5 332l1 2q-2.8.7-1-2ZM584.5 334l.5 3q-4.1 1.3-3-2l2.5-1ZM593.5 334l.5 2.5h-1l.5-2.5ZM946.5 334l1 2q-2.8.7-1-2ZM466.5 336l.5 2.5h-1l.5-2.5ZM112.5 337l.5 2.5h-1l.5-2.5ZM123.5 337l.5 2.5h-1l.5-2.5ZM952.5 337l.5 2-3-.5 2.5-1.5ZM435 338l3 .5-3 1.5v-2ZM310 340q3.3-1.1 2 3-3.3 1.1-2-3ZM588 340q2.7-1.1 2 1.5l.5 1.5q-4.2 1.1-2.5-3ZM525.5 342q2.3-.7 1.5 1.5l-1.5-1.5ZM98 343l2 .5-2 1V343ZM431.5 343q2.3-.7 1.5 1.5l-1.5-1.5ZM855.5 345l.5 2.5-2-1 1.5-1.5ZM447.5 348l1.5 3q-3.5 1.1-1.5-3ZM953.5 348l.5 2-2-.5 1.5-1.5ZM854 358q3-1 2 2-3 1-2-2ZM941.5 358l2.5.5q-2.1 3.3-2.5-.5ZM825 359l3 1.5-3 .5v-2ZM66.5 361l1.5 2.5-2 .5.5-3ZM55.5 362q2.3-.7 1.5 1.5l-2 1 .5-2.5ZM52 367q3-1 2 2-3 1-2-2ZM625 370q3.7-1.2 2 4-3.7 1.2-2-4ZM832.5 372l1.5 3.5-2-1 .5-2.5ZM46 373q4.1-1.3 3 2-4.1 1.3-3-2ZM117.5 375l.5 4q-2.7 1.1-2-1.5l-.5-1.5 2-1ZM278 376q3-1 2 2-3 1-2-2ZM630 376l3 1.5-2 .5 1 2.5-1 2.5h-5.5q-1.4-3.2-6.5-2 1.5 3.8-1.5 3l-1-2 2.5-1.5-4-1 8.5-2.5 6.5 2v-3ZM52 377q4.1-1.3 3 2-4.1 1.3-3-2ZM581.5 379q2.3-.7 1.5 1.5l-1.5-1.5ZM110.5 381q3.8-1.2 2.5 2.5l.5 1.5q-3.7 1.3-2.5-2.5l-.5-1.5ZM295.5 381l.5 2-2-.5 1.5-1.5ZM327.5 383l1.5 2.5-2 .5.5-3ZM788.5 383l2.5 1.5-1.5-.5-1-1ZM631.5 385l.5 2.5h-1l.5-2.5ZM931 385l2 .5-2 1V385ZM52 387q4.1-1.3 3 2l-2.5 1-.5-3ZM58.5 392q3.8-1 2.5 2l-2.5-2ZM363.5 394q2.3-.7 1.5 1.5l-1.5-1.5ZM63 395l3 .5-3 1.5v-2ZM794.5 395l2.5.5-2.5.5v-1ZM922.5 395l1 2q-2.8.7-1-2ZM191 396q3-1 2 2-3 1-2-2ZM339 401q2.7-1.1 2 1.5l2.5 2.5h4l5 2 2-1q1.2 3.8 5.5 3l1 5h4v1.5l.5 1.5-1.5.5 2.5 4.5 1.5-3q3-1 2 2-2.7-1.1-2 1.5v2q-1.1 3.3 1.5 2.5l1.5 2.5-3 5 4 2.5q1.1 2.7-1.5 2-1.8-3.7-3.5-.5l-1 3 1 3h-1l-.5-2.5-3.5 4.5 2 .5-1.5 3-2-3h-7l-.5-1.5 3-1.5q-1.1-2.7 1.5-2 3-.5 2.5-4.5l-4-2 4-1.5.5 2 1.5-4-2-.5v-2l-1.5-2.5-3.5-2.5 3-2-2.5-3.5q-3.3-1.1-2.5 1.5l-2 1-1-2 3-2-4.5-2.5-4 1-5-1-1.5 3q-5.5-1.1-8 1.5l2 .5-1.5 4-2.5 1.5-1.5 2.5-3-1-2.5 3.5 2 3-4 4-1 8 2 4q-3.5 1.5-1 3v3.5q3-1.2 2 2.5l4 2.5 1 2.5-2 .5q-.7 3.8 2.5 5l2-3 2.5 1q1.1 2.7-1.5 2l-1.5 2.5 4.5 3.5 1.5-4q3.8-1.5 3 1.5 1.2 3.3 5 2.5v3q-2.7-1.1-2 1.5l2.5.5 5-1q1.7 3.5 7.5 2-1.2-3 2.5-2l3 2 5-3q2.3-.7 1.5 1.5l-4 5.5-5 2.5q.8 2.3-1.5 1.5l-2 1-5-1-3 2-.5-2-10 1v-2h-6l-1.5 4-1.5-3 3-1.5-1.5-2.5-8-5-1.5 3-3-1.5 3-2v-2l-5.5-7.5q-3.3 1.1-2.5-1.5l-.5-1.5q3 .9 1.5-3.5l-1-2.5-2-.5 1-2-1-2 1-2-1.5-2.5-1.5 3-4-1.5 5-1.5 1-9.5-1-4 3-5-4-2.5q-1.2-3 2.5-2l2.5 1 1-3.5-1-3.5 3-1.5 1-3.5 4-2.5V413q3.7 1.5 3-1.5l1-3.5 2.5-1 1 3 4.5-2-1.5-3-1.5-.5 1.5-2.5 3 4q4.8.8 5.5-2.5V401Zm-11 21-3 3h3l1-2-1-1Zm6 52v3l3 1q3 1 2-2t-5-2Z"/><path fill="#FFF" stroke="#FFF" d="m349.5 401 .5 1.5-2 1 1.5-2.5ZM285 402l3 1.5-3 .5v-2ZM570.5 406q2.3-.7 1.5 1.5l-1.5-1.5ZM647.5 409l1 2q-2.8.7-1-2ZM910.5 410l.5 2.5-2-1 1.5-1.5ZM376.5 412l.5 2-2-.5 1.5-1.5ZM564 412l3 .5-2.5 1.5-.5-2ZM310 413l3 .5-3 1.5v-2ZM589 413q2.7-1.1 2 1.5l-2 1V413ZM76.5 414l.5 2-2-.5 1.5-1.5ZM625.5 415q3-.8 1.5 3-3.7 1.5-3-1.5l1.5-1.5ZM560.5 416l2.5.5-2.5.5v-1ZM670.5 416l1.5 2.5-3 .5 1.5-3ZM904 417q3-1 2 2-3 1-2-2ZM197.5 418q2.6-.8 1.5 2.5l.5 1.5-2.5-.5 1-2-.5-1.5ZM80 419l2 .5-2 1V419ZM340.5 420l.5 3.5h-1l.5-3.5ZM901.5 421l.5 2.5-2-1 1.5-1.5ZM338.5 425l.5 4 6-1q-1.1-3.3 3-2l2.5 4q2.3-.7 1.5 1.5l-2.5 5.5q-7-1.5-6.5 1.5l1 3-3 1.5-1 4.5q1.2 3.3 5 2.5l1.5 4 3.5 1.5-1 3 12.5 1.5 5.5-3.5q-1.1-4.2 3-2.5l.5 2 3.5-2.5v5l-4 5.5-4 2.5q1.1 4.2-3 2.5 1.1-2.7-1.5-2l-4.5 1q1.3 3-2.5 2l-6.5-2v4h-1.5l-1.5-3.5.5-1.5-3-1-3.5 1-1.5-4q-3.3 1.1-2.5-1.5v-2l-1-4.5-4.5 2 1-2q2.3.8 1.5-1.5v-2q1.1-3.3-1.5-2.5l-1.5-2.5q3.5-.5 3-5-2.5-1.5 1-3l1-3-3-1 1-2.5 3.5 1 2.5-3.5-2-3.5 2.5-1ZM563.5 426q2.6-.8 1.5 2.5l-1.5-.5-1.5-.5 1.5-1.5ZM91.5 427l2.5.5q-2.1 3.3-2.5-.5ZM724.5 427l1 2q-2.8.7-1-2ZM588.5 429l.5 2-2.5 1-.5-2 2.5-1ZM880.5 432q2.3-.7 1.5 1.5l-1.5-1.5ZM584.5 433l-1 2-2.5-.5 3.5-1.5ZM301 434l3 .5-2.5 1.5-.5-2ZM637.5 434q2.6-.7 1.5 2l-3-.5 1.5-1.5ZM382.5 436l1 2q-2.8.7-1-2Z"/><path fill="#FFF" stroke="#FFF" d="M327 437q4.1-1.3 3 2-4.1 1.3-3-2ZM887.5 437l1 2q-2.8.7-1-2ZM91.5 438l1 2q-2.8.7-1-2ZM351.5 439q3.3-1.1 2.5 1.5l.5 1.5q-4-.5-4.5 2.5.7 3-3 1.5-1.2-3 2.5-2l2.5-3.5-.5-1.5ZM612.5 441q2.6-.7 1.5 2l-3-.5 1.5-1.5ZM303 444l3 .5-2.5 1.5-.5-2ZM581 444l3 .5-3 1.5v-2ZM606.5 446l2.5.5q-2.1 3.3-2.5-.5ZM672.5 446q2.3-.7 1.5 1.5l-1.5-1.5ZM102.5 447l1 2q-2.8.7-1-2ZM354.5 448l.5 3q-2.7 1.1-2-1.5l1.5-1.5ZM588 448q4.1-1.3 3 2-4.1 1.3-3-2ZM592.5 451l2.5 1.5-1.5 2.5-1-4ZM322 452l3 .5-2.5 1.5-.5-2ZM357 452q3.7-1.2 2 4-3.7 1.2-2-4ZM603.5 452l.5 2.5h-1l.5-2.5ZM852.5 453l1 2q-2.8.7-1-2ZM563.5 455l2.5.5-2.5.5v-1ZM112 456q3-1 2 2-3 1-2-2ZM656.5 461q3 1.5 0 3v-3ZM143.5 462q2.3-.7 1.5 1.5l-1.5-1.5ZM242.5 462l.5 3-3-1.5 2.5-1.5ZM668.5 462l2.5 1.5-1.5-.5-1-1ZM748.5 462l-.5 1.5-.5 1.5-.5-1.5 1.5-1.5ZM304.5 463l3.5.5-3.5.5v-1ZM627.5 464q3.8-1 2.5 2l-2.5-2ZM736.5 466q2.3-.7 1.5 1.5l-1.5-1.5ZM814.5 467q2.3-.7 1.5 1.5l-1.5-1.5ZM138 469q3-1 2 2-3 1-2-2ZM625.5 469l.5 3q-2.7 1.1-2-1.5l1.5-1.5ZM571.5 470l.5 2-2.5 1-.5-2 2.5-1ZM207 471q3-1 2 2-3 1-2-2ZM270.5 471q2.3-.7 1.5 1.5l-1.5-1.5ZM830.5 472l2.5 1.5-1.5.5-1-2ZM349.5 473q2.6-.8 1.5 2.5h-1l-.5-2.5ZM530 473q3-1 2 2-3 1-2-2ZM305.5 474l2.5.5-2.5.5v-1ZM574.5 474q2.3-.7 1.5 1.5l-1.5-1.5ZM609.5 474l.5 3.5h-1l.5-3.5ZM599.5 475q3.3-1.1 2.5 1.5l-2 1-.5-2.5ZM385.5 476l1 2q-2.8.7-1-2ZM158 477q3-1 2 2-3 1-2-2ZM311.5 477q2.6-.7 1.5 2l-3-.5 1.5-1.5ZM591.5 477l.5 2.5h-1l.5-2.5ZM771 478q3-1 2 2-3 1-2-2ZM606.5 480l1.5 2.5-2 .5.5-3ZM712 481q3-1 2 2-3 1-2-2ZM595 482q3-1 2 2-3 1-2-2ZM323.5 485l.5 3q-2.7 1.1-2-1.5l1.5-1.5ZM376 487q3-1 2 2-3 1-2-2ZM645 487q2.7-1.1 2 1.5l-2 1V487ZM283 489q3-1 2 2-3 1-2-2ZM640.5 491l2.5 1q1.1 2.7-1.5 2l-1-3ZM636 498q3.3-1.1 2 3-3.3 1.1-2-3ZM622 503q3.3-1.1 2 3-3.3 1.1-2-3ZM612 504q3.3-1.1 2 3-3.3 1.1-2-3ZM279.5 505l.5 2-2-.5 1.5-1.5ZM602.5 505q2.3-.7 1.5 1.5l.5 1.5q-2.2.8-1.5-1.5l-.5-1.5ZM594.5 506l.5 2.5h-1l.5-2.5ZM471 512q3-1 2 2-3 1-2-2ZM378.5 515q2.3-.7 1.5 1.5l-1.5-1.5ZM373.5 521l.5 2.5h-1l.5-2.5ZM364.5 522l1.5 2.5-2.5.5.5-1.5.5-1.5ZM491 522q3-1 2 2-3 1-2-2ZM517.5 523l.5 2.5h-1l.5-2.5ZM398.5 524l1 2q-2.8.7-1-2ZM521 527q3.3-1.1 2 3-3.3 1.1-2-3ZM654 529q2.7-1.1 2 1.5l-2 1V529ZM300 531q3.7-1.2 2 4-2.7-1.1-2 1.5l-1 2 .5 1.5q-3.7 1.3-2.5-2.5l-.5-1.5 3.5-1.5V531ZM516 566q3-1 2 2-3 1-2-2ZM264.5 574l2.5.5-2.5.5v-1ZM653 576q3-1 2 2-3 1-2-2ZM322.5 579l3.5 1.5 1 2q-2.2 1.3.5 2.5l1-2 3.5 1q1.1 2.7-1.5 2l1.5 2.5-2 3 2 .5q1.5 3.8-1.5 3l-2.5-1-1 2.5 1 3.5h-2.5l-4.5-4.5-2.5-3.5q-3.3 1.1-2.5-1.5l3-1.5q-1.3-7.5 3.5-10ZM316.5 581l1 2-1-2ZM456.5 581q3 1.5 0 3v-3ZM521.5 581q4.2-1.1 2.5 3-2.7 1.1-2-1.5l-.5-1.5ZM649.5 581q2.3-.7 1.5 1.5l-1.5-1.5ZM502 584h2q-1.1 2.7 1.5 2l3-2q-.8 6.3 3 8 2.6-.7 1.5 2l-4.5-3-1.5 6 3 1.5-5 3-1.5 3.5q-2.2-.7-1.5 1.5l-1 2.5q-2.7 1.1-2-1.5l2.5-3.5-3.5 1-3.5-9q-2.2.8-1.5-1.5l4-3V589h5.5l1.5-3q-3 1-2-2ZM473 587q2.7-1.1 2 1.5-2.2 1.3.5 2.5l2-1 1.5 2.5-1 2 3 2q-.7-2.2 1.5-1.5l1.5 1.5-3 3 1 1 4 7-1 3 2 3v2q-.7 2.3 1.5 1.5l2.5 1q1.1 2.7-1.5 2l-2.5-1.5 1 4-1 2 1 2.5 3 1.5q.8 2.3-1.5 1.5l-2.5-1.5 1 8.5q-3.3-1.3-2 3.5-2.2 1.3.5 2.5 2.3-.7 1.5 1.5-1.2 2.8-2.5.5l-1.5.5 1 2-4 6v3l-3 5.5q4.1-1.3 3 2l-5-1-2 5q3-1 2 2l-3.5-1-2.5 3.5 1 2-2.5-1.5-4.5 4.5 3 1.5q1 3-2 2l-1.5-3-4.5 3 1.5 3q2.3-.7 1.5 1.5l-3.5-2.5-5.5 2q1.1 2.7-1.5 2l-2.5 4-6.5-1-3 3q-5.4-.6-7.5 1l2 4q-2.7 1.1-2-1.5-.7-2.2-4.5-1.5l-2.5 4q-3.7 1.5-3-1.5-.7-2.2-4.5-1.5l-1.5 3-8.5-2-1.5 3-3-1.5q.9-3-3.5-1.5l-2.5 1q1.3 4.1-2 3l2-4.5q-1.2-2.5-5-1.5 1.3 3-2.5 2l-5-4-1.5.5q.8-2.6-2.5-1.5l-3.5-1q1.1 3.3-3 2l2-4-4.5-1-3.5 1-2.5-4q-3.7 1.3-2.5-2.5l-5-3-1.5-2.5q-4.8 1.7-3.5-2.5-1.2-3.2-5-2.5l-1-3.5q2.3-1.2-.5-2.5l-1.5.5.5 1.5q-3.3 1.1-2.5-1.5l-.5-1.5q3.3 1.1 2.5-1.5l-2-4.5-3 1.5q.8 2.6-2.5 1.5v-1l2.5-1.5 1-3-1-2.5-3-1.5-1-2 1-4-2-1-1 2 .5 1.5-3.5-1.5 3-.5 1-4.5-4-2.5v-3q2.7 1.1 2-1.5l1-2-1-2.5-3-1.5 3-4v-3l-5-3 2.5-1.5 3.5 2.5 1-5.5q-3.3 1.1-2-3l3-1.5 4-9.5q-5.2 1.7-4-2l2.5-1 3.5 2 1-4.5-1-2.5q2.7-1.1 2 1.5l3-2q-.7-2.6 2-1.5l.5 2 2.5-1q1.1 3.3-3 2v2.5l-3 8 2 3-3 1.5q-2 3-1 10.5v2l1 2-1 6.5q3.3-1.3 2 3.5v2q-1.3 4.8 2 3.5l1.5-3q3.8-1 2.5 2l-4 1.5q-1 4.5 1.5 5.5 2.3-.7 1.5 1.5l1 2v2q-.7 2.6 2 1.5-1.1-3.3 3-2 1.1 2.7-1.5 2l-1.5 2.5 3.5 3.5 1.5-1.5q-.8-3 3-1.5 1.1 2.7-1.5 2l-1.5 3.5 7.5 6.5h3.5l1-4q3.3-1.1 2 3l-3 1.5 1.5 3.5 3 1 3-4 1.5 3-3 1.5q-.7 2.3 1.5 1.5l3.5 1-1-2.5 1.5-.5 2 3q-2.6-.7-1.5 2h6.5l1.5 1.5q-.9 3.4 4.5 1.5l2-4 1.5 2.5q-3.8 1.7-.5 3.5l7-2 2 3h4.5q-1.7-4.1 2.5-3l1.5-.5 1.5 3.5 4.5-1q-1.1-2.7 1.5-2l2.5-1q-1.2 3 2.5 2l3.5-1q-1.2-3 2.5-2l3-1q2.3.8 1.5-1.5h-2l1.5-3.5 2 4 4.5-2q-1.7-4.5 3.5-3l4-5 2.5-1.5 1.5-2.5 3 1 3.5-3.5-2-2 1.5-2.5 2 3 2.5-3.5-3-1 1-2.5 3.5 1 2.5-3.5-1-3q4-1.4 3-6.5l3-1.5 1-3-3-1.5 1.5-4h1.5v-5h2v-4.5q-3-1.2-2-5.5 2.7 1.1 2-1.5l-3-5v-5l-1.5-3.5-1.5 3q-3 1-2-2l3-1.5-1-5.5q-4.1 1.3-3-2 3.7 1.5 3-1.5l1-2.5Zm4 42-2 2q-1 2 2 1v-3Zm-23 36v2l2-1-2-1ZM334 588l2 .5-2 1V588ZM345.5 588q2.3-.7 1.5 1.5l-1.5-1.5ZM311 596l3 .5-2.5 1.5-.5-2ZM490.5 599l-1 2-1.5-.5 2.5-1.5Z"/><path fill="#FFF" stroke="#FFF" d="m334.5 602 .5 3-3-1.5 2.5-1.5ZM448 602q3.3-1.1 2 3-3.3 1.1-2-3ZM321.5 603q3.8-1 2.5 2l-2.5-2ZM493 603q4.1-1.3 3 2-4.1 1.3-3-2ZM637.5 606l1 2q-2.8.7-1-2ZM488 609l3 .5-3 1.5v-2ZM347 616l2 .5-2 1V616ZM608.5 619l1 2-1-2ZM612 622q2.7-1.1 2 1.5l.5 1.5q-4.2 1.1-2.5-3ZM271.5 623l1 2q-2.8.7-1-2ZM630.5 626l.5 2-2-.5 1.5-1.5ZM609.5 627q2.3-.7 1.5 1.5l1 2.5q4.1-1.7 3 2.5l-3 1.5-1.5-4q-3.7 1.3-2.5-2.5l1.5-1.5ZM617 627q3-1 2 2-3 1-2-2ZM578.5 629l1 2q-2.8.7-1-2ZM605.5 632l1.5.5-1 2.5q-2.7 1.1-2-1.5l1.5-1.5ZM573.5 635q2.3-.7 1.5 1.5l-1.5-1.5ZM611.5 636v3q-3.7 1-2.5-2l2.5-1ZM354.5 640l2.5.5-2.5.5v-1ZM569.5 640l2.5.5q-2.1 3.3-2.5-.5ZM589 640q3-1 2 2-3 1-2-2Z"/><path fill="#FFF" stroke="#FFF" d="M581 641q3-1 2 2h2.5l8.5 3 .5-2 2.5 1-1 4h5.5l5.5 4.5 1 3.5h4v1.5q1.3 3.5 6 2.5v5h3.5l3 7 1-3 2.5 1v2q-2.7-1.1-2 1.5l2.5 3.5 4-2-1.5 2.5-1 2 2.5 3.5 2.5 1.5 2.5 3.5q2.3-.7 1.5 1.5l-2 3 1 3.5 3 1.5-1 3 1 4.5q2.7 1.1 2-1.5 1.5-3 3 0l-4 3 1.5 8.5 1-4 2 3-3.5 2.5v9l1 1-1 3-1 5.5q3-1.2 2 2.5l-3 1.5-1 5.5-3 5 3 3-1.5 1.5-2-3-7.5 10q3-1 2 2l-3.5-2-9.5 6.5q1.1 3.3-1.5 2.5-1.5-3.5-3-1l-5 2h-2q-6.9-2-5.5 2 4.1-1.3 3 2-3.7 1.5-3-1.5l-1.5-1.5h-8l-2 1-2-1-1.5.5-.5-1.5H580l-.5 2q-2.5-4.3-9.5-3l-1.5-3-3-1-2 3-1.5-3 2-.5-3.5-2.5-.5 2q-4.1 1.7-3-2.5l.5-1.5-3-2q-1.7 3.8-3.5.5l-1.5-2.5-3.5-1-1.5-4-3.5-1.5-1-2v-2l-.5-1.5-1 3-2.5-1v-2q2.7 1.1 2-1.5l-2-3.5-5 2q-1-3 2-2v-3.5l-4-2.5-1.5-4-2.5-1.5-1-6.5h-2q1.1 2.7-1.5 2l-1-2q2.3.8 1.5-1.5l1-1-3.5-3.5-1.5.5q.8-4.7-2.5-5.5l-2.5-.5q2.7-1.7-1.5-3.5l-2-1-1.5.5-1-3.5-3.5-1-1.5.5q1.1-3.3-1.5-2.5l-7.5-4.5 8-1.5 1.5-3q3.8-1 2.5 2h3.5l2.5-1q-1.3-3.3 3.5-2h2l9.5-3q-1.5-3.7 1.5-3l1.5-.5q-.8 2.6 2.5 1.5l8.5-5.5q-.7-2.2 1.5-1.5l1.5-.5.5 1.5 2-1 3.5 1 .5-3 2.5 1q1.1 2.7-1.5 2l-1 2 3 1 3-1q1.5 5 7.5 4l1.5 4q3.3-1.1 2.5 1.5 1.3 3.5 6 2.5l1 3.5-.5 1.5q6.3-2.2 4.5 3.5-2.8 1.8 1.5 3.5 2.6.7 1.5-2h4l1.5 3q3.8.8 4.5-1.5l-2.5-4.5q-3.7 1.3-2.5-2.5-1.2-3.2-5-2.5l1-4.5q-2.2-4.7-4.5-.5-4.2 1.1-2.5-3 4.1 1.3 3-2l-3.5-2-1 3-3.5-1.5 2-4.5-3.5-2q-2.7 1.3-.5 2.5.7 3-3 1.5l-1-3.5 3-1-4-2.5q1.1 3.3-3 2l-2.5-4q-2.6.8-1.5-2.5l3-4-.5-1.5q3.8.8 4.5-1.5l1-3.5 4-2.5 1.5-2.5 2 1 2.5-1-1-5 2.5-1 1 2 1.5-2.5-1-3.5 5 1 1-3.5-1-2.5Zm17 26-2 2q-1 2 2 1v-3Zm-16 40q-4 2 0 4-1 2 2 1-1 4 3 5l3-1q1-4-1-5-5 1-4-1l-3-3Zm7 0v4l4 1-1-3q1-4-3-2Zm4 8-3 1-1 3 3 3q4-2 3 2l3 2-2-8-3-3Zm-1 11v3l4 2 1-3q-1-3-5-2Zm6 4-2 4 4 1q2-1 0-2 1-4-2-3ZM626.5 641l.5 2-2-.5 1.5-1.5ZM493.5 648l2.5 1.5-3.5.5 1-2ZM489.5 653q2.6-.7 1.5 2l-3-.5 1.5-1.5ZM448 655q3-1.2 2 2.5l-2-1V655ZM482.5 657l2.5 1q1.1 3.3-3 2l.5-3ZM366 659q3-1 2 2-3 1-2-2ZM628.5 659l-1 2-1.5-.5 2.5-1.5ZM542 662q3-1 2 2-3 1-2-2ZM280.5 665l.5 2-2-.5 1.5-1.5ZM387.5 666l1 2q-2.8.7-1-2ZM430 667q3-1.2 2 2.5l-2-1V667ZM441.5 667l1.5 3q-3.5 1.1-1.5-3ZM392 670l2 .5-.5 2.5q-3 .7-1.5-3ZM427.5 673l.5 2.5h-1l.5-2.5ZM480.5 674q2.3-.7 1.5 1.5l-1.5-1.5ZM684.5 674q2.3-.7 1.5 1.5l-1.5-1.5ZM348.5 680l2.5.5q-2.1 3.3-2.5-.5Z"/><path fill="#FFF" stroke="#FFF" d="M530 680q3-1 2 2-3 1-2-2ZM516.5 686q2.3-.7 1.5 1.5l-1.5-1.5ZM312.5 692l.5 2-2-.5 1.5-1.5ZM335 694q3-1 2 2-3 1-2-2ZM379.5 695q2.6-.8 1.5 2.5h-1l-.5-2.5ZM678 696l2 .5-2 1V696ZM369.5 698l.5 2.5-1.5 2.5 5 2 .5-2q3.7-1.5 3 1.5 1.2 2.5 5 1.5-.7 3.8 2.5 5 2.6-.8 1.5 2.5l-1 2 3 5q-1.2 8.9 1 12.5-4-1.4-2 5.5 2.8 1.1 2 4.5-3.3-1.3-2 3.5l1 2.5q3-1.2 2 2.5l5 4-2 3 5 3.5q-1.1-3.3 3-2 1.1 2.7-1.5 2l-1.5 1.5 3.5 3.5q3 .7 1.5-3h2l-2 3.5 4.5 3.5q1.1-2.7 4.5-2 1.1 2.7-1.5 2v1l3 1h4.5q-1.2 3 2.5 2h2l3-2 1 2q-3.7-1-2.5 2l7.5-1 6 3 1.5-4 3 1.5q.8 2.3-1.5 1.5v1q7 1.5 8.5-2.5-.7-2.6 2-1.5 1.1 2.7-1.5 2l-1 2q8 1 10.5-3.5-.7-2.6 2-1.5l1 2.5-3 1 3.5.5 4-1 2.5-2.5q-.7-2.2 1.5-1.5.8 3.8 6 3l3-4 5 2 2.5-1v-2h7.5l.5-2q-3 1-2-2l2.5-1 2 3 4.5-1 1.5-3 2-1 2 1 2.5-1q1.1-2.7-1.5-2l-1.5.5q-1.1-4.2 3-2.5l1.5 3 4.5-3.5-1.5-2.5q-2.6.8-1.5-2.5h1l2.5 3.5q4 .5 4.5-2.5l1.5-2.5q3.3-1.1 2.5 1.5l4 2.5 1.5 4 2 1 1.5-.5 1 4.5 5 2.5q-.7 2.3 1.5 1.5l3.5 2.5q-.7 2.3 1.5 1.5l2.5 1q1.3 3.3-3.5 2-2.7 1.2-.5 2.5l-5.5 8.5q-2.2.8-1.5-1.5l-4 3 2 .5-1.5 3-2.5 1.5-1.5 2.5-3-1-3.5 2 2 4.5-2-1q.8-2.2-1.5-1.5l-3.5 2-1.5 3-3.5 1.5q1.4 4.6-4.5 2.5l-3.5 1 2 3.5-2 .5q1.4-3.7-4.5-2l-1.5 3h-6.5l-7.5 3.5q1.3 3.8-2.5 2.5-.7-2.7-5-2-.5 3.5-5 3-1.2-2.3-6-1l-4 2q-1.2-2.2-6-1l-4 1-5-2-1.5 3-7.5-3-2.5 4q-2.7 1.1-2-1.5l2-3.5-4.5-1-4 1-4-3q-1.5 2.5-3-1l-4.5-1q1.1 3.3-3 2l-2.5-4-7-3-2.5 1q1.1 2.7-1.5 2l1.5-2.5-1.5-3.5-8.5-5-1.5 3-.5-2.5 2-2-3.5-3.5q-2.2.8-1.5-1.5-1.2-3.2-5-2.5 1-4.7-2.5-6-2.2.8-1.5-1.5v-2l-1.5-4.5-2 3-1.5-3q3.7 1.4 2-4.5l-3-1.5q1.6-2.1 1-7.5l-2-4 1-6.5q-3.3 1.3-2-3.5l1-6.5q-3.3 1.3-2-3.5l1-3-1.5-3.5-4 3v-1q2.3.8 1.5-1.5l1-4-4-3 1-4q-4.5-2.5-5-7.5-4.1 1.7-3-2.5l-6-2.5q.6-4.6-3-6.5l1.5-.5 3 1 7.5-4.5q-1.1-4.2 3-2.5l1.5 3 2-1 2.5 1 1.5-4Zm1.5 23q-2 6 3 4 2-6-3-4Zm99 55v1h2l-2-1Zm63 15-3 4 3-2v-2ZM306.5 699l.5 2-2-.5 1.5-1.5Z"/><path fill="#FFF" stroke="#FFF" d="M350 700q3-1 2 2-3 1-2-2ZM494.5 700l.5 2-2-.5 1.5-1.5ZM663 700q3-1 2 2-3 1-2-2ZM675.5 700l.5 2.5h-1l.5-2.5ZM347 713l3 .5-3 1.5v-2ZM352 718q3-1 2 2-3 1-2-2ZM515 719l2 .5-2 1V719ZM645.5 722q3 1.5 0 3v-3ZM357.5 723q2.3-.7 1.5 1.5l-1.5-1.5ZM390.5 725l2.5.5q-2.1 3.3-2.5-.5ZM646.5 732l.5 2-2-.5 1.5-1.5ZM510.5 734l4 5 1.5.5q-4 1.4-3 6.5-3.8 1.5-3-1.5l-3.5-2.5q-3 .5-2.5 4.5l4 1.5q1.1 3.3-3 2 1.1-2.7-1.5-2l-2.5-1 1.5-3q2.3.8 1.5-1.5v-2l-1.5-2.5q-2.6.7-1.5-2h2q-1.1 2.7 1.5 2l2 1 4-5Zm-.5 4-2 2 3 3 2-1q2-6-3-4ZM653.5 737q2.3-.7 1.5 1.5l-1.5-1.5ZM441.5 741q2.6-.8 1.5 2.5l6 3-2 7.5q4.5-1.7 3 3.5-2.2 1.3.5 2.5l4.5-1q-1.5 3.8 1.5 3l4.5 1.5-2.5 1.5q-1.5-2.5-7-1l-3.5 2q1.1-3.5-6.5-2-2.5 4.5-5-1-4.8 1.7-3.5-2.5l-3.5-2.5-1.5 4-3.5 1-1.5-3-7-2q1.5-3.7-1.5-3l1-2 2.5 1.5 2-4-1-2 4-5.5q3-1 2 2h2.5l3.5-1q-1.2-3 2.5-2 1.3 2.3 6 1l2-2Zm-18.5 5-1 2 2-1-1-1Zm9 9q-2 5 2 4 2-5-2-4Z"/><path fill="#FFF" stroke="#FFF" d="m451.5 749 1 2q-2.8.7-1-2ZM536.5 757l1 2-2 1 .5-1.5.5-1.5ZM634 757q3-1 2 2-3 1-2-2ZM547 766q3-1 2 2-3 1-2-2ZM360.5 772q2.3-.7 1.5 1.5l-1.5-1.5ZM569.5 772l-1 2 1-2ZM591.5 775q3.8-1 2.5 2l-2.5-2ZM553 780l2 .5-2 1V780ZM617.5 780l1 2q-2.8.7-1-2ZM550.5 785l.5 2-2-.5 1.5-1.5ZM366 787l3 .5-2.5 1.5-.5-2ZM544 790q3-1 2 2-3 1-2-2ZM380.5 794l-1 2 1-2ZM541.5 796l1.5 2.5-2-1 .5-1.5ZM378 806l2 .5-2 1V806ZM394.5 808q2.3-.7 1.5 1.5l-1.5-1.5ZM383 810l2 .5-2 1V810ZM419.5 819q2.3-.7 1.5 1.5l-1.5-1.5ZM415.5 827l1 2q-2.8.7-1-2ZM484.5 831l1 2q-2.8.7-1-2ZM445 834q3-1 2 2-3 1-2-2Z"/></svg>